M48
; DRILL file {KiCad 9.0.5} date 2025-11-15T17:03:24+0100
; FORMAT={-:-/ absolute / metric / decimal}
; #@! TF.CreationDate,2025-11-15T17:03:24+01:00
; #@! TF.GenerationSoftware,Kicad,Pcbnew,9.0.5
; #@! TF.FileFunction,NonPlated,1,2,NPTH
FMAT,2
METRIC
; #@! TA.AperFunction,NonPlated,NPTH,ComponentDrill
T1C1.300
; #@! TA.AperFunction,NonPlated,NPTH,ComponentDrill
T2C3.000
; #@! TA.AperFunction,NonPlated,NPTH,ComponentDrill
T3C3.450
%
G90
G05
T1
X10.625Y-151.0
X10.625Y-153.5
X15.625Y-146.0
X20.625Y-151.0
X20.625Y-153.5
X41.875Y-151.0
X41.875Y-153.5
X46.875Y-146.0
X51.875Y-151.0
X51.875Y-153.5
X73.125Y-151.0
X73.125Y-153.5
X78.125Y-146.0
X83.125Y-151.0
X83.125Y-153.5
X104.375Y-151.0
X104.375Y-153.5
X109.375Y-146.0
X114.375Y-151.0
X114.375Y-153.5
X135.625Y-151.0
X135.625Y-153.5
X140.625Y-146.0
X145.625Y-151.0
X145.625Y-153.5
X166.875Y-151.0
X166.875Y-153.5
X171.875Y-146.0
X176.875Y-151.0
X176.875Y-153.5
X198.125Y-151.0
X198.125Y-153.5
X203.125Y-146.0
X208.125Y-151.0
X208.125Y-153.5
X229.375Y-151.0
X229.375Y-153.5
X234.375Y-146.0
X239.375Y-151.0
X239.375Y-153.5
T2
X3.5Y-138.0
X5.0Y-65.0
X245.0Y-65.0
X246.5Y-138.0
T3
X220.3Y-3.828
X220.3Y-61.228
M30
