%TF.GenerationSoftware,KiCad,Pcbnew,9.0.5*%
%TF.CreationDate,2025-11-15T17:03:18+01:00*%
%TF.ProjectId,SpikyOscilloscopce,5370696b-794f-4736-9369-6c6c6f73636f,rev?*%
%TF.SameCoordinates,Original*%
%TF.FileFunction,Legend,Bot*%
%TF.FilePolarity,Positive*%
%FSLAX46Y46*%
G04 Gerber Fmt 4.6, Leading zero omitted, Abs format (unit mm)*
G04 Created by KiCad (PCBNEW 9.0.5) date 2025-11-15 17:03:18*
%MOMM*%
%LPD*%
G01*
G04 APERTURE LIST*
%ADD10C,0.150000*%
G04 APERTURE END LIST*
D10*
X249504819Y-5266189D02*
X248504819Y-5266189D01*
X249504819Y-5837617D02*
X248933390Y-5409046D01*
X248504819Y-5837617D02*
X249076247Y-5266189D01*
X249457200Y-6647141D02*
X249504819Y-6551903D01*
X249504819Y-6551903D02*
X249504819Y-6361427D01*
X249504819Y-6361427D02*
X249457200Y-6266189D01*
X249457200Y-6266189D02*
X249361961Y-6218570D01*
X249361961Y-6218570D02*
X248981009Y-6218570D01*
X248981009Y-6218570D02*
X248885771Y-6266189D01*
X248885771Y-6266189D02*
X248838152Y-6361427D01*
X248838152Y-6361427D02*
X248838152Y-6551903D01*
X248838152Y-6551903D02*
X248885771Y-6647141D01*
X248885771Y-6647141D02*
X248981009Y-6694760D01*
X248981009Y-6694760D02*
X249076247Y-6694760D01*
X249076247Y-6694760D02*
X249171485Y-6218570D01*
X248838152Y-7028094D02*
X249504819Y-7266189D01*
X248838152Y-7504284D02*
X249504819Y-7266189D01*
X249504819Y-7266189D02*
X249742914Y-7170951D01*
X249742914Y-7170951D02*
X249790533Y-7123332D01*
X249790533Y-7123332D02*
X249838152Y-7028094D01*
X249457200Y-7837618D02*
X249504819Y-7932856D01*
X249504819Y-7932856D02*
X249504819Y-8123332D01*
X249504819Y-8123332D02*
X249457200Y-8218570D01*
X249457200Y-8218570D02*
X249361961Y-8266189D01*
X249361961Y-8266189D02*
X249314342Y-8266189D01*
X249314342Y-8266189D02*
X249219104Y-8218570D01*
X249219104Y-8218570D02*
X249171485Y-8123332D01*
X249171485Y-8123332D02*
X249171485Y-7980475D01*
X249171485Y-7980475D02*
X249123866Y-7885237D01*
X249123866Y-7885237D02*
X249028628Y-7837618D01*
X249028628Y-7837618D02*
X248981009Y-7837618D01*
X248981009Y-7837618D02*
X248885771Y-7885237D01*
X248885771Y-7885237D02*
X248838152Y-7980475D01*
X248838152Y-7980475D02*
X248838152Y-8123332D01*
X248838152Y-8123332D02*
X248885771Y-8218570D01*
X248838152Y-8551904D02*
X248838152Y-8932856D01*
X248504819Y-8694761D02*
X249361961Y-8694761D01*
X249361961Y-8694761D02*
X249457200Y-8742380D01*
X249457200Y-8742380D02*
X249504819Y-8837618D01*
X249504819Y-8837618D02*
X249504819Y-8932856D01*
X249504819Y-9409047D02*
X249457200Y-9313809D01*
X249457200Y-9313809D02*
X249409580Y-9266190D01*
X249409580Y-9266190D02*
X249314342Y-9218571D01*
X249314342Y-9218571D02*
X249028628Y-9218571D01*
X249028628Y-9218571D02*
X248933390Y-9266190D01*
X248933390Y-9266190D02*
X248885771Y-9313809D01*
X248885771Y-9313809D02*
X248838152Y-9409047D01*
X248838152Y-9409047D02*
X248838152Y-9551904D01*
X248838152Y-9551904D02*
X248885771Y-9647142D01*
X248885771Y-9647142D02*
X248933390Y-9694761D01*
X248933390Y-9694761D02*
X249028628Y-9742380D01*
X249028628Y-9742380D02*
X249314342Y-9742380D01*
X249314342Y-9742380D02*
X249409580Y-9694761D01*
X249409580Y-9694761D02*
X249457200Y-9647142D01*
X249457200Y-9647142D02*
X249504819Y-9551904D01*
X249504819Y-9551904D02*
X249504819Y-9409047D01*
X248838152Y-10170952D02*
X249504819Y-10170952D01*
X248933390Y-10170952D02*
X248885771Y-10218571D01*
X248885771Y-10218571D02*
X248838152Y-10313809D01*
X248838152Y-10313809D02*
X248838152Y-10456666D01*
X248838152Y-10456666D02*
X248885771Y-10551904D01*
X248885771Y-10551904D02*
X248981009Y-10599523D01*
X248981009Y-10599523D02*
X249504819Y-10599523D01*
X249457200Y-11456666D02*
X249504819Y-11361428D01*
X249504819Y-11361428D02*
X249504819Y-11170952D01*
X249504819Y-11170952D02*
X249457200Y-11075714D01*
X249457200Y-11075714D02*
X249361961Y-11028095D01*
X249361961Y-11028095D02*
X248981009Y-11028095D01*
X248981009Y-11028095D02*
X248885771Y-11075714D01*
X248885771Y-11075714D02*
X248838152Y-11170952D01*
X248838152Y-11170952D02*
X248838152Y-11361428D01*
X248838152Y-11361428D02*
X248885771Y-11456666D01*
X248885771Y-11456666D02*
X248981009Y-11504285D01*
X248981009Y-11504285D02*
X249076247Y-11504285D01*
X249076247Y-11504285D02*
X249171485Y-11028095D01*
X248600057Y-12647143D02*
X248552438Y-12694762D01*
X248552438Y-12694762D02*
X248504819Y-12790000D01*
X248504819Y-12790000D02*
X248504819Y-13028095D01*
X248504819Y-13028095D02*
X248552438Y-13123333D01*
X248552438Y-13123333D02*
X248600057Y-13170952D01*
X248600057Y-13170952D02*
X248695295Y-13218571D01*
X248695295Y-13218571D02*
X248790533Y-13218571D01*
X248790533Y-13218571D02*
X248933390Y-13170952D01*
X248933390Y-13170952D02*
X249504819Y-12599524D01*
X249504819Y-12599524D02*
X249504819Y-13218571D01*
X248838152Y-14075714D02*
X249504819Y-14075714D01*
X248457200Y-13837619D02*
X249171485Y-13599524D01*
X249171485Y-13599524D02*
X249171485Y-14218571D01*
X248504819Y-14504286D02*
X248504819Y-15170952D01*
X248504819Y-15170952D02*
X249504819Y-14742381D01*
X248504819Y-15456667D02*
X248504819Y-16123333D01*
X248504819Y-16123333D02*
X249504819Y-15694762D01*
X249885771Y-17551905D02*
X249838152Y-17504286D01*
X249838152Y-17504286D02*
X249695295Y-17409048D01*
X249695295Y-17409048D02*
X249600057Y-17361429D01*
X249600057Y-17361429D02*
X249457200Y-17313810D01*
X249457200Y-17313810D02*
X249219104Y-17266191D01*
X249219104Y-17266191D02*
X249028628Y-17266191D01*
X249028628Y-17266191D02*
X248790533Y-17313810D01*
X248790533Y-17313810D02*
X248647676Y-17361429D01*
X248647676Y-17361429D02*
X248552438Y-17409048D01*
X248552438Y-17409048D02*
X248409580Y-17504286D01*
X248409580Y-17504286D02*
X248361961Y-17551905D01*
X249504819Y-17932858D02*
X248504819Y-17932858D01*
X248504819Y-17932858D02*
X248504819Y-18313810D01*
X248504819Y-18313810D02*
X248552438Y-18409048D01*
X248552438Y-18409048D02*
X248600057Y-18456667D01*
X248600057Y-18456667D02*
X248695295Y-18504286D01*
X248695295Y-18504286D02*
X248838152Y-18504286D01*
X248838152Y-18504286D02*
X248933390Y-18456667D01*
X248933390Y-18456667D02*
X248981009Y-18409048D01*
X248981009Y-18409048D02*
X249028628Y-18313810D01*
X249028628Y-18313810D02*
X249028628Y-17932858D01*
X249409580Y-19504286D02*
X249457200Y-19456667D01*
X249457200Y-19456667D02*
X249504819Y-19313810D01*
X249504819Y-19313810D02*
X249504819Y-19218572D01*
X249504819Y-19218572D02*
X249457200Y-19075715D01*
X249457200Y-19075715D02*
X249361961Y-18980477D01*
X249361961Y-18980477D02*
X249266723Y-18932858D01*
X249266723Y-18932858D02*
X249076247Y-18885239D01*
X249076247Y-18885239D02*
X248933390Y-18885239D01*
X248933390Y-18885239D02*
X248742914Y-18932858D01*
X248742914Y-18932858D02*
X248647676Y-18980477D01*
X248647676Y-18980477D02*
X248552438Y-19075715D01*
X248552438Y-19075715D02*
X248504819Y-19218572D01*
X248504819Y-19218572D02*
X248504819Y-19313810D01*
X248504819Y-19313810D02*
X248552438Y-19456667D01*
X248552438Y-19456667D02*
X248600057Y-19504286D01*
X249123866Y-19932858D02*
X249123866Y-20694763D01*
X248838152Y-21170953D02*
X249838152Y-21170953D01*
X248885771Y-21170953D02*
X248838152Y-21266191D01*
X248838152Y-21266191D02*
X248838152Y-21456667D01*
X248838152Y-21456667D02*
X248885771Y-21551905D01*
X248885771Y-21551905D02*
X248933390Y-21599524D01*
X248933390Y-21599524D02*
X249028628Y-21647143D01*
X249028628Y-21647143D02*
X249314342Y-21647143D01*
X249314342Y-21647143D02*
X249409580Y-21599524D01*
X249409580Y-21599524D02*
X249457200Y-21551905D01*
X249457200Y-21551905D02*
X249504819Y-21456667D01*
X249504819Y-21456667D02*
X249504819Y-21266191D01*
X249504819Y-21266191D02*
X249457200Y-21170953D01*
X249504819Y-22075715D02*
X248838152Y-22075715D01*
X248504819Y-22075715D02*
X248552438Y-22028096D01*
X248552438Y-22028096D02*
X248600057Y-22075715D01*
X248600057Y-22075715D02*
X248552438Y-22123334D01*
X248552438Y-22123334D02*
X248504819Y-22075715D01*
X248504819Y-22075715D02*
X248600057Y-22075715D01*
X248838152Y-22551905D02*
X249504819Y-22551905D01*
X248933390Y-22551905D02*
X248885771Y-22599524D01*
X248885771Y-22599524D02*
X248838152Y-22694762D01*
X248838152Y-22694762D02*
X248838152Y-22837619D01*
X248838152Y-22837619D02*
X248885771Y-22932857D01*
X248885771Y-22932857D02*
X248981009Y-22980476D01*
X248981009Y-22980476D02*
X249504819Y-22980476D01*
X248838152Y-24647143D02*
X249504819Y-24647143D01*
X248457200Y-24409048D02*
X249171485Y-24170953D01*
X249171485Y-24170953D02*
X249171485Y-24790000D01*
X248838152Y-25266191D02*
X249409580Y-25837619D01*
X248838152Y-25837619D02*
X249409580Y-25266191D01*
X249219104Y-26361429D02*
X249219104Y-26837619D01*
X249504819Y-26266191D02*
X248504819Y-26599524D01*
X248504819Y-26599524D02*
X249504819Y-26932857D01*
X249219104Y-27218572D02*
X249219104Y-27694762D01*
X249504819Y-27123334D02*
X248504819Y-27456667D01*
X248504819Y-27456667D02*
X249504819Y-27790000D01*
X249885771Y-28028096D02*
X249838152Y-28075715D01*
X249838152Y-28075715D02*
X249695295Y-28170953D01*
X249695295Y-28170953D02*
X249600057Y-28218572D01*
X249600057Y-28218572D02*
X249457200Y-28266191D01*
X249457200Y-28266191D02*
X249219104Y-28313810D01*
X249219104Y-28313810D02*
X249028628Y-28313810D01*
X249028628Y-28313810D02*
X248790533Y-28266191D01*
X248790533Y-28266191D02*
X248647676Y-28218572D01*
X248647676Y-28218572D02*
X248552438Y-28170953D01*
X248552438Y-28170953D02*
X248409580Y-28075715D01*
X248409580Y-28075715D02*
X248361961Y-28028096D01*
X244480624Y-10135342D02*
X242194910Y-10135342D01*
X243337767Y-11278199D02*
X243337767Y-8992484D01*
M02*
