  0
SECTION
  2
HEADER
  9
$ACADVER
  1
AC1024
  9
$ACADMAINTVER
 70
     6
  9
$DWGCODEPAGE
  3
ANSI_1252
  9
$INSBASE
 10
0.0
 20
0.0
 30
0.0
  9
$EXTMIN
 10
1.000000000000000E+20
 20
1.000000000000000E+20
 30
1.000000000000000E+20
  9
$EXTMAX
 10
-1.000000000000000E+20
 20
-1.000000000000000E+20
 30
-1.000000000000000E+20
  9
$LIMMIN
 10
0.0
 20
0.0
  9
$LIMMAX
 10
12.0
 20
9.0
  9
$ORTHOMODE
 70
     0
  9
$REGENMODE
 70
     1
  9
$FILLMODE
 70
     1
  9
$QTEXTMODE
 70
     0
  9
$MIRRTEXT
 70
     1
  9
$LTSCALE
 40
1.0
  9
$ATTMODE
 70
     1
  9
$TEXTSIZE
 40
0.2
  9
$TRACEWID
 40
0.05
  9
$TEXTSTYLE
  7
Standard
  9
$CLAYER
  8
0
  9
$CELTYPE
  6
ByLayer
  9
$CECOLOR
 62
   256
  9
$CELTSCALE
 40
1.0
  9
$DISPSILH
 70
     0
  9
$DIMSCALE
 40
1.0
  9
$DIMASZ
 40
0.18
  9
$DIMEXO
 40
0.0625
  9
$DIMDLI
 40
0.38
  9
$DIMRND
 40
0.0
  9
$DIMDLE
 40
0.0
  9
$DIMEXE
 40
0.18
  9
$DIMTP
 40
0.0
  9
$DIMTM
 40
0.0
  9
$DIMTXT
 40
0.18
  9
$DIMCEN
 40
0.09
  9
$DIMTSZ
 40
0.0
  9
$DIMTOL
 70
     0
  9
$DIMLIM
 70
     0
  9
$DIMTIH
 70
     1
  9
$DIMTOH
 70
     1
  9
$DIMSE1
 70
     0
  9
$DIMSE2
 70
     0
  9
$DIMTAD
 70
     0
  9
$DIMZIN
 70
     0
  9
$DIMBLK
  1

  9
$DIMASO
 70
     1
  9
$DIMSHO
 70
     1
  9
$DIMPOST
  1

  9
$DIMAPOST
  1

  9
$DIMALT
 70
     0
  9
$DIMALTD
 70
     2
  9
$DIMALTF
 40
25.4
  9
$DIMLFAC
 40
1.0
  9
$DIMTOFL
 70
     0
  9
$DIMTVP
 40
0.0
  9
$DIMTIX
 70
     0
  9
$DIMSOXD
 70
     0
  9
$DIMSAH
 70
     0
  9
$DIMBLK1
  1

  9
$DIMBLK2
  1

  9
$DIMSTYLE
  2
Standard
  9
$DIMCLRD
 70
     0
  9
$DIMCLRE
 70
     0
  9
$DIMCLRT
 70
     0
  9
$DIMTFAC
 40
1.0
  9
$DIMGAP
 40
0.09
  9
$DIMJUST
 70
     0
  9
$DIMSD1
 70
     0
  9
$DIMSD2
 70
     0
  9
$DIMTOLJ
 70
     1
  9
$DIMTZIN
 70
     0
  9
$DIMALTZ
 70
     0
  9
$DIMALTTZ
 70
     0
  9
$DIMUPT
 70
     0
  9
$DIMDEC
 70
     4
  9
$DIMTDEC
 70
     4
  9
$DIMALTU
 70
     2
  9
$DIMALTTD
 70
     2
  9
$DIMTXSTY
  7
Standard
  9
$DIMAUNIT
 70
     0
  9
$DIMADEC
 70
     0
  9
$DIMALTRND
 40
0.0
  9
$DIMAZIN
 70
     0
  9
$DIMDSEP
 70
    46
  9
$DIMATFIT
 70
     3
  9
$DIMFRAC
 70
     0
  9
$DIMLDRBLK
  1

  9
$DIMLUNIT
 70
     2
  9
$DIMLWD
 70
    -2
  9
$DIMLWE
 70
    -2
  9
$DIMTMOVE
 70
     0
  9
$DIMFXL
 40
1.0
  9
$DIMFXLON
 70
     0
  9
$DIMJOGANG
 40
0.7853981633974483
  9
$DIMTFILL
 70
     0
  9
$DIMTFILLCLR
 70
     0
  9
$DIMARCSYM
 70
     0
  9
$DIMLTYPE
  6

  9
$DIMLTEX1
  6

  9
$DIMLTEX2
  6

  9
$DIMTXTDIRECTION
 70
     0
  9
$LUNITS
 70
     2
  9
$LUPREC
 70
     4
  9
$SKETCHINC
 40
0.1
  9
$FILLETRAD
 40
0.5
  9
$AUNITS
 70
     0
  9
$AUPREC
 70
     0
  9
$MENU
  1
.
  9
$ELEVATION
 40
0.0
  9
$PELEVATION
 40
0.0
  9
$THICKNESS
 40
0.0
  9
$LIMCHECK
 70
     0
  9
$CHAMFERA
 40
0.5
  9
$CHAMFERB
 40
0.5
  9
$CHAMFERC
 40
1.0
  9
$CHAMFERD
 40
0.0
  9
$SKPOLY
 70
     0
  9
$TDCREATE
 40
2461225.993886979
  9
$TDUCREATE
 40
2461225.910553646
  9
$TDUPDATE
 40
2461225.993886979
  9
$TDUUPDATE
 40
2461225.910553646
  9
$TDINDWG
 40
0.0000000116
  9
$TDUSRTIMER
 40
0.0000000116
  9
$USRTIMER
 70
     1
  9
$ANGBASE
 50
0.0
  9
$ANGDIR
 70
     0
  9
$PDMODE
 70
     0
  9
$PDSIZE
 40
0.0
  9
$PLINEWID
 40
0.0
  9
$SPLFRAME
 70
     0
  9
$SPLINETYPE
 70
     6
  9
$SPLINESEGS
 70
     8
  9
$HANDSEED
  5
44
  9
$SURFTAB1
 70
     6
  9
$SURFTAB2
 70
     6
  9
$SURFTYPE
 70
     6
  9
$SURFU
 70
     6
  9
$SURFV
 70
     6
  9
$UCSBASE
  2

  9
$UCSNAME
  2

  9
$UCSORG
 10
0.0
 20
0.0
 30
0.0
  9
$UCSXDIR
 10
1.0
 20
0.0
 30
0.0
  9
$UCSYDIR
 10
0.0
 20
1.0
 30
0.0
  9
$UCSORTHOREF
  2

  9
$UCSORTHOVIEW
 70
     0
  9
$UCSORGTOP
 10
0.0
 20
0.0
 30
0.0
  9
$UCSORGBOTTOM
 10
0.0
 20
0.0
 30
0.0
  9
$UCSORGLEFT
 10
0.0
 20
0.0
 30
0.0
  9
$UCSORGRIGHT
 10
0.0
 20
0.0
 30
0.0
  9
$UCSORGFRONT
 10
0.0
 20
0.0
 30
0.0
  9
$UCSORGBACK
 10
0.0
 20
0.0
 30
0.0
  9
$PUCSBASE
  2

  9
$PUCSNAME
  2

  9
$PUCSORG
 10
0.0
 20
0.0
 30
0.0
  9
$PUCSXDIR
 10
1.0
 20
0.0
 30
0.0
  9
$PUCSYDIR
 10
0.0
 20
1.0
 30
0.0
  9
$PUCSORTHOREF
  2

  9
$PUCSORTHOVIEW
 70
     0
  9
$PUCSORGTOP
 10
0.0
 20
0.0
 30
0.0
  9
$PUCSORGBOTTOM
 10
0.0
 20
0.0
 30
0.0
  9
$PUCSORGLEFT
 10
0.0
 20
0.0
 30
0.0
  9
$PUCSORGRIGHT
 10
0.0
 20
0.0
 30
0.0
  9
$PUCSORGFRONT
 10
0.0
 20
0.0
 30
0.0
  9
$PUCSORGBACK
 10
0.0
 20
0.0
 30
0.0
  9
$USERI1
 70
     0
  9
$USERI2
 70
     0
  9
$USERI3
 70
     0
  9
$USERI4
 70
     0
  9
$USERI5
 70
     0
  9
$USERR1
 40
0.0
  9
$USERR2
 40
0.0
  9
$USERR3
 40
0.0
  9
$USERR4
 40
0.0
  9
$USERR5
 40
0.0
  9
$WORLDVIEW
 70
     1
  9
$SHADEDGE
 70
     3
  9
$SHADEDIF
 70
    70
  9
$TILEMODE
 70
     1
  9
$MAXACTVP
 70
    64
  9
$PINSBASE
 10
0.0
 20
0.0
 30
0.0
  9
$PLIMCHECK
 70
     0
  9
$PEXTMIN
 10
1.000000000000000E+20
 20
1.000000000000000E+20
 30
1.000000000000000E+20
  9
$PEXTMAX
 10
-1.000000000000000E+20
 20
-1.000000000000000E+20
 30
-1.000000000000000E+20
  9
$PLIMMIN
 10
0.0
 20
0.0
  9
$PLIMMAX
 10
12.0
 20
9.0
  9
$UNITMODE
 70
     0
  9
$VISRETAIN
 70
     1
  9
$PLINEGEN
 70
     0
  9
$PSLTSCALE
 70
     1
  9
$TREEDEPTH
 70
  3020
  9
$CMLSTYLE
  2
Standard
  9
$CMLJUST
 70
     0
  9
$CMLSCALE
 40
1.0
  9
$PROXYGRAPHICS
 70
     1
  9
$MEASUREMENT
 70
     0
  9
$CELWEIGHT
370
    -1
  9
$ENDCAPS
280
     0
  9
$JOINSTYLE
280
     0
  9
$LWDISPLAY
290
     1
  9
$INSUNITS
 70
     1
  9
$HYPERLINKBASE
  1

  9
$STYLESHEET
  1

  9
$XEDIT
290
     1
  9
$CEPSNTYPE
380
     0
  9
$PSTYLEMODE
290
     1
  9
$FINGERPRINTGUID
  2
{A00D74BA-73BB-4B71-8E93-50DC181A168B}
  9
$VERSIONGUID
  2
{FAEB1C32-E019-11D5-929B-00C0DF256EC4}
  9
$EXTNAMES
290
     1
  9
$PSVPSCALE
 40
0.0
  9
$OLESTARTUP
290
     0
  9
$SORTENTS
280
   127
  9
$INDEXCTL
280
     0
  9
$HIDETEXT
280
     1
  9
$XCLIPFRAME
280
     2
  9
$HALOGAP
280
     0
  9
$OBSCOLOR
 70
   257
  9
$OBSLTYPE
280
     0
  9
$INTERSECTIONDISPLAY
280
     0
  9
$INTERSECTIONCOLOR
 70
   257
  9
$DIMASSOC
280
     2
  9
$PROJECTNAME
  1

  9
$CAMERADISPLAY
290
     0
  9
$LENSLENGTH
 40
50.0
  9
$CAMERAHEIGHT
 40
0.0
  9
$STEPSPERSEC
 40
2.0
  9
$STEPSIZE
 40
6.0
  9
$3DDWFPREC
 40
2.0
  9
$PSOLWIDTH
 40
0.25
  9
$PSOLHEIGHT
 40
4.0
  9
$LOFTANG1
 40
1.570796326794897
  9
$LOFTANG2
 40
1.570796326794897
  9
$LOFTMAG1
 40
0.0
  9
$LOFTMAG2
 40
0.0
  9
$LOFTPARAM
 70
     7
  9
$LOFTNORMALS
280
     1
  9
$LATITUDE
 40
37.795
  9
$LONGITUDE
 40
-122.394
  9
$NORTHDIRECTION
 40
0.0
  9
$TIMEZONE
 70
 -8000
  9
$LIGHTGLYPHDISPLAY
280
     1
  9
$TILEMODELIGHTSYNCH
280
     1
  9
$CMATERIAL
347
3C
  9
$SOLIDHIST
280
     1
  9
$SHOWHIST
280
     1
  9
$DWFFRAME
280
     2
  9
$DGNFRAME
280
     2
  9
$REALWORLDSCALE
290
     1
  9
$INTERFERECOLOR
 62
   256
  9
$CSHADOW
280
     0
  9
$SHADOWPLANELOCATION
 40
0.0
  0
ENDSEC
  0
SECTION
  2
CLASSES
  0
CLASS
  1
ACDBDICTIONARYWDFLT
  2
AcDbDictionaryWithDefault
  3
ObjectDBX Classes
 90
        0
 91
        4
280
     0
281
     0
  0
CLASS
  1
VISUALSTYLE
  2
AcDbVisualStyle
  3
ObjectDBX Classes
 90
     4095
 91
        4
280
     0
281
     0
  0
CLASS
  1
MATERIAL
  2
AcDbMaterial
  3
ObjectDBX Classes
 90
     1153
 91
        4
280
     0
281
     0
  0
CLASS
  1
SUN
  2
AcDbSun
  3
SCENEOE
 90
     1024
 91
        4
280
     0
281
     0
  0
ENDSEC
  0
SECTION
  2
TABLES
  0
TABLE
  2
VPORT
  5
8
330
0
100
AcDbSymbolTable
 70
     1
  0
VPORT
  5
29
330
8
100
AcDbSymbolTableRecord
100
AcDbViewportTableRecord
  2
*Active
 70
     0
 10
0.0
 20
0.0
 11
1.0
 21
1.0
 12
0.0
 22
0.0
 13
0.0
 23
0.0
 14
0.5
 24
0.5
 15
0.5
 25
0.5
 16
0.0
 26
0.0
 36
1.0
 17
539.999999865
 27
-674.99999983125
 37
0.0
 40
1349.9999996625
 41
0.7999999999999999
 42
50.0
 43
0.0
 44
0.0
 50
0.0
 51
0.0
 71
     0
 72
   100
 73
     1
 74
     3
 75
     0
 76
     0
 77
     0
 78
     0
281
     0
 65
     1
110
0.0
120
0.0
130
0.0
111
1.0
121
0.0
131
0.0
112
0.0
122
1.0
132
0.0
 79
     0
146
0.0
 60
     3
 61
     5
292
     1
282
     1
141
0.0
142
0.0
 63
   250
361
3F
  0
ENDTAB
  0
TABLE
  2
LTYPE
  5
5
330
0
100
AcDbSymbolTable
 70
     1
  0
LTYPE
  5
14
330
5
100
AcDbSymbolTableRecord
100
AcDbLinetypeTableRecord
  2
ByBlock
 70
     0
  3

 72
    65
 73
     0
 40
0.0
  0
LTYPE
  5
15
330
5
100
AcDbSymbolTableRecord
100
AcDbLinetypeTableRecord
  2
ByLayer
 70
     0
  3

 72
    65
 73
     0
 40
0.0
  0
LTYPE
  5
16
330
5
100
AcDbSymbolTableRecord
100
AcDbLinetypeTableRecord
  2
Continuous
 70
     0
  3
Solid line
 72
    65
 73
     0
 40
0.0
  0
ENDTAB
  0
TABLE
  2
LAYER
  5
2
330
0
100
AcDbSymbolTable
 70
     2
  0
LAYER
  5
10
330
2
100
AcDbSymbolTableRecord
100
AcDbLayerTableRecord
  2
0
 70
     0
 62
     7
  6
Continuous
370
    -3
390
F
347
3E
  0
LAYER
  5
40
330
2
100
AcDbSymbolTableRecord
100
AcDbLayerTableRecord
  2
Layer 1
 70
     0
 62
     7
  6
Continuous
370
    -3
390
F
347
3E
  0
ENDTAB
  0
TABLE
  2
STYLE
  5
3
330
0
100
AcDbSymbolTable
 70
     1
  0
STYLE
  5
11
330
3
100
AcDbSymbolTableRecord
100
AcDbTextStyleTableRecord
  2
Standard
 70
     0
 40
0.0
 41
1.0
 50
0.0
 71
     0
 42
0.2
  3
txt
  4

  0
ENDTAB
  0
TABLE
  2
VIEW
  5
6
330
0
100
AcDbSymbolTable
 70
     0
  0
ENDTAB
  0
TABLE
  2
UCS
  5
7
330
0
100
AcDbSymbolTable
 70
     0
  0
ENDTAB
  0
TABLE
  2
APPID
  5
9
330
0
100
AcDbSymbolTable
 70
     1
  0
APPID
  5
12
330
9
100
AcDbSymbolTableRecord
100
AcDbRegAppTableRecord
  2
ACAD
 70
     0
  0
ENDTAB
  0
TABLE
  2
DIMSTYLE
  5
A
330
0
100
AcDbSymbolTable
 70
     1
100
AcDbDimStyleTable
  0
DIMSTYLE
105
27
330
A
100
AcDbSymbolTableRecord
100
AcDbDimStyleTableRecord
  2
Standard
 70
     0
178
     0
340
11
  0
ENDTAB
  0
TABLE
  2
BLOCK_RECORD
  5
1
330
0
100
AcDbSymbolTable
 70
     1
  0
BLOCK_RECORD
  5
1F
330
1
100
AcDbSymbolTableRecord
100
AcDbBlockTableRecord
  2
*Model_Space
340
22
 70
     0
280
     1
281
     0
  0
BLOCK_RECORD
  5
1B
330
1
100
AcDbSymbolTableRecord
100
AcDbBlockTableRecord
  2
*Paper_Space
340
1E
 70
     0
280
     1
281
     0
  0
BLOCK_RECORD
  5
23
330
1
100
AcDbSymbolTableRecord
100
AcDbBlockTableRecord
  2
*Paper_Space0
340
26
 70
     0
280
     1
281
     0
  0
ENDTAB
  0
ENDSEC
  0
SECTION
  2
BLOCKS
  0
BLOCK
  5
20
330
1F
100
AcDbEntity
  8
0
100
AcDbBlockBegin
  2
*Model_Space
 70
     0
 10
0.0
 20
0.0
 30
0.0
  3
*Model_Space
  1

  0
ENDBLK
  5
21
330
1F
100
AcDbEntity
  8
0
100
AcDbBlockEnd
  0
BLOCK
  5
1C
330
1B
100
AcDbEntity
 67
     1
  8
0
100
AcDbBlockBegin
  2
*Paper_Space
 70
     0
 10
0.0
 20
0.0
 30
0.0
  3
*Paper_Space
  1

  0
ENDBLK
  5
1D
330
1B
100
AcDbEntity
 67
     1
  8
0
100
AcDbBlockEnd
  0
BLOCK
  5
24
330
23
100
AcDbEntity
  8
0
100
AcDbBlockBegin
  2
*Paper_Space0
 70
     0
 10
0.0
 20
0.0
 30
0.0
  3
*Paper_Space0
  1

  0
ENDBLK
  5
25
330
23
100
AcDbEntity
  8
0
100
AcDbBlockEnd
  0
ENDSEC
  0
SECTION
  2
ENTITIES
  0
SPLINE
  5
41
330
1F
100
AcDbEntity
  8
Layer 1
 62
     7
420
 16777215
370
     9
100
AcDbSpline
210
0.0
220
0.0
230
1.0
 70
    11
 71
     3
 72
   299
 73
   295
 74
     0
 42
0.0000000001
 43
0.0000000001
 12
1.0
 22
0.0
 32
0.0
 13
1.0
 23
0.0
 33
0.0
 40
0.0
 40
0.0
 40
0.0
 40
0.0
 40
1.0
 40
1.0
 40
1.0
 40
2.0
 40
2.0
 40
2.0
 40
3.0
 40
3.0
 40
3.0
 40
4.0
 40
4.0
 40
4.0
 40
5.0
 40
5.0
 40
5.0
 40
6.0
 40
6.0
 40
6.0
 40
7.0
 40
7.0
 40
7.0
 40
8.0
 40
8.0
 40
8.0
 40
9.0
 40
9.0
 40
9.0
 40
10.0
 40
10.0
 40
10.0
 40
11.0
 40
11.0
 40
11.0
 40
12.0
 40
12.0
 40
12.0
 40
13.0
 40
13.0
 40
13.0
 40
14.0
 40
14.0
 40
14.0
 40
15.0
 40
15.0
 40
15.0
 40
16.0
 40
16.0
 40
16.0
 40
17.0
 40
17.0
 40
17.0
 40
18.0
 40
18.0
 40
18.0
 40
19.0
 40
19.0
 40
19.0
 40
20.0
 40
20.0
 40
20.0
 40
21.0
 40
21.0
 40
21.0
 40
22.0
 40
22.0
 40
22.0
 40
23.0
 40
23.0
 40
23.0
 40
24.0
 40
24.0
 40
24.0
 40
25.0
 40
25.0
 40
25.0
 40
26.0
 40
26.0
 40
26.0
 40
27.0
 40
27.0
 40
27.0
 40
28.0
 40
28.0
 40
28.0
 40
29.0
 40
29.0
 40
29.0
 40
30.0
 40
30.0
 40
30.0
 40
31.0
 40
31.0
 40
31.0
 40
32.0
 40
32.0
 40
32.0
 40
33.0
 40
33.0
 40
33.0
 40
34.0
 40
34.0
 40
34.0
 40
35.0
 40
35.0
 40
35.0
 40
36.0
 40
36.0
 40
36.0
 40
37.0
 40
37.0
 40
37.0
 40
38.0
 40
38.0
 40
38.0
 40
39.0
 40
39.0
 40
39.0
 40
40.0
 40
40.0
 40
40.0
 40
41.0
 40
41.0
 40
41.0
 40
42.0
 40
42.0
 40
42.0
 40
43.0
 40
43.0
 40
43.0
 40
44.0
 40
44.0
 40
44.0
 40
45.0
 40
45.0
 40
45.0
 40
46.0
 40
46.0
 40
46.0
 40
47.0
 40
47.0
 40
47.0
 40
48.0
 40
48.0
 40
48.0
 40
49.0
 40
49.0
 40
49.0
 40
50.0
 40
50.0
 40
50.0
 40
51.0
 40
51.0
 40
51.0
 40
52.0
 40
52.0
 40
52.0
 40
53.0
 40
53.0
 40
53.0
 40
54.0
 40
54.0
 40
54.0
 40
55.0
 40
55.0
 40
55.0
 40
56.0
 40
56.0
 40
56.0
 40
57.0
 40
57.0
 40
57.0
 40
58.0
 40
58.0
 40
58.0
 40
59.0
 40
59.0
 40
59.0
 40
60.0
 40
60.0
 40
60.0
 40
61.0
 40
61.0
 40
61.0
 40
62.0
 40
62.0
 40
62.0
 40
63.0
 40
63.0
 40
63.0
 40
64.0
 40
64.0
 40
64.0
 40
65.0
 40
65.0
 40
65.0
 40
66.0
 40
66.0
 40
66.0
 40
67.0
 40
67.0
 40
67.0
 40
68.0
 40
68.0
 40
68.0
 40
69.0
 40
69.0
 40
69.0
 40
70.0
 40
70.0
 40
70.0
 40
71.0
 40
71.0
 40
71.0
 40
72.0
 40
72.0
 40
72.0
 40
73.0
 40
73.0
 40
73.0
 40
74.0
 40
74.0
 40
74.0
 40
75.0
 40
75.0
 40
75.0
 40
76.0
 40
76.0
 40
76.0
 40
77.0
 40
77.0
 40
77.0
 40
78.0
 40
78.0
 40
78.0
 40
79.0
 40
79.0
 40
79.0
 40
80.0
 40
80.0
 40
80.0
 40
81.0
 40
81.0
 40
81.0
 40
82.0
 40
82.0
 40
82.0
 40
83.0
 40
83.0
 40
83.0
 40
84.0
 40
84.0
 40
84.0
 40
85.0
 40
85.0
 40
85.0
 40
86.0
 40
86.0
 40
86.0
 40
87.0
 40
87.0
 40
87.0
 40
88.0
 40
88.0
 40
88.0
 40
89.0
 40
89.0
 40
89.0
 40
90.0
 40
90.0
 40
90.0
 40
91.0
 40
91.0
 40
91.0
 40
92.0
 40
92.0
 40
92.0
 40
93.0
 40
93.0
 40
93.0
 40
94.0
 40
94.0
 40
94.0
 40
95.0
 40
95.0
 40
95.0
 40
96.0
 40
96.0
 40
96.0
 40
97.0
 40
97.0
 40
97.0
 40
98.0
 40
98.0
 40
98.0
 40
98.0
 10
654.2834091242711
 20
-618.0887689715992
 30
0.0
 10
646.3267025773175
 20
-618.8479566064856
 30
0.0
 10
638.4034501786309
 20
-620.1910891837325
 30
0.0
 10
630.5075695251538
 20
-621.4045689255369
 30
0.0
 10
617.9863389978975
 20
-623.3288963380334
 30
0.0
 10
605.4822304907905
 20
-625.366107459267
 30
0.0
 10
592.9893416105973
 20
-627.4661136380913
 30
0.0
 10
580.5922599256701
 20
-629.550014998889
 30
0.0
 10
568.2033369510459
 20
-631.6904541374217
 30
0.0
 10
555.8436818799336
 20
-633.9869463011955
 30
0.0
 10
547.9663601735793
 20
-635.4505961737929
 30
0.0
 10
539.8599717835972
 20
-636.6606400169776
 30
0.0
 10
532.1869213805298
 20
-639.0283044067612
 30
0.0
 10
525.298470172972
 20
-641.1538659198695
 30
0.0
 10
517.5876217205338
 20
-644.8462161048728
 30
0.0
 10
514.7645167035413
 20
-651.9813347608667
 30
0.0
 10
513.4377559163916
 20
-655.3345914011461
 30
0.0
 10
513.2940421852443
 20
-659.4497613873599
 30
0.0
 10
514.2709914626632
 20
-662.9221055950142
 30
0.0
 10
514.8693490803068
 20
-665.0488317779925
 30
0.0
 10
516.2060469841057
 20
-666.5647789509876
 30
0.0
 10
518.480043741228
 20
-666.7636495367645
 30
0.0
 10
521.0237161967744
 20
-666.9861043972107
 30
0.0
 10
523.6612555784333
 20
-666.1311557072788
 30
0.0
 10
526.1112691132727
 20
-665.5691608800678
 30
0.0
 10
529.2566897539455
 20
-664.8476505274411
 30
0.0
 10
532.5772434943594
 20
-664.0822243816051
 30
0.0
 10
535.8248501981549
 20
-664.2484834061268
 30
0.0
 10
542.5553902273455
 20
-664.5930488420981
 30
0.0
 10
549.0093311034193
 20
-668.8116924630361
 30
0.0
 10
554.1123592422507
 20
-672.8795720938963
 30
0.0
 10
560.3894916839156
 20
-677.8833891423172
 30
0.0
 10
566.0015534655291
 20
-684.131287232039
 30
0.0
 10
569.6967835914628
 20
-691.2950168784266
 30
0.0
 10
571.1443392973679
 20
-694.1013096861233
 30
0.0
 10
572.0353238781901
 20
-697.0327600798202
 30
0.0
 10
572.9485551649715
 20
-700.0370049803162
 30
0.0
 10
573.7703394596494
 20
-702.7404179188908
 30
0.0
 10
574.6089647705636
 20
-705.4385629590492
 30
0.0
 10
575.3250554161385
 20
-708.1725808061647
 30
0.0
 10
577.0009381343253
 20
-714.5710630227769
 30
0.0
 10
578.2128217282425
 20
-721.3753045702632
 30
0.0
 10
577.1650269266084
 20
-727.9821459349203
 30
0.0
 10
576.1296408960321
 20
-734.5107441342236
 30
0.0
 10
572.1833196074252
 20
-741.1553480592927
 30
0.0
 10
565.8091875711739
 20
-743.7049562040137
 30
0.0
 10
559.504718288214
 20
-746.2266997356135
 30
0.0
 10
552.4179367178808
 20
-743.4099801487855
 30
0.0
 10
546.9885030670929
 20
-740.0849072831361
 30
0.0
 10
540.4216846046056
 20
-736.0632815874092
 30
0.0
 10
534.6696670397088
 20
-730.4873670821045
 30
0.0
 10
530.1448614882437
 20
-724.2755643384086
 30
0.0
 10
527.9810846711185
 20
-721.30505994513
 30
0.0
 10
526.1677764237467
 20
-718.1290823024702
 30
0.0
 10
524.782734227351
 20
-714.7221278394778
 30
0.0
 10
523.3486995175954
 20
-711.194660613419
 30
0.0
 10
522.3568073479315
 20
-707.5191634367462
 30
0.0
 10
521.3800583616113
 20
-703.8453896735667
 30
0.0
 10
519.9735635302493
 20
-698.5552446292646
 30
0.0
 10
518.5298648097365
 20
-691.7205885960095
 30
0.0
 10
512.8434596486437
 20
-689.440656902596
 30
0.0
 10
510.2781470398157
 20
-688.4121094539539
 30
0.0
 10
506.7661121126359
 20
-688.0838641752915
 30
0.0
 10
504.1180913359468
 20
-688.9846121939567
 30
0.0
 10
502.0629853205509
 20
-689.6836749384066
 30
0.0
 10
500.4555109454694
 20
-691.2667130320497
 30
0.0
 10
499.2340319982173
 20
-693.0122543972832
 30
0.0
 10
495.9531387184556
 20
-697.7007796867451
 30
0.0
 10
494.6359888796628
 20
-703.7560454218956
 30
0.0
 10
493.8209873079509
 20
-709.3223049016078
 30
0.0
 10
492.9615052735996
 20
-715.1923549572142
 30
0.0
 10
492.6713589298465
 20
-721.2770393032996
 30
0.0
 10
493.3650640785807
 20
-727.1811900682715
 30
0.0
 10
493.9178645811188
 20
-731.8860960587941
 30
0.0
 10
495.6305796161196
 20
-736.0003830908825
 30
0.0
 10
498.8670881387774
 20
-739.4981096731829
 30
0.0
 10
500.2696722313275
 20
-741.013896092432
 30
0.0
 10
501.785985290304
 20
-742.4281413733632
 30
0.0
 10
502.99202825341
 20
-744.1144729278652
 30
0.0
 10
504.531244846376
 20
-746.2666595325989
 30
0.0
 10
505.4622119713309
 20
-748.7477910598989
 30
0.0
 10
505.978825307228
 20
-751.3316309022734
 30
0.0
 10
506.7692501742798
 20
-755.2849381864188
 30
0.0
 10
506.8401286825809
 20
-759.4805867627597
 30
0.0
 10
506.4811224480477
 20
-763.4868007816516
 30
0.0
 10
506.1932037306958
 20
-766.6997366329116
 30
0.0
 10
505.4817271170962
 20
-769.8925687885471
 30
0.0
 10
504.1605312873329
 20
-772.8444605833139
 30
0.0
 10
498.3126195738504
 20
-785.9102016450566
 30
0.0
 10
482.5660953983672
 20
-788.7462271911255
 30
0.0
 10
469.7025849172124
 20
-788.6400456343565
 30
0.0
 10
464.4215063189447
 20
-788.5964530903314
 30
0.0
 10
459.2827761265665
 20
-786.8154981627356
 30
0.0
 10
455.9037024101937
 20
-782.6030972690729
 30
0.0
 10
452.6927246505245
 20
-778.6002471628981
 30
0.0
 10
451.4908705234949
 20
-773.328168909363
 30
0.0
 10
451.2740792454221
 20
-768.2984952071818
 30
0.0
 10
451.0206306809145
 20
-762.4183528366484
 30
0.0
 10
452.0418384803476
 20
-756.4861957951276
 30
0.0
 10
453.8382116951824
 20
-750.8987757893542
 30
0.0
 10
455.5969707354265
 20
-745.4283505093283
 30
0.0
 10
458.1530581187179
 20
-740.0985890913919
 30
0.0
 10
461.7305034484575
 20
-735.5770545247507
 30
0.0
 10
463.6789463811937
 20
-733.1144167317243
 30
0.0
 10
465.9984251694871
 20
-730.9850498156887
 30
0.0
 10
467.9389421281248
 20
-728.5088472597681
 30
0.0
 10
470.0799170629319
 20
-725.7768496948229
 30
0.0
 10
471.9720634136168
 20
-722.8376364873437
 30
0.0
 10
473.5092493238569
 20
-719.7238315614175
 30
0.0
 10
475.9355293843226
 20
-714.8090305906142
 30
0.0
 10
478.0802078927312
 20
-708.5549234862209
 30
0.0
 10
476.3184020868371
 20
-703.0844855189913
 30
0.0
 10
474.4781851226548
 20
-697.3705795282606
 30
0.0
 10
468.479899889686
 20
-695.6817062192354
 30
0.0
 10
463.0401076560624
 20
-695.7171623769252
 30
0.0
 10
455.7804815787531
 20
-695.7644800750857
 30
0.0
 10
448.1579241631573
 20
-697.3801736528982
 30
0.0
 10
442.3708562050961
 20
-701.993549599983
 30
0.0
 10
438.3654037031338
 20
-705.1866446808888
 30
0.0
 10
435.556776520908
 20
-709.6552035783184
 30
0.0
 10
434.2502436211991
 20
-714.5949260344802
 30
0.0
 10
433.7314059672834
 20
-716.5565406334866
 30
0.0
 10
433.4370547472024
 20
-718.5852606046581
 30
0.0
 10
433.413734471833
 20
-720.6152296703538
 30
0.0
 10
433.3818585777243
 20
-723.3899430027124
 30
0.0
 10
432.9693426526977
 20
-726.0224747509897
 30
0.0
 10
432.0623916862929
 20
-728.6543659361678
 30
0.0
 10
429.8897367263297
 20
-734.9592177411413
 30
0.0
 10
425.7645140566208
 20
-740.6588915920668
 30
0.0
 10
420.7671086153263
 20
-745.0327890292382
 30
0.0
 10
415.7275577602938
 20
-749.4435735509783
 30
0.0
 10
409.335057805042
 20
-752.7517235108436
 30
0.0
 10
402.5153667760373
 20
-752.8046531960905
 30
0.0
 10
394.8064936226478
 20
-752.8644840928101
 30
0.0
 10
388.0615996795372
 20
-748.4657457604001
 30
0.0
 10
383.2674718300607
 20
-742.6903341123806
 30
0.0
 10
378.8615200516791
 20
-737.3825521715496
 30
0.0
 10
376.4740528082253
 20
-730.6106440092747
 30
0.0
 10
377.4998862127937
 20
-723.7051702713846
 30
0.0
 10
378.5012429433958
 20
-716.964463081855
 30
0.0
 10
382.4714383808596
 20
-711.0148951479184
 30
0.0
 10
387.5963187496448
 20
-706.6590691200099
 30
0.0
 10
393.5425834649294
 20
-701.605118051528
 30
0.0
 10
400.9230155434399
 20
-698.7182731470655
 30
0.0
 10
408.5168950450422
 20
-697.2325352847294
 30
0.0
 10
414.0060940182638
 20
-696.1585768756316
 30
0.0
 10
419.8248356244252
 20
-696.1105733678111
 30
0.0
 10
424.9798619983671
 20
-693.7336651901459
 30
0.0
 10
428.0575652311413
 20
-692.3145806982848
 30
0.0
 10
430.7609993376994
 20
-690.2075824364157
 30
0.0
 10
433.211389387511
 20
-687.8893160677311
 30
0.0
 10
436.7979062351468
 20
-684.4961822320685
 30
0.0
 10
440.2528964800787
 20
-680.6795585426773
 30
0.0
 10
442.433466917081
 20
-676.2121857127115
 30
0.0
 10
445.7142304042754
 20
-669.4908281195183
 30
0.0
 10
445.7233657744841
 20
-661.5264241583118
 30
0.0
 10
442.0289774048561
 20
-654.966578884516
 30
0.0
 10
438.1818194173061
 20
-648.1354721850574
 30
0.0
 10
431.0674378681907
 20
-644.1168445460139
 30
0.0
 10
423.5833332274372
 20
-642.5416665060316
 30
0.0
 10
420.5243010583791
 20
-641.8978326037018
 30
0.0
 10
417.472752243977
 20
-643.2213499928354
 30
0.0
 10
414.8718681479858
 20
-644.725998107906
 30
0.0
 10
411.6198244128635
 20
-646.6073512538304
 30
0.0
 10
408.6920708142448
 20
-649.0108875410299
 30
0.0
 10
405.7858129044357
 20
-651.3754998393481
 30
0.0
 10
403.291061812438
 20
-653.4052987410462
 30
0.0
 10
400.8000269734684
 20
-655.6506011342727
 30
0.0
 10
397.9341506972075
 20
-657.1522098910831
 30
0.0
 10
395.1945929434894
 20
-658.5876326086825
 30
0.0
 10
392.0398170334037
 20
-659.2169839292644
 30
0.0
 10
388.9603047419363
 20
-659.1710937925412
 30
0.0
 10
381.5115177055867
 20
-659.0600937954076
 30
0.0
 10
374.9816792464797
 20
-654.7536207504751
 30
0.0
 10
372.0349358468018
 20
-647.8952810587524
 30
0.0
 10
370.670239540419
 20
-644.7190456097369
 30
0.0
 10
370.12882260745
 20
-641.1807128336983
 30
0.0
 10
370.95364162838
 20
-637.7893189105796
 30
0.0
 10
371.7576980769718
 20
-634.4832940925221
 30
0.0
 10
373.773704301161
 20
-631.6274665709129
 30
0.0
 10
376.3236408572711
 20
-629.421428240671
 30
0.0
 10
379.5120024414141
 20
-626.6630663322395
 30
0.0
 10
383.4314550020719
 20
-624.8811062357636
 30
0.0
 10
387.4376076959106
 20
-623.667946524924
 30
0.0
 10
392.075134529786
 20
-622.2635914883699
 30
0.0
 10
396.9062315453559
 20
-621.5271771325032
 30
0.0
 10
401.7532024187385
 20
-621.537421337861
 30
0.0
 10
408.358799110829
 20
-621.5513824469319
 30
0.0
 10
414.8799906095979
 20
-623.1266084222955
 30
0.0
 10
421.3781628180163
 20
-624.146829168614
 30
0.0
 10
428.1748075766647
 20
-625.2139104594339
 30
0.0
 10
435.1203575915897
 20
-626.6681423855396
 30
0.0
 10
441.6171681901653
 20
-623.6470974271116
 30
0.0
 10
445.0735293341924
 20
-622.0398745828807
 30
0.0
 10
448.8114417136391
 20
-619.1694793142979
 30
0.0
 10
450.032944475788
 20
-615.3910809812465
 30
0.0
 10
450.394208414848
 20
-614.2736057634809
 30
0.0
 10
450.5073945735371
 20
-612.9154705066231
 30
0.0
 10
449.6986228398407
 20
-611.9579069622926
 30
0.0
 10
448.7375367520198
 20
-610.8200074013694
 30
0.0
 10
447.0038109648635
 20
-610.7659913245978
 30
0.0
 10
445.6417578633645
 20
-610.9006476596495
 30
0.0
 10
442.7388578715344
 20
-611.1876363779984
 30
0.0
 10
439.918840180977
 20
-612.4044997771666
 30
0.0
 10
437.3221987400818
 20
-613.6628187177236
 30
0.0
 10
436.443304826132
 20
-614.0887261384573
 30
0.0
 10
435.5762743285092
 20
-614.5389557670367
 30
0.0
 10
434.7188741670301
 20
-615.0065490117697
 30
0.0
 10
434.3249208353515
 20
-615.2213960865768
 30
0.0
 10
433.5933322068975
 20
-615.8091427337182
 30
0.0
 10
433.0757329132703
 20
-615.781523977432
 30
0.0
 10
432.4145212127949
 20
-615.746242158014
 30
0.0
 10
432.5943930731222
 20
-615.0751989334971
 30
0.0
 10
432.7445105595253
 20
-614.6074516612252
 30
0.0
 10
433.5943844829776
 20
-611.9593510368758
 30
0.0
 10
435.8209338839437
 20
-609.5093852085159
 30
0.0
 10
437.7002712567772
 20
-607.548418874407
 30
0.0
 10
440.4698825406181
 20
-604.6585096092119
 30
0.0
 10
443.6462509209536
 20
-602.497534137681
 30
0.0
 10
447.4317147889659
 20
-601.1630303923516
 30
0.0
 10
450.8124697166073
 20
-599.9712002044854
 30
0.0
 10
454.2216919778407
 20
-599.8523456165184
 30
0.0
 10
457.7649024435992
 20
-599.8122105495721
 30
0.0
 10
462.2102114097867
 20
-599.7618571272503
 30
0.0
 10
466.5291738715491
 20
-599.1260402435532
 30
0.0
 10
470.7949820965422
 20
-597.8538060649599
 30
0.0
 10
474.7362883594656
 20
-596.6783513160528
 30
0.0
 10
478.4533569678622
 20
-594.9764033740995
 30
0.0
 10
482.1907135063233
 20
-593.283903060313
 30
0.0
 10
485.1631638853336
 20
-591.9377983610642
 30
0.0
 10
488.2180689699159
 20
-590.6496222700612
 30
0.0
 10
491.4967127003205
 20
-590.3241968847504
 30
0.0
 10
495.016072583604
 20
-589.9748789532395
 30
0.0
 10
499.1923300967811
 20
-590.5763027391728
 30
0.0
 10
502.1657322608978
 20
-592.5917848254536
 30
0.0
 10
504.4940746958015
 20
-594.1700215419348
 30
0.0
 10
505.4222344953419
 20
-596.6566369998366
 30
0.0
 10
505.4572479083144
 20
-599.3864823582952
 30
0.0
 10
505.4871814046498
 20
-601.7202684447315
 30
0.0
 10
504.85983427431
 20
-604.0855411853929
 30
0.0
 10
505.1258602383005
 20
-606.4126666587213
 30
0.0
 10
505.2773462165791
 20
-607.7378263296725
 30
0.0
 10
505.9523891234893
 20
-608.4718867265087
 30
0.0
 10
507.1080908805063
 20
-609.080658946814
 30
0.0
 10
510.6734390856692
 20
-610.9587256105013
 30
0.0
 10
515.277366575701
 20
-611.2213388201542
 30
0.0
 10
519.2069855602344
 20
-611.5648658760105
 30
0.0
 10
531.3445614895519
 20
-612.6259320355135
 30
0.0
 10
543.6684619529983
 20
-612.2484742720175
 30
0.0
 10
555.8165510862948
 20
-611.5475456148862
 30
0.0
 10
563.3824271063064
 20
-611.1110045868655
 30
0.0
 10
570.7982663333079
 20
-610.1460676004001
 30
0.0
 10
578.286681590396
 20
-609.0311234814151
 30
0.0
 10
590.2959110470007
 20
-607.243078975803
 30
0.0
 10
602.2852970780506
 20
-605.2964027422116
 30
0.0
 10
614.2123570600967
 20
-603.0200922849391
 30
0.0
 10
626.0780216663779
 20
-600.7554992950132
 30
0.0
 10
638.16884935603
 20
-598.4279512316583
 30
0.0
 10
649.5695809298046
 20
-594.3463867877356
 30
0.0
 10
653.3682118324009
 20
-592.986442758942
 30
0.0
 10
657.0306105456191
 20
-591.4389227956394
 30
0.0
 10
659.9175543101258
 20
-588.5437284595158
 30
0.0
 10
664.9440660077776
 20
-583.502851537557
 30
0.0
 10
667.5816551880384
 20
-576.6796120907761
 30
0.0
 10
672.0769876095954
 20
-571.22177685776
 30
0.0
 10
674.6673552040983
 20
-568.0767815163838
 30
0.0
 10
677.8200899187307
 20
-565.4738741935978
 30
0.0
 10
681.4399744870582
 20
-563.5943029970907
 30
0.0
 10
684.2355645257546
 20
-562.1427344692014
 30
0.0
 10
687.2180351477681
 20
-561.5392003975032
 30
0.0
 10
690.2949171233751
 20
-562.4417069659478
 30
0.0
 10
696.682151053577
 20
-564.315201179212
 30
0.0
 10
701.0295663236634
 20
-570.7875382378617
 30
0.0
 10
703.7802322659958
 20
-576.4496626809403
 30
0.0
 10
705.3967146597115
 20
-579.7771203457925
 30
0.0
 10
706.6393745790232
 20
-583.3000325174723
 30
0.0
 10
707.4441408144241
 20
-586.9114093382459
 30
0.0
 10
708.1213562041186
 20
-589.9504035870492
 30
0.0
 10
708.2783765028888
 20
-592.9780847133992
 30
0.0
 10
708.452205035259
 20
-596.0722019426693
 30
0.0
 10
708.7742984762896
 20
-601.8054084061532
 30
0.0
 10
709.2805284783866
 20
-607.5397509776574
 30
0.0
 10
709.131828681878
 20
-613.2875871291678
 30
0.0
 10
709.0118270092482
 20
-617.9261271162884
 30
0.0
 10
708.7256325139433
 20
-623.6263428078327
 30
0.0
 10
705.6981640207333
 20
-627.4253357885797
 30
0.0
 10
702.3145342539967
 20
-631.6712547013944
 30
0.0
 10
696.6991468214753
 20
-630.2209344807289
 30
0.0
 10
692.4267587916212
 20
-628.3159403905291
 30
0.0
 10
685.5971037581626
 20
-625.2706990908308
 30
0.0
 10
678.8765391726137
 20
-621.5799230371016
 30
0.0
 10
671.7363347337418
 20
-619.2939264302074
 30
0.0
 10
666.0384978191894
 20
-617.4697159380823
 30
0.0
 10
660.1841293005073
 20
-617.5257528834361
 30
0.0
 10
654.2834091242711
 20
-618.0887689715992
 30
0.0
  0
ENDSEC
  0
SECTION
  2
OBJECTS
  0
DICTIONARY
  5
C
330
0
100
AcDbDictionary
281
     1
  3
ACAD_GROUP
350
D
  3
ACAD_LAYOUT
350
1A
  3
ACAD_MATERIAL
350
3B
  3
ACAD_MLEADERSTYLE
350
43
  3
ACAD_MLINESTYLE
350
17
  3
ACAD_PLOTSETTINGS
350
19
  3
ACAD_PLOTSTYLENAME
350
E
  3
ACAD_TABLESTYLE
350
42
  3
ACAD_VISUALSTYLE
350
2A
  0
SUN
  5
3F
330
29
100
AcDbSun
 90
        1
290
     0
 63
     7
421
 16777215
 40
1.0
291
     1
 91
  2455826
 92
 54000000
292
     0
 70
     2
 71
   256
280
     1
  0
DICTIONARY
  5
D
102
{ACAD_REACTORS
330
C
102
}
330
C
100
AcDbDictionary
281
     1
  0
DICTIONARY
  5
1A
102
{ACAD_REACTORS
330
C
102
}
330
C
100
AcDbDictionary
281
     1
  3
Layout1
350
1E
  3
Layout2
350
26
  3
Model
350
22
  0
DICTIONARY
  5
3B
102
{ACAD_REACTORS
330
C
102
}
330
C
100
AcDbDictionary
281
     1
  3
ByBlock
350
3D
  3
ByLayer
350
3C
  3
Global
350
3E
  0
DICTIONARY
  5
43
102
{ACAD_REACTORS
330
C
102
}
330
C
100
AcDbDictionary
281
     1
  0
DICTIONARY
  5
17
102
{ACAD_REACTORS
330
C
102
}
330
C
100
AcDbDictionary
281
     1
  3
Standard
350
18
  0
DICTIONARY
  5
19
102
{ACAD_REACTORS
330
C
102
}
330
C
100
AcDbDictionary
281
     1
  0
ACDBDICTIONARYWDFLT
  5
E
102
{ACAD_REACTORS
330
C
102
}
330
C
100
AcDbDictionary
281
     1
  3
Normal
350
F
100
AcDbDictionaryWithDefault
340
F
  0
DICTIONARY
  5
42
102
{ACAD_REACTORS
330
C
102
}
330
C
100
AcDbDictionary
281
     1
  0
DICTIONARY
  5
2A
102
{ACAD_REACTORS
330
C
102
}
330
C
100
AcDbDictionary
281
     1
  3
2dWireframe
350
2F
  3
3D Hidden
350
31
  3
3dWireframe
350
30
  3
Basic
350
32
  3
Brighten
350
36
  3
ColorChange
350
3A
  3
Conceptual
350
34
  3
Dim
350
35
  3
Facepattern
350
39
  3
Flat
350
2B
  3
FlatWithEdges
350
2C
  3
Gouraud
350
2D
  3
GouraudWithEdges
350
2E
  3
Linepattern
350
38
  3
Realistic
350
33
  3
Thicken
350
37
  0
LAYOUT
  5
1E
102
{ACAD_REACTORS
330
1A
102
}
330
1A
100
AcDbPlotSettings
  1

  2
none_device
  4

  6

 40
0.0
 41
0.0
 42
0.0
 43
0.0
 44
0.0
 45
0.0
 46
0.0
 47
0.0
 48
0.0
 49
0.0
140
0.0
141
0.0
142
1.0
143
1.0
 70
   688
 72
     0
 73
     0
 74
     5
  7

 75
    16
 76
     0
 77
     2
 78
   300
147
1.0
148
0.0
149
0.0
100
AcDbLayout
  1
Layout1
 70
     1
 71
     1
 10
0.0
 20
0.0
 11
12.0
 21
9.0
 12
0.0
 22
0.0
 32
0.0
 14
1.000000000000000E+20
 24
1.000000000000000E+20
 34
1.000000000000000E+20
 15
-1.000000000000000E+20
 25
-1.000000000000000E+20
 35
-1.000000000000000E+20
146
0.0
 13
0.0
 23
0.0
 33
0.0
 16
1.0
 26
0.0
 36
0.0
 17
0.0
 27
1.0
 37
0.0
 76
     0
330
1B
  0
LAYOUT
  5
26
102
{ACAD_REACTORS
330
1A
102
}
330
1A
100
AcDbPlotSettings
  1

  2
none_device
  4

  6

 40
0.0
 41
0.0
 42
0.0
 43
0.0
 44
0.0
 45
0.0
 46
0.0
 47
0.0
 48
0.0
 49
0.0
140
0.0
141
0.0
142
1.0
143
1.0
 70
   688
 72
     0
 73
     0
 74
     5
  7

 75
    16
 76
     0
 77
     2
 78
   300
147
1.0
148
0.0
149
0.0
100
AcDbLayout
  1
Layout2
 70
     1
 71
     2
 10
0.0
 20
0.0
 11
0.0
 21
0.0
 12
0.0
 22
0.0
 32
0.0
 14
0.0
 24
0.0
 34
0.0
 15
0.0
 25
0.0
 35
0.0
146
0.0
 13
0.0
 23
0.0
 33
0.0
 16
1.0
 26
0.0
 36
0.0
 17
0.0
 27
1.0
 37
0.0
 76
     0
330
23
  0
LAYOUT
  5
22
102
{ACAD_REACTORS
330
1A
102
}
330
1A
100
AcDbPlotSettings
  1

  2
none_device
  4

  6

 40
0.0
 41
0.0
 42
0.0
 43
0.0
 44
0.0
 45
0.0
 46
0.0
 47
0.0
 48
0.0
 49
0.0
140
0.0
141
0.0
142
1.0
143
1.0
 70
  1712
 72
     0
 73
     0
 74
     0
  7

 75
     0
 76
     0
 77
     2
 78
   300
147
1.0
148
0.0
149
0.0
100
AcDbLayout
  1
Model
 70
     1
 71
     0
 10
0.0
 20
0.0
 11
12.0
 21
9.0
 12
0.0
 22
0.0
 32
0.0
 14
1.000000000000000E+20
 24
1.000000000000000E+20
 34
1.000000000000000E+20
 15
-1.000000000000000E+20
 25
-1.000000000000000E+20
 35
-1.000000000000000E+20
146
0.0
 13
0.0
 23
0.0
 33
0.0
 16
1.0
 26
0.0
 36
0.0
 17
0.0
 27
1.0
 37
0.0
 76
     0
330
1F
331
29
  0
MATERIAL
  5
3D
102
{ACAD_REACTORS
330
3B
102
}
330
3B
100
AcDbMaterial
  1
ByBlock
 72
     1
 94
      127
  0
MATERIAL
  5
3C
102
{ACAD_REACTORS
330
3B
102
}
330
3B
100
AcDbMaterial
  1
ByLayer
 72
     1
 94
      127
  0
MATERIAL
  5
3E
102
{ACAD_REACTORS
330
3B
102
}
330
3B
100
AcDbMaterial
  1
Global
 72
     1
 94
      127
  0
MLINESTYLE
  5
18
102
{ACAD_REACTORS
330
17
102
}
330
17
100
AcDbMlineStyle
  2
Standard
 70
     0
  3

 62
   256
 51
90.0
 52
90.0
 71
     2
 49
0.5
 62
   256
  6
BYLAYER
 49
-0.5
 62
   256
  6
BYLAYER
  0
ACDBPLACEHOLDER
  5
F
102
{ACAD_REACTORS
330
E
102
}
330
E
  0
VISUALSTYLE
  5
2F
102
{ACAD_REACTORS
330
2A
102
}
330
2A
100
AcDbVisualStyle
  2
2dWireframe
 70
     4
177
     2
291
     0
 71
     0
176
     1
 72
     2
176
     1
 73
     0
176
     1
 90
        0
176
     1
 40
-0.6
176
     1
 41
-30.0
176
     1
 62
     5
 63
     7
421
 16777215
176
     1
 74
     1
176
     1
 91
        4
176
     1
 64
     7
176
     1
 65
   257
176
     1
 75
     1
176
     1
175
     1
176
     1
 42
1.0
176
     1
 92
        0
176
     1
 66
   257
176
     1
 43
1.0
176
     1
 76
     1
176
     1
 77
     6
176
     1
 78
     2
176
     1
 67
     7
176
     1
 79
     5
176
     1
170
     0
176
     1
171
     0
176
     1
290
     0
176
     1
 93
        1
176
     1
 44
0.0
176
     1
173
     0
176
     1
  0
VISUALSTYLE
  5
31
102
{ACAD_REACTORS
330
2A
102
}
330
2A
100
AcDbVisualStyle
  2
3D Hidden
 70
     6
177
     2
291
     0
 71
     1
176
     1
 72
     2
176
     1
 73
     2
176
     1
 90
        0
176
     1
 40
-0.6
176
     1
 41
-30.0
176
     1
 62
     5
 63
     7
421
 16777215
176
     1
 74
     2
176
     1
 91
        2
176
     1
 64
     7
176
     1
 65
   257
176
     1
 75
     2
176
     1
175
     1
176
     1
 42
40.0
176
     1
 92
        0
176
     1
 66
   257
176
     1
 43
1.0
176
     1
 76
     1
176
     1
 77
     6
176
     1
 78
     2
176
     1
 67
     7
176
     1
 79
     3
176
     1
170
     0
176
     1
171
     0
176
     1
290
     0
176
     1
 93
        1
176
     1
 44
0.0
176
     1
173
     0
176
     1
  0
VISUALSTYLE
  5
30
102
{ACAD_REACTORS
330
2A
102
}
330
2A
100
AcDbVisualStyle
  2
3dWireframe
 70
     5
177
     2
291
     0
 71
     0
176
     1
 72
     2
176
     1
 73
     0
176
     1
 90
        0
176
     1
 40
-0.6
176
     1
 41
-30.0
176
     1
 62
     5
 63
     7
421
 16777215
176
     1
 74
     1
176
     1
 91
        4
176
     1
 64
     7
176
     1
 65
   257
176
     1
 75
     1
176
     1
175
     1
176
     1
 42
1.0
176
     1
 92
        0
176
     1
 66
   257
176
     1
 43
1.0
176
     1
 76
     1
176
     1
 77
     6
176
     1
 78
     2
176
     1
 67
     7
176
     1
 79
     5
176
     1
170
     0
176
     1
171
     0
176
     1
290
     0
176
     1
 93
        1
176
     1
 44
0.0
176
     1
173
     0
176
     1
  0
VISUALSTYLE
  5
32
102
{ACAD_REACTORS
330
2A
102
}
330
2A
100
AcDbVisualStyle
  2
Basic
 70
     7
177
     2
291
     1
 71
     1
176
     1
 72
     0
176
     1
 73
     1
176
     1
 90
        0
176
     1
 40
-0.6
176
     1
 41
-30.0
176
     1
 62
     5
 63
     7
421
 16777215
176
     1
 74
     0
176
     1
 91
        4
176
     1
 64
     7
176
     1
 65
   257
176
     1
 75
     1
176
     1
175
     1
176
     1
 42
1.0
176
     1
 92
        8
176
     1
 66
     7
176
     1
 43
1.0
176
     1
 76
     1
176
     1
 77
     6
176
     1
 78
     2
176
     1
 67
     7
176
     1
 79
     5
176
     1
170
     0
176
     1
171
     0
176
     1
290
     0
176
     1
 93
        1
176
     1
 44
0.0
176
     1
173
     0
176
     1
  0
VISUALSTYLE
  5
36
102
{ACAD_REACTORS
330
2A
102
}
330
2A
100
AcDbVisualStyle
  2
Brighten
 70
    12
177
     2
291
     1
 71
     2
176
     1
 72
     2
176
     1
 73
     0
176
     1
 90
        0
176
     1
 40
-0.6
176
     1
 41
-30.0
176
     1
 62
     5
 63
     7
421
 16777215
176
     1
 74
     1
176
     1
 91
        4
176
     1
 64
     7
176
     1
 65
   257
176
     1
 75
     1
176
     1
175
     1
176
     1
 42
1.0
176
     1
 92
        8
176
     1
 66
     7
176
     1
 43
1.0
176
     1
 76
     1
176
     1
 77
     6
176
     1
 78
     2
176
     1
 67
     7
176
     1
 79
     5
176
     1
170
     0
176
     1
171
     0
176
     1
290
     0
176
     1
 93
        1
176
     1
 44
50.0
176
     1
173
     0
176
     1
  0
VISUALSTYLE
  5
3A
102
{ACAD_REACTORS
330
2A
102
}
330
2A
100
AcDbVisualStyle
  2
ColorChange
 70
    16
177
     2
291
     1
 71
     2
176
     1
 72
     2
176
     1
 73
     3
176
     1
 90
        0
176
     1
 40
-0.6
176
     1
 41
-30.0
176
     1
 62
     5
 63
     8
421
  8421504
176
     1
 74
     1
176
     1
 91
        4
176
     1
 64
     7
176
     1
 65
   257
176
     1
 75
     1
176
     1
175
     1
176
     1
 42
1.0
176
     1
 92
        8
176
     1
 66
     8
424
  8421504
176
     1
 43
1.0
176
     1
 76
     1
176
     1
 77
     6
176
     1
 78
     2
176
     1
 67
     7
176
     1
 79
     5
176
     1
170
     0
176
     1
171
     0
176
     1
290
     0
176
     1
 93
        1
176
     1
 44
0.0
176
     1
173
     0
176
     1
  0
VISUALSTYLE
  5
34
102
{ACAD_REACTORS
330
2A
102
}
330
2A
100
AcDbVisualStyle
  2
Conceptual
 70
     9
177
     2
291
     0
 71
     3
176
     1
 72
     2
176
     1
 73
     0
176
     1
 90
        0
176
     1
 40
-0.6
176
     1
 41
-30.0
176
     1
 62
     5
 63
     7
421
 16777215
176
     1
 74
     2
176
     1
 91
        2
176
     1
 64
     7
176
     1
 65
   257
176
     1
 75
     1
176
     1
175
     1
176
     1
 42
40.0
176
     1
 92
        8
176
     1
 66
     7
176
     1
 43
1.0
176
     1
 76
     1
176
     1
 77
     6
176
     1
 78
     2
176
     1
 67
     7
176
     1
 79
     3
176
     1
170
     0
176
     1
171
     0
176
     1
290
     0
176
     1
 93
        1
176
     1
 44
0.0
176
     1
173
     0
176
     1
  0
VISUALSTYLE
  5
35
102
{ACAD_REACTORS
330
2A
102
}
330
2A
100
AcDbVisualStyle
  2
Dim
 70
    11
177
     2
291
     1
 71
     2
176
     1
 72
     2
176
     1
 73
     0
176
     1
 90
        0
176
     1
 40
-0.6
176
     1
 41
-30.0
176
     1
 62
     5
 63
     7
421
 16777215
176
     1
 74
     1
176
     1
 91
        4
176
     1
 64
     7
176
     1
 65
   257
176
     1
 75
     1
176
     1
175
     1
176
     1
 42
1.0
176
     1
 92
        8
176
     1
 66
     7
176
     1
 43
1.0
176
     1
 76
     1
176
     1
 77
     6
176
     1
 78
     2
176
     1
 67
     7
176
     1
 79
     5
176
     1
170
     0
176
     1
171
     0
176
     1
290
     0
176
     1
 93
        1
176
     1
 44
-50.0
176
     1
173
     0
176
     1
  0
VISUALSTYLE
  5
39
102
{ACAD_REACTORS
330
2A
102
}
330
2A
100
AcDbVisualStyle
  2
Facepattern
 70
    15
177
     2
291
     1
 71
     2
176
     1
 72
     2
176
     1
 73
     0
176
     1
 90
        0
176
     1
 40
-0.6
176
     1
 41
-30.0
176
     1
 62
     5
 63
     7
421
 16777215
176
     1
 74
     1
176
     1
 91
        4
176
     1
 64
     7
176
     1
 65
   257
176
     1
 75
     1
176
     1
175
     1
176
     1
 42
1.0
176
     1
 92
        8
176
     1
 66
     7
176
     1
 43
1.0
176
     1
 76
     1
176
     1
 77
     6
176
     1
 78
     2
176
     1
 67
     7
176
     1
 79
     5
176
     1
170
     0
176
     1
171
     0
176
     1
290
     0
176
     1
 93
        1
176
     1
 44
0.0
176
     1
173
     0
176
     1
  0
VISUALSTYLE
  5
2B
102
{ACAD_REACTORS
330
2A
102
}
330
2A
100
AcDbVisualStyle
  2
Flat
 70
     0
177
     2
291
     1
 71
     2
176
     1
 72
     1
176
     1
 73
     1
176
     1
 90
        2
176
     1
 40
-0.6
176
     1
 41
30.0
176
     1
 62
     5
 63
     7
421
 16777215
176
     1
 74
     0
176
     1
 91
        4
176
     1
 64
     7
176
     1
 65
   257
176
     1
 75
     1
176
     1
175
     1
176
     1
 42
1.0
176
     1
 92
        8
176
     1
 66
     7
176
     1
 43
1.0
176
     1
 76
     1
176
     1
 77
     6
176
     1
 78
     2
176
     1
 67
     7
176
     1
 79
     5
176
     1
170
     0
176
     1
171
     0
176
     1
290
     0
176
     1
 93
       13
176
     1
 44
0.0
176
     1
173
     0
176
     1
  0
VISUALSTYLE
  5
2C
102
{ACAD_REACTORS
330
2A
102
}
330
2A
100
AcDbVisualStyle
  2
FlatWithEdges
 70
     1
177
     2
291
     1
 71
     2
176
     1
 72
     1
176
     1
 73
     1
176
     1
 90
        2
176
     1
 40
-0.6
176
     1
 41
30.0
176
     1
 62
     5
 63
     7
421
 16777215
176
     1
 74
     1
176
     1
 91
        4
176
     1
 64
     7
176
     1
 65
   257
176
     1
 75
     1
176
     1
175
     1
176
     1
 42
1.0
176
     1
 92
        0
176
     1
 66
   257
176
     1
 43
1.0
176
     1
 76
     1
176
     1
 77
     6
176
     1
 78
     2
176
     1
 67
     7
176
     1
 79
     5
176
     1
170
     0
176
     1
171
     0
176
     1
290
     0
176
     1
 93
       13
176
     1
 44
0.0
176
     1
173
     0
176
     1
  0
VISUALSTYLE
  5
2D
102
{ACAD_REACTORS
330
2A
102
}
330
2A
100
AcDbVisualStyle
  2
Gouraud
 70
     2
177
     2
291
     1
 71
     2
176
     1
 72
     2
176
     1
 73
     1
176
     1
 90
        2
176
     1
 40
-0.6
176
     1
 41
30.0
176
     1
 62
     5
 63
     7
421
 16777215
176
     1
 74
     0
176
     1
 91
        4
176
     1
 64
     7
176
     1
 65
   257
176
     1
 75
     1
176
     1
175
     1
176
     1
 42
1.0
176
     1
 92
        0
176
     1
 66
     7
176
     1
 43
1.0
176
     1
 76
     1
176
     1
 77
     6
176
     1
 78
     2
176
     1
 67
     7
176
     1
 79
     5
176
     1
170
     0
176
     1
171
     0
176
     1
290
     0
176
     1
 93
       13
176
     1
 44
0.0
176
     1
173
     0
176
     1
  0
VISUALSTYLE
  5
2E
102
{ACAD_REACTORS
330
2A
102
}
330
2A
100
AcDbVisualStyle
  2
GouraudWithEdges
 70
     3
177
     2
291
     1
 71
     2
176
     1
 72
     2
176
     1
 73
     1
176
     1
 90
        2
176
     1
 40
-0.6
176
     1
 41
30.0
176
     1
 62
     5
 63
     7
421
 16777215
176
     1
 74
     1
176
     1
 91
        4
176
     1
 64
     7
176
     1
 65
   257
176
     1
 75
     1
176
     1
175
     1
176
     1
 42
1.0
176
     1
 92
        0
176
     1
 66
   257
176
     1
 43
1.0
176
     1
 76
     1
176
     1
 77
     6
176
     1
 78
     2
176
     1
 67
     7
176
     1
 79
     5
176
     1
170
     0
176
     1
171
     0
176
     1
290
     0
176
     1
 93
       13
176
     1
 44
0.0
176
     1
173
     0
176
     1
  0
VISUALSTYLE
  5
38
102
{ACAD_REACTORS
330
2A
102
}
330
2A
100
AcDbVisualStyle
  2
Linepattern
 70
    14
177
     2
291
     1
 71
     2
176
     1
 72
     2
176
     1
 73
     0
176
     1
 90
        0
176
     1
 40
-0.6
176
     1
 41
-30.0
176
     1
 62
     5
 63
     7
421
 16777215
176
     1
 74
     1
176
     1
 91
        4
176
     1
 64
     7
176
     1
 65
   257
176
     1
 75
     7
176
     1
175
     7
176
     1
 42
1.0
176
     1
 92
        8
176
     1
 66
     7
176
     1
 43
1.0
176
     1
 76
     1
176
     1
 77
     6
176
     1
 78
     2
176
     1
 67
     7
176
     1
 79
     5
176
     1
170
     0
176
     1
171
     0
176
     1
290
     0
176
     1
 93
        1
176
     1
 44
0.0
176
     1
173
     0
176
     1
  0
VISUALSTYLE
  5
33
102
{ACAD_REACTORS
330
2A
102
}
330
2A
100
AcDbVisualStyle
  2
Realistic
 70
     8
177
     2
291
     0
 71
     2
176
     1
 72
     2
176
     1
 73
     0
176
     1
 90
        0
176
     1
 40
-0.6
176
     1
 41
-30.0
176
     1
 62
     5
 63
     7
421
 16777215
176
     1
 74
     1
176
     1
 91
        0
176
     1
 64
     7
176
     1
 65
   257
176
     1
 75
     1
176
     1
175
     1
176
     1
 42
1.0
176
     1
 92
        8
176
     1
 66
     8
424
  7895160
176
     1
 43
1.0
176
     1
 76
     1
176
     1
 77
     6
176
     1
 78
     2
176
     1
 67
     7
176
     1
 79
     5
176
     1
170
     0
176
     1
171
     0
176
     1
290
     0
176
     1
 93
       13
176
     1
 44
0.0
176
     1
173
     0
176
     1
  0
VISUALSTYLE
  5
37
102
{ACAD_REACTORS
330
2A
102
}
330
2A
100
AcDbVisualStyle
  2
Thicken
 70
    13
177
     2
291
     1
 71
     2
176
     1
 72
     2
176
     1
 73
     0
176
     1
 90
        0
176
     1
 40
-0.6
176
     1
 41
-30.0
176
     1
 62
     5
 63
     7
421
 16777215
176
     1
 74
     1
176
     1
 91
        4
176
     1
 64
     7
176
     1
 65
   257
176
     1
 75
     1
176
     1
175
     1
176
     1
 42
1.0
176
     1
 92
       12
176
     1
 66
     7
176
     1
 43
1.0
176
     1
 76
     1
176
     1
 77
     6
176
     1
 78
     2
176
     1
 67
     7
176
     1
 79
     5
176
     1
170
     0
176
     1
171
     0
176
     1
290
     0
176
     1
 93
        1
176
     1
 44
0.0
176
     1
173
     0
176
     1
  0
ENDSEC
  0
EOF
