M48
; DRILL file {KiCad 9.0.5} date 2025-11-15T17:03:24+0100
; FORMAT={-:-/ absolute / metric / decimal}
; #@! TF.CreationDate,2025-11-15T17:03:24+01:00
; #@! TF.GenerationSoftware,Kicad,Pcbnew,9.0.5
; #@! TF.FileFunction,Plated,1,2,PTH
FMAT,2
METRIC
; #@! TA.AperFunction,Plated,PTH,ViaDrill
T1C0.200
; #@! TA.AperFunction,Plated,PTH,ComponentDrill
T2C0.500
; #@! TA.AperFunction,Plated,PTH,ComponentDrill
T3C0.700
; #@! TA.AperFunction,Plated,PTH,ComponentDrill
T4C0.750
; #@! TA.AperFunction,Plated,PTH,ComponentDrill
T5C0.800
; #@! TA.AperFunction,Plated,PTH,ComponentDrill
T6C0.950
; #@! TA.AperFunction,Plated,PTH,ComponentDrill
T7C1.000
; #@! TA.AperFunction,Plated,PTH,ComponentDrill
T8C1.010
; #@! TA.AperFunction,Plated,PTH,ComponentDrill
T9C1.100
; #@! TA.AperFunction,Plated,PTH,ComponentDrill
T10C1.200
; #@! TA.AperFunction,Plated,PTH,ComponentDrill
T11C1.300
%
G90
G05
T1
X13.44Y-8.64
X26.16Y-128.75
X47.89Y-23.32
X47.9Y-24.57
X58.56Y-138.91
X63.03Y-36.38
X67.16Y-101.03
X69.66Y-95.46
X72.93Y-113.37
X77.362Y-96.418
X77.42Y-95.72
X79.5Y-128.2
X81.62Y-90.65
X82.55Y-105.27
X84.19Y-27.2
X85.0Y-59.4
X85.0Y-60.1
X85.0Y-60.8
X85.0Y-61.5
X85.01Y-106.7
X85.31Y-26.22
X86.2Y-26.22
X86.33Y-23.48
X86.87Y-100.23
X87.41Y-23.53
X87.5Y-109.75
X87.5Y-110.5
X87.5Y-111.25
X87.5Y-112.0
X87.55Y-97.75
X89.13Y-79.0
X89.16Y-104.87
X89.64Y-106.92
X94.56Y-30.53
X94.71Y-81.46
X94.847Y-111.63
X95.33Y-27.52
X95.6Y-31.26
X96.94Y-10.35
X96.96Y-53.81
X97.422Y-32.2
X97.5Y-104.0
X97.5Y-113.0
X97.98Y-27.31
X98.71Y-27.33
X106.0Y-116.5
X106.0Y-118.5
X106.052Y-18.155
X106.38Y-30.47
X106.63Y-21.63
X107.21Y-20.84
X107.42Y-28.13
X108.1Y-7.73
X108.26Y-29.75
X108.28Y-27.6
X109.33Y-51.65
X109.431Y-9.598
X109.71Y-86.86
X110.0Y-59.4
X110.0Y-60.1
X110.0Y-60.8
X110.0Y-61.5
X110.62Y-19.68
X110.96Y-32.45
X111.2Y-19.21
X111.75Y-33.25
X115.63Y-98.74
X116.967Y-45.5
X117.0Y-46.25
X117.0Y-47.0
X117.0Y-47.75
X117.0Y-48.5
X117.48Y-97.61
X121.22Y-97.4
X121.96Y-100.02
X123.749Y-45.5
X125.91Y-86.52
X125.91Y-95.65
X126.13Y-98.75
X126.548Y-87.89
X126.56Y-69.46
X128.04Y-69.4
X131.59Y-89.51
X136.671Y-98.581
X141.27Y-78.53
X151.89Y-80.83
X153.35Y-115.54
X154.52Y-98.52
X155.24Y-94.6
X156.47Y-84.47
X158.07Y-77.12
X159.61Y-150.9
X159.702Y-91.31
X161.93Y-77.4
X162.37Y-107.52
X162.49Y-75.33
X162.5Y-108.75
X162.5Y-109.5
X162.5Y-110.25
X162.5Y-111.0
X162.5Y-111.75
X162.84Y-80.73
X162.84Y-98.15
X163.258Y-74.702
X163.26Y-77.13
X163.49Y-107.74
X164.05Y-79.52
X166.07Y-110.32
X167.62Y-98.05
X168.64Y-98.96
X170.46Y-125.74
X170.53Y-90.67
X174.27Y-68.69
X174.27Y-76.74
X176.44Y-133.45
X178.1Y-92.21
X179.3Y-65.68
X191.82Y-84.36
X192.22Y-126.68
X192.84Y-134.14
X193.87Y-127.46
X194.587Y-97.74
X198.04Y-119.84
X215.876Y-108.59
X219.383Y-113.23
T3
X10.23Y-58.418
X10.27Y-37.233
X10.27Y-44.288
X10.274Y-51.363
X11.732Y-117.96
X11.732Y-120.46
X12.73Y-58.418
X12.77Y-37.233
X12.77Y-44.288
X12.774Y-51.363
X24.252Y-118.006
X24.252Y-120.506
X36.792Y-118.004
X36.792Y-120.504
X49.312Y-118.032
X49.312Y-120.532
X127.57Y-37.224
X127.57Y-39.724
X130.118Y-37.232
X130.118Y-39.732
X132.65Y-37.235
X132.65Y-39.735
X135.19Y-37.24
X135.19Y-39.74
X147.879Y-44.275
X147.889Y-37.205
X147.889Y-51.35
X147.989Y-58.42
X150.379Y-44.275
X150.389Y-37.205
X150.389Y-51.35
X150.489Y-58.42
X206.65Y-117.83
X206.65Y-120.33
X219.039Y-117.833
X219.039Y-120.333
X231.552Y-118.1
X231.552Y-120.6
X244.07Y-118.1
X244.07Y-120.6
T4
X69.28Y-71.1
X70.55Y-71.1
X71.82Y-71.1
X85.14Y-71.11
X86.41Y-71.11
X87.68Y-71.11
X101.0Y-71.12
X102.27Y-71.12
X103.54Y-71.12
X116.865Y-71.145
X118.135Y-71.145
X119.405Y-71.145
X123.7Y-5.04
X123.7Y-7.04
X125.7Y-5.04
X125.7Y-7.04
X127.7Y-5.04
X127.7Y-7.04
X129.7Y-5.04
X129.7Y-7.04
X131.7Y-5.04
X131.7Y-7.04
X132.73Y-71.07
X133.7Y-5.04
X133.7Y-7.04
X134.0Y-71.07
X135.27Y-71.07
X135.7Y-5.04
X135.7Y-7.04
X137.7Y-5.04
X137.7Y-7.04
X139.7Y-5.04
X139.7Y-7.04
X141.7Y-5.04
X141.7Y-7.04
X143.7Y-5.04
X143.7Y-7.04
X145.7Y-5.04
X145.7Y-7.04
X147.7Y-5.04
X147.7Y-7.04
X148.61Y-71.07
X149.7Y-5.04
X149.7Y-7.04
X149.88Y-71.07
X151.15Y-71.07
X151.7Y-5.04
X151.7Y-7.04
X153.7Y-5.04
X153.7Y-7.04
X155.7Y-5.04
X155.7Y-7.04
X157.7Y-5.04
X157.7Y-7.04
X159.7Y-5.04
X159.7Y-7.04
X161.7Y-5.04
X161.7Y-7.04
X164.52Y-71.08
X165.79Y-71.08
X167.06Y-71.08
X180.46Y-71.09
X181.73Y-71.09
X183.0Y-71.09
T5
X1.254Y-100.72
X1.255Y-97.57
X1.255Y-103.87
X1.255Y-107.03
X1.255Y-110.184
X1.53Y-79.94
X1.53Y-82.94
X1.53Y-85.94
X1.53Y-88.95
X2.64Y-142.71
X2.65Y-145.46
X2.65Y-153.08
X2.97Y-123.25
X2.97Y-125.75
X5.14Y-142.71
X5.55Y-145.46
X5.55Y-153.08
X5.929Y-113.09
X5.929Y-120.71
X8.2Y-145.46
X8.2Y-153.08
X8.83Y-113.09
X8.83Y-120.71
X8.874Y-100.72
X8.875Y-97.57
X8.875Y-103.87
X8.875Y-107.03
X8.875Y-110.184
X9.15Y-79.94
X9.15Y-82.94
X9.15Y-85.94
X9.15Y-88.95
X9.64Y-28.57
X9.643Y-5.706
X9.98Y-55.518
X10.02Y-34.333
X10.02Y-41.388
X10.02Y-48.463
X11.015Y-93.32
X11.125Y-97.57
X11.575Y-100.75
X11.575Y-103.25
X12.18Y-28.57
X12.183Y-5.706
X12.97Y-138.47
X12.97Y-141.62
X13.515Y-93.32
X14.28Y-100.74
X14.28Y-103.28
X14.28Y-105.82
X14.28Y-108.36
X14.56Y-110.98
X14.56Y-115.98
X14.72Y-28.57
X14.723Y-5.706
X15.39Y-123.31
X15.39Y-125.81
X16.39Y-79.92
X16.39Y-83.07
X16.4Y-86.22
X16.4Y-89.37
X16.4Y-92.52
X17.26Y-5.71
X17.26Y-28.57
X17.6Y-55.518
X17.6Y-60.61
X17.6Y-63.61
X17.6Y-66.61
X17.6Y-69.61
X17.64Y-34.333
X17.64Y-41.388
X17.64Y-48.463
X18.453Y-113.134
X18.453Y-120.754
X18.745Y-97.57
X19.8Y-5.71
X19.8Y-28.57
X20.59Y-138.47
X20.59Y-141.62
X21.352Y-113.136
X21.352Y-120.756
X21.9Y-97.57
X21.9Y-100.74
X21.9Y-103.28
X21.9Y-105.82
X21.9Y-108.36
X22.34Y-5.71
X22.34Y-28.57
X24.01Y-79.92
X24.01Y-83.07
X24.02Y-86.22
X24.02Y-89.37
X24.02Y-92.52
X24.155Y-103.87
X24.155Y-107.02
X24.155Y-110.22
X24.164Y-100.72
X24.88Y-5.71
X24.88Y-28.57
X25.22Y-60.61
X25.22Y-63.61
X25.22Y-66.61
X25.22Y-69.61
X26.26Y-79.92
X26.655Y-110.22
X26.71Y-83.068
X26.71Y-85.568
X26.9Y-97.57
X27.3Y-145.46
X27.3Y-153.08
X27.42Y-5.71
X27.42Y-28.57
X28.04Y-123.28
X28.04Y-125.78
X28.325Y-68.32
X29.07Y-40.054
X29.07Y-47.674
X29.07Y-50.129
X29.07Y-57.749
X29.285Y-97.52
X29.4Y-93.84
X29.405Y-83.09
X29.405Y-85.63
X29.405Y-88.17
X29.405Y-90.71
X29.96Y-5.71
X29.96Y-28.57
X29.96Y-145.46
X29.96Y-153.08
X30.825Y-68.32
X30.982Y-113.134
X30.982Y-120.754
X31.775Y-103.87
X31.775Y-107.02
X31.784Y-100.72
X31.785Y-97.52
X32.5Y-5.71
X32.5Y-28.57
X33.67Y-60.61
X33.67Y-63.61
X33.67Y-66.61
X33.67Y-69.62
X33.88Y-79.92
X33.883Y-113.134
X33.883Y-120.754
X33.89Y-142.86
X33.89Y-145.46
X33.89Y-153.08
X34.31Y-109.25
X34.4Y-93.84
X34.555Y-98.25
X35.04Y-5.71
X35.04Y-28.57
X36.39Y-142.86
X36.79Y-145.46
X36.79Y-153.08
X36.81Y-109.25
X37.02Y-79.92
X37.025Y-83.09
X37.025Y-85.63
X37.025Y-88.17
X37.025Y-90.71
X37.055Y-98.25
X37.58Y-5.71
X37.58Y-28.57
X39.27Y-83.07
X39.27Y-86.22
X39.27Y-89.38
X39.27Y-92.58
X39.44Y-145.46
X39.44Y-153.08
X40.12Y-5.71
X40.12Y-28.57
X40.56Y-123.31
X40.56Y-125.81
X40.9Y-40.059
X40.9Y-47.679
X40.9Y-50.089
X40.9Y-57.709
X41.29Y-60.61
X41.29Y-63.61
X41.29Y-66.61
X41.29Y-69.62
X41.77Y-92.58
X42.02Y-79.92
X42.66Y-5.71
X42.66Y-28.57
X43.508Y-113.162
X43.508Y-120.782
X44.239Y-138.47
X44.24Y-141.62
X44.39Y-79.88
X45.2Y-5.71
X45.2Y-28.57
X46.408Y-113.162
X46.408Y-120.782
X46.89Y-79.88
X46.89Y-83.07
X46.89Y-86.22
X46.89Y-89.38
X47.74Y-5.71
X47.74Y-28.57
X49.7Y-60.59
X49.7Y-63.6
X49.7Y-66.61
X49.7Y-69.62
X50.28Y-5.71
X50.28Y-28.57
X51.859Y-138.47
X51.86Y-141.62
X52.82Y-5.71
X52.82Y-28.57
X53.71Y-79.915
X53.71Y-83.065
X53.71Y-86.215
X53.71Y-89.365
X53.72Y-92.445
X55.36Y-5.71
X55.36Y-28.57
X57.32Y-60.59
X57.32Y-63.6
X57.32Y-66.61
X57.32Y-69.62
X57.9Y-5.71
X57.9Y-28.57
X58.48Y-124.047
X58.48Y-129.047
X58.56Y-145.46
X58.56Y-153.08
X58.903Y-106.526
X58.903Y-111.526
X60.44Y-5.71
X60.44Y-28.57
X60.75Y-52.45
X60.75Y-60.07
X61.21Y-145.46
X61.21Y-153.08
X61.33Y-79.915
X61.33Y-83.065
X61.33Y-86.215
X61.33Y-89.365
X61.34Y-92.445
X61.67Y-121.51
X61.67Y-124.05
X61.67Y-126.59
X61.67Y-129.13
X62.07Y-103.99
X62.07Y-106.53
X62.07Y-109.07
X62.07Y-111.61
X62.98Y-5.71
X62.98Y-28.57
X63.29Y-52.45
X63.29Y-60.07
X63.58Y-79.915
X63.92Y-42.25
X63.92Y-49.87
X64.05Y-83.095
X64.05Y-85.595
X65.13Y-142.71
X65.13Y-145.46
X65.13Y-153.08
X65.71Y-74.76
X65.83Y-52.45
X65.83Y-60.07
X66.17Y-64.44
X66.17Y-72.06
X66.46Y-42.25
X66.46Y-49.87
X66.75Y-93.86
X66.75Y-98.35
X66.755Y-83.095
X66.755Y-85.635
X66.755Y-88.175
X66.755Y-90.715
X67.63Y-142.71
X68.03Y-145.46
X68.03Y-153.08
X68.37Y-52.45
X68.37Y-60.07
X69.0Y-42.25
X69.0Y-49.87
X69.25Y-98.35
X69.29Y-121.51
X69.29Y-124.05
X69.29Y-126.59
X69.29Y-129.13
X69.69Y-103.99
X69.69Y-106.53
X69.69Y-109.07
X69.69Y-111.61
X70.68Y-145.46
X70.68Y-153.08
X70.91Y-52.45
X70.91Y-60.07
X71.2Y-79.915
X71.54Y-42.25
X71.54Y-49.87
X71.75Y-93.86
X72.46Y-129.13
X72.46Y-134.13
X72.82Y-119.05
X72.82Y-124.05
X72.86Y-101.53
X72.86Y-106.53
X72.86Y-111.61
X72.86Y-116.61
X73.33Y-74.76
X73.45Y-52.45
X73.45Y-60.07
X74.08Y-42.25
X74.08Y-49.87
X74.375Y-83.095
X74.375Y-85.635
X74.375Y-88.175
X74.375Y-90.715
X74.38Y-79.92
X75.477Y-138.47
X75.48Y-141.62
X75.99Y-52.45
X75.99Y-60.07
X76.25Y-75.3
X76.6Y-39.54
X76.617Y-89.385
X76.62Y-42.25
X76.62Y-49.87
X76.62Y-83.075
X76.62Y-86.225
X76.62Y-92.585
X76.92Y-129.13
X76.92Y-131.63
X77.27Y-121.545
X77.27Y-124.045
X77.31Y-110.32
X77.31Y-112.82
X77.331Y-104.065
X77.331Y-106.565
X77.52Y-115.95
X77.52Y-118.45
X78.53Y-52.45
X78.53Y-60.07
X78.75Y-75.3
X79.12Y-92.585
X79.13Y-2.74
X79.137Y-15.05
X79.14Y-5.82
X79.14Y-27.3
X79.14Y-30.36
X79.143Y-11.97
X79.149Y-18.12
X79.15Y-8.91
X79.15Y-21.179
X79.15Y-24.24
X79.16Y-42.25
X79.16Y-49.87
X79.38Y-79.92
X81.07Y-52.45
X81.07Y-60.07
X81.336Y-119.36
X81.336Y-122.51
X81.58Y-74.78
X81.7Y-42.25
X81.7Y-49.87
X81.74Y-79.875
X82.03Y-64.45
X82.03Y-72.07
X82.23Y-110.2
X82.23Y-116.26
X83.0Y-107.23
X83.0Y-113.25
X83.097Y-138.47
X83.1Y-141.62
X84.22Y-39.54
X84.237Y-89.385
X84.24Y-42.25
X84.24Y-49.87
X84.24Y-52.45
X84.24Y-57.45
X84.24Y-79.875
X84.24Y-83.075
X84.24Y-86.225
X84.708Y-98.61
X84.74Y-125.575
X84.74Y-128.075
X86.336Y-119.36
X86.336Y-122.51
X86.78Y-42.25
X86.78Y-49.87
X86.958Y-102.95
X88.0Y-107.23
X88.0Y-113.25
X88.55Y-52.62
X88.55Y-55.12
X88.602Y-119.38
X88.602Y-121.92
X88.602Y-124.46
X88.602Y-127.0
X88.602Y-129.54
X88.602Y-132.08
X88.602Y-134.62
X88.602Y-137.16
X88.958Y-102.95
X89.2Y-74.78
X89.29Y-2.74
X89.297Y-15.05
X89.3Y-5.82
X89.3Y-27.3
X89.3Y-30.36
X89.303Y-11.97
X89.309Y-18.12
X89.31Y-8.91
X89.31Y-21.179
X89.31Y-24.24
X89.31Y-39.55
X89.32Y-42.25
X89.32Y-49.87
X89.708Y-98.61
X89.8Y-145.454
X89.8Y-153.074
X89.85Y-110.2
X89.85Y-116.26
X91.0Y-79.827
X91.0Y-82.97
X91.0Y-86.12
X91.0Y-89.27
X91.0Y-92.42
X91.46Y-27.3
X91.46Y-30.358
X91.47Y-11.97
X91.47Y-15.048
X91.47Y-18.118
X91.473Y-21.177
X91.476Y-5.824
X91.477Y-8.91
X91.48Y-24.24
X91.484Y-2.74
X91.86Y-42.25
X91.86Y-49.87
X91.971Y-98.61
X91.971Y-101.15
X91.971Y-103.69
X91.971Y-106.23
X91.971Y-108.77
X91.971Y-111.31
X91.971Y-113.85
X92.45Y-145.46
X92.45Y-153.08
X92.51Y-52.58
X94.4Y-42.25
X94.4Y-49.87
X96.222Y-119.38
X96.222Y-121.92
X96.222Y-124.46
X96.222Y-127.0
X96.222Y-129.54
X96.222Y-132.08
X96.222Y-134.62
X96.222Y-137.16
X96.39Y-142.71
X96.39Y-145.46
X96.39Y-153.08
X96.93Y-39.55
X96.94Y-42.25
X96.94Y-49.87
X97.429Y-74.78
X97.88Y-64.46
X97.88Y-72.08
X98.62Y-79.827
X98.62Y-82.97
X98.62Y-86.12
X98.62Y-89.27
X98.62Y-92.42
X98.89Y-142.71
X99.29Y-145.46
X99.29Y-153.08
X99.591Y-98.61
X99.591Y-101.15
X99.591Y-103.69
X99.591Y-106.23
X99.591Y-108.77
X99.591Y-111.31
X99.591Y-113.85
X100.13Y-52.58
X100.328Y-118.938
X100.328Y-121.438
X100.328Y-124.01
X100.328Y-126.51
X100.328Y-134.178
X100.328Y-136.678
X100.338Y-129.098
X100.338Y-131.598
X100.87Y-79.83
X101.32Y-83.0
X101.32Y-85.5
X101.62Y-27.3
X101.62Y-30.358
X101.63Y-11.97
X101.63Y-15.048
X101.63Y-18.118
X101.633Y-21.177
X101.636Y-5.824
X101.637Y-8.91
X101.64Y-24.24
X101.644Y-2.74
X101.7Y-116.34
X101.74Y-110.26
X101.94Y-145.46
X101.94Y-153.08
X102.17Y-42.25
X102.17Y-49.87
X103.0Y-107.21
X103.0Y-113.31
X103.078Y-129.548
X103.086Y-124.458
X103.086Y-134.62
X103.088Y-119.388
X103.79Y-27.31
X103.79Y-30.369
X103.797Y-18.11
X103.799Y-11.97
X103.8Y-21.18
X103.8Y-8.91
X103.8Y-15.048
X103.82Y-2.746
X103.82Y-5.825
X103.82Y-24.25
X104.03Y-83.0
X104.03Y-85.54
X104.03Y-88.08
X104.03Y-90.62
X104.04Y-93.77
X104.22Y-98.58
X104.54Y-52.89
X104.55Y-39.54
X104.71Y-42.25
X104.71Y-49.87
X105.049Y-74.78
X106.45Y-102.87
X106.72Y-141.61
X106.727Y-138.473
X107.25Y-42.25
X107.25Y-49.87
X108.0Y-107.21
X108.0Y-113.31
X108.1Y-75.39
X108.45Y-102.87
X108.49Y-79.83
X109.04Y-93.77
X109.22Y-98.58
X109.32Y-116.34
X109.36Y-110.26
X109.79Y-42.25
X109.79Y-49.87
X110.6Y-75.39
X110.698Y-129.548
X110.706Y-124.458
X110.706Y-134.62
X110.708Y-119.388
X111.48Y-98.61
X111.48Y-101.15
X111.48Y-103.69
X111.48Y-106.23
X111.48Y-108.77
X111.48Y-111.31
X111.48Y-113.85
X111.64Y-79.83
X111.65Y-83.0
X111.65Y-85.54
X111.65Y-88.08
X111.65Y-90.62
X112.16Y-52.89
X112.17Y-39.54
X112.33Y-42.25
X112.33Y-49.87
X113.305Y-74.805
X113.409Y-127.0
X113.409Y-132.0
X113.755Y-64.485
X113.755Y-72.105
X113.89Y-86.13
X113.89Y-89.28
X113.89Y-92.48
X113.9Y-82.98
X113.95Y-27.31
X113.95Y-30.369
X113.957Y-18.11
X113.959Y-11.97
X113.96Y-21.18
X113.96Y-8.91
X113.96Y-15.048
X113.98Y-2.746
X113.98Y-5.825
X113.98Y-24.25
X114.34Y-141.61
X114.347Y-138.473
X114.87Y-34.99
X114.87Y-39.99
X114.87Y-42.25
X114.87Y-49.87
X114.88Y-52.44
X114.88Y-60.06
X116.115Y-119.378
X116.115Y-121.918
X116.115Y-124.458
X116.115Y-126.998
X116.115Y-129.538
X116.115Y-132.078
X116.115Y-134.618
X116.39Y-92.48
X116.64Y-79.83
X117.41Y-42.25
X117.41Y-49.87
X117.42Y-52.44
X117.42Y-60.06
X119.02Y-79.77
X119.1Y-98.61
X119.1Y-101.15
X119.1Y-103.69
X119.1Y-106.23
X119.1Y-108.77
X119.1Y-111.31
X119.1Y-113.85
X119.11Y-93.74
X119.18Y-36.955
X119.18Y-39.455
X119.95Y-42.25
X119.95Y-49.87
X119.96Y-52.44
X119.96Y-60.06
X120.925Y-74.805
X121.055Y-145.46
X121.055Y-153.08
X121.22Y-110.24
X121.22Y-116.32
X121.51Y-86.13
X121.51Y-89.28
X121.52Y-79.77
X121.52Y-82.98
X121.61Y-93.74
X122.49Y-42.25
X122.49Y-49.87
X122.49Y-107.25
X122.49Y-113.3
X122.5Y-52.44
X122.5Y-60.06
X123.7Y-98.6
X123.715Y-145.46
X123.715Y-153.08
X123.735Y-119.378
X123.735Y-121.918
X123.735Y-124.458
X123.735Y-126.998
X123.735Y-129.538
X123.735Y-132.078
X123.735Y-134.618
X125.03Y-42.25
X125.03Y-49.87
X125.04Y-52.44
X125.04Y-60.06
X125.945Y-102.91
X126.67Y-27.07
X126.67Y-34.69
X126.721Y-127.002
X126.721Y-132.002
X127.49Y-107.25
X127.49Y-113.3
X127.57Y-42.25
X127.57Y-49.87
X127.58Y-52.44
X127.58Y-60.06
X127.63Y-142.71
X127.64Y-145.46
X127.64Y-153.08
X127.703Y-11.69
X127.945Y-102.91
X128.699Y-79.77
X128.7Y-82.92
X128.7Y-86.07
X128.7Y-89.22
X128.7Y-92.37
X128.7Y-98.6
X128.84Y-110.24
X128.84Y-116.32
X129.165Y-74.73
X129.43Y-119.38
X129.43Y-121.92
X129.43Y-124.46
X129.43Y-127.0
X129.43Y-129.54
X129.43Y-132.08
X129.43Y-134.62
X129.62Y-64.405
X129.62Y-72.025
X129.82Y-27.07
X129.82Y-34.69
X130.11Y-42.25
X130.11Y-49.87
X130.12Y-52.44
X130.12Y-60.06
X130.13Y-142.71
X130.54Y-145.46
X130.54Y-153.08
X130.96Y-98.61
X130.96Y-101.15
X130.96Y-103.69
X130.96Y-106.23
X130.96Y-108.77
X130.96Y-111.31
X130.96Y-113.85
X132.65Y-42.25
X132.65Y-49.87
X132.66Y-52.44
X132.66Y-60.06
X132.975Y-27.07
X132.975Y-34.69
X133.19Y-145.46
X133.19Y-153.08
X135.19Y-42.25
X135.19Y-49.87
X135.2Y-52.44
X135.2Y-60.06
X136.13Y-27.08
X136.13Y-34.7
X136.319Y-79.77
X136.32Y-82.92
X136.32Y-86.07
X136.32Y-89.22
X136.32Y-92.37
X136.785Y-74.73
X137.05Y-119.38
X137.05Y-121.92
X137.05Y-124.46
X137.05Y-127.0
X137.05Y-129.54
X137.05Y-132.08
X137.05Y-134.62
X137.863Y-11.69
X137.98Y-138.46
X137.98Y-141.61
X138.57Y-79.77
X138.58Y-98.61
X138.58Y-101.15
X138.58Y-103.69
X138.58Y-106.23
X138.58Y-108.77
X138.58Y-111.31
X138.58Y-113.85
X139.02Y-82.94
X139.02Y-85.44
X139.29Y-124.461
X139.3Y-119.352
X139.3Y-129.537
X139.3Y-134.62
X140.64Y-11.23
X140.64Y-16.23
X140.67Y-110.25
X140.68Y-116.32
X141.73Y-82.94
X141.73Y-85.48
X141.73Y-88.02
X141.73Y-90.56
X141.73Y-93.73
X141.94Y-107.26
X141.95Y-113.29
X143.16Y-98.61
X143.815Y-15.91
X145.04Y-74.73
X145.4Y-102.92
X145.49Y-64.41
X145.49Y-72.03
X145.6Y-138.46
X145.6Y-141.61
X146.19Y-79.77
X146.315Y-15.91
X146.73Y-93.73
X146.91Y-124.461
X146.92Y-119.352
X146.92Y-129.537
X146.92Y-134.62
X146.94Y-107.26
X146.95Y-113.29
X147.4Y-102.92
X147.47Y-11.79
X147.629Y-41.375
X147.639Y-34.305
X147.639Y-48.45
X147.739Y-55.52
X148.16Y-98.61
X148.29Y-110.25
X148.3Y-116.32
X149.35Y-82.94
X149.35Y-85.48
X149.35Y-88.02
X149.35Y-90.56
X149.354Y-79.77
X149.67Y-119.38
X149.67Y-121.88
X149.67Y-124.453
X149.67Y-126.953
X149.67Y-129.552
X149.67Y-132.052
X149.67Y-134.62
X149.67Y-137.12
X150.42Y-98.61
X150.42Y-101.15
X150.42Y-103.69
X150.42Y-106.23
X150.42Y-108.77
X150.42Y-111.31
X150.42Y-113.85
X151.6Y-82.92
X151.6Y-86.07
X151.6Y-89.22
X151.6Y-92.42
X152.3Y-145.45
X152.3Y-153.07
X152.66Y-74.73
X153.8Y-119.383
X153.8Y-121.923
X153.8Y-124.463
X153.8Y-127.003
X153.8Y-129.543
X153.8Y-132.083
X153.8Y-134.623
X153.8Y-137.163
X154.1Y-92.42
X154.354Y-79.77
X154.95Y-145.45
X154.95Y-153.07
X155.249Y-41.375
X155.259Y-34.305
X155.259Y-48.45
X155.359Y-55.52
X155.57Y-74.02
X156.72Y-79.72
X156.74Y-93.69
X157.63Y-11.79
X158.04Y-98.61
X158.04Y-101.15
X158.04Y-103.69
X158.04Y-106.23
X158.04Y-108.77
X158.04Y-111.31
X158.04Y-113.85
X158.07Y-74.02
X158.89Y-142.71
X158.89Y-145.46
X158.89Y-153.08
X159.22Y-79.72
X159.22Y-82.92
X159.22Y-86.07
X159.22Y-89.22
X159.24Y-93.69
X160.16Y-25.178
X160.161Y-18.968
X160.169Y-14.498
X160.242Y-31.218
X160.96Y-74.74
X161.39Y-142.71
X161.41Y-64.42
X161.41Y-72.04
X161.42Y-119.383
X161.42Y-121.923
X161.42Y-124.463
X161.42Y-127.003
X161.42Y-129.543
X161.42Y-132.083
X161.42Y-134.623
X161.42Y-137.163
X161.79Y-145.46
X161.79Y-153.08
X162.669Y-14.498
X162.727Y-37.186
X163.67Y-122.51
X163.67Y-113.81
X163.67Y-116.31
X163.67Y-119.36
X164.443Y-145.46
X164.443Y-153.08
X165.161Y-18.968
X165.227Y-37.186
X165.24Y-25.178
X165.242Y-31.218
X165.32Y-125.735
X165.32Y-128.235
X166.04Y-79.77
X166.04Y-82.92
X166.04Y-86.07
X166.04Y-89.22
X166.04Y-92.37
X168.025Y-43.655
X168.025Y-51.275
X168.03Y-53.68
X168.03Y-61.3
X168.58Y-74.74
X168.67Y-122.51
X168.67Y-119.36
X169.24Y-141.62
X169.24Y-138.47
X169.242Y-25.176
X169.312Y-31.22
X170.802Y-38.705
X171.342Y-18.958
X172.45Y-95.45
X172.45Y-97.95
X173.58Y-124.02
X173.58Y-129.02
X173.582Y-106.667
X173.582Y-111.667
X173.66Y-79.77
X173.66Y-82.92
X173.66Y-86.07
X173.66Y-89.22
X173.66Y-92.37
X174.302Y-38.705
X174.312Y-31.22
X174.322Y-25.176
X175.91Y-79.77
X176.342Y-18.958
X176.36Y-82.94
X176.36Y-85.44
X176.76Y-104.12
X176.76Y-106.66
X176.76Y-109.2
X176.76Y-111.74
X176.764Y-121.486
X176.764Y-124.026
X176.764Y-126.566
X176.764Y-129.106
X176.86Y-141.62
X176.86Y-138.47
X176.9Y-74.75
X177.35Y-64.43
X177.35Y-72.05
X178.322Y-25.178
X178.392Y-31.22
X179.07Y-82.94
X179.07Y-85.48
X179.07Y-88.02
X179.07Y-90.56
X179.08Y-93.73
X179.87Y-53.71
X179.87Y-61.33
X179.875Y-43.665
X179.875Y-51.285
X180.882Y-37.186
X183.382Y-37.186
X183.392Y-31.22
X183.402Y-25.178
X183.53Y-79.77
X183.56Y-145.46
X183.56Y-153.08
X184.08Y-93.73
X184.38Y-104.12
X184.38Y-106.66
X184.38Y-109.2
X184.38Y-111.74
X184.384Y-121.486
X184.384Y-124.026
X184.384Y-126.566
X184.384Y-129.106
X184.52Y-74.75
X186.172Y-8.338
X186.172Y-15.958
X186.21Y-145.46
X186.21Y-153.08
X186.69Y-82.94
X186.69Y-85.48
X186.69Y-88.02
X186.69Y-90.56
X186.694Y-79.77
X187.55Y-101.66
X187.55Y-106.66
X187.55Y-111.74
X187.55Y-116.74
X187.554Y-119.016
X187.554Y-124.016
X187.554Y-129.106
X187.554Y-134.106
X188.428Y-33.47
X188.94Y-82.92
X188.94Y-86.07
X188.94Y-89.22
X188.94Y-92.42
X190.14Y-142.71
X190.14Y-145.46
X190.14Y-153.08
X190.428Y-38.46
X190.428Y-46.08
X190.43Y-48.32
X190.43Y-55.94
X190.928Y-33.47
X191.44Y-92.42
X191.694Y-79.77
X192.012Y-104.187
X192.012Y-106.687
X192.012Y-111.735
X192.012Y-114.235
X192.02Y-121.508
X192.02Y-124.008
X192.02Y-129.101
X192.02Y-131.601
X192.64Y-142.71
X192.65Y-60.56
X192.65Y-63.56
X192.65Y-66.56
X192.65Y-69.56
X193.04Y-145.46
X193.04Y-153.08
X194.04Y-93.52
X194.06Y-79.72
X194.29Y-48.315
X194.29Y-53.315
X194.298Y-36.008
X194.298Y-41.008
X194.308Y-28.468
X194.308Y-33.468
X195.69Y-145.46
X195.69Y-153.08
X196.54Y-93.52
X196.56Y-79.72
X196.56Y-82.92
X196.56Y-86.07
X196.56Y-89.22
X197.005Y-43.235
X197.005Y-45.775
X197.005Y-48.315
X197.005Y-50.855
X197.008Y-30.929
X197.008Y-33.469
X197.008Y-36.009
X197.008Y-38.549
X198.31Y-123.15
X198.31Y-125.65
X200.27Y-60.56
X200.27Y-63.56
X200.27Y-66.56
X200.27Y-69.56
X200.32Y-141.63
X200.323Y-138.48
X200.86Y-112.96
X200.86Y-120.58
X203.27Y-79.8
X203.27Y-82.95
X203.27Y-86.1
X203.27Y-89.25
X203.27Y-92.41
X203.76Y-112.96
X203.76Y-120.58
X204.625Y-43.235
X204.625Y-45.775
X204.625Y-48.315
X204.625Y-50.855
X204.628Y-30.929
X204.628Y-33.469
X204.628Y-36.009
X204.628Y-38.549
X207.327Y-36.009
X207.327Y-41.009
X207.34Y-43.242
X207.34Y-48.242
X207.94Y-141.63
X207.943Y-138.48
X208.62Y-60.55
X208.62Y-63.55
X208.62Y-66.55
X208.62Y-69.55
X210.174Y-14.978
X210.71Y-123.14
X210.71Y-125.64
X210.733Y-36.009
X210.89Y-79.8
X210.89Y-82.95
X210.89Y-86.1
X210.89Y-89.25
X210.89Y-92.41
X213.142Y-79.8
X213.233Y-36.009
X213.239Y-112.962
X213.239Y-120.582
X213.59Y-82.966
X213.59Y-85.466
X214.279Y-4.567
X214.279Y-8.067
X214.81Y-145.48
X214.81Y-153.1
X215.174Y-14.978
X216.139Y-112.964
X216.139Y-120.584
X216.155Y-82.97
X216.155Y-85.51
X216.155Y-88.05
X216.155Y-90.59
X216.16Y-93.8
X216.24Y-60.55
X216.24Y-63.55
X216.24Y-66.55
X216.24Y-69.55
X217.463Y-145.48
X217.463Y-153.1
X217.985Y-97.64
X217.985Y-100.79
X217.985Y-103.94
X217.985Y-107.09
X217.985Y-110.24
X219.34Y-68.33
X220.762Y-79.8
X220.976Y-7.516
X220.976Y-15.136
X221.16Y-93.8
X221.38Y-142.71
X221.39Y-145.46
X221.39Y-153.08
X221.84Y-68.33
X223.21Y-123.41
X223.21Y-125.91
X223.512Y-26.016
X223.512Y-28.516
X223.702Y-35.378
X223.775Y-82.97
X223.775Y-85.51
X223.775Y-88.05
X223.775Y-90.59
X223.78Y-79.8
X223.88Y-142.71
X224.126Y-7.516
X224.126Y-15.136
X224.286Y-145.46
X224.286Y-153.08
X224.92Y-60.51
X224.92Y-63.51
X224.92Y-66.51
X224.92Y-69.52
X225.605Y-97.64
X225.605Y-100.79
X225.605Y-103.94
X225.605Y-107.09
X225.605Y-110.24
X225.752Y-113.232
X225.752Y-120.852
X226.03Y-82.95
X226.03Y-86.1
X226.03Y-89.25
X226.03Y-92.45
X226.937Y-145.46
X226.937Y-153.08
X227.276Y-7.528
X227.276Y-15.148
X227.855Y-97.64
X228.305Y-100.81
X228.305Y-103.31
X228.53Y-92.45
X228.653Y-113.23
X228.653Y-120.85
X228.78Y-79.8
X228.782Y-35.378
X229.18Y-54.92
X231.01Y-100.81
X231.01Y-103.35
X231.01Y-105.89
X231.01Y-108.43
X231.02Y-111.5
X231.15Y-79.75
X231.73Y-138.453
X231.73Y-141.615
X232.332Y-35.378
X232.332Y-42.88
X232.378Y-13.97
X232.383Y-8.058
X232.54Y-60.51
X232.54Y-63.51
X232.54Y-66.51
X232.54Y-69.52
X233.27Y-50.368
X233.65Y-79.75
X233.65Y-82.95
X233.65Y-86.1
X233.65Y-89.25
X235.475Y-97.64
X235.53Y-92.95
X235.77Y-50.368
X235.87Y-123.401
X235.87Y-125.901
X235.878Y-13.97
X236.02Y-111.5
X236.8Y-54.92
X237.383Y-8.058
X238.03Y-92.95
X238.264Y-113.23
X238.264Y-120.85
X238.63Y-97.64
X238.63Y-100.81
X238.63Y-103.35
X238.63Y-105.89
X238.63Y-108.43
X238.86Y-79.49
X238.86Y-87.11
X239.35Y-138.453
X239.35Y-141.615
X239.502Y-50.369
X239.502Y-55.369
X239.952Y-35.378
X239.952Y-42.88
X240.875Y-100.79
X240.875Y-103.94
X240.875Y-107.1
X240.875Y-110.3
X241.166Y-113.23
X241.166Y-120.85
X241.215Y-92.95
X241.87Y-79.49
X241.87Y-87.11
X243.375Y-110.3
X243.63Y-97.64
X243.715Y-92.95
X244.88Y-79.49
X244.88Y-87.11
X245.59Y-113.62
X245.995Y-97.59
X246.05Y-145.461
X246.05Y-153.081
X247.91Y-79.48
X247.91Y-87.1
X248.09Y-113.62
X248.495Y-97.59
X248.495Y-100.79
X248.495Y-103.94
X248.495Y-107.1
X248.7Y-145.46
X248.7Y-153.08
T6
X3.184Y-74.25
X5.684Y-74.25
X8.184Y-74.25
X10.684Y-74.25
X13.184Y-74.25
X19.24Y-74.25
X21.74Y-74.25
X24.24Y-74.25
X26.74Y-74.25
X29.24Y-74.25
X35.29Y-74.25
X37.79Y-74.25
X40.29Y-74.25
X42.79Y-74.25
X45.29Y-74.25
X51.34Y-74.25
X53.84Y-74.25
X56.34Y-74.25
X58.84Y-74.25
X61.34Y-74.25
X126.39Y-21.953
X128.89Y-21.953
X131.39Y-21.953
X133.89Y-21.953
X136.39Y-21.953
X188.607Y-74.25
X191.107Y-74.25
X193.607Y-74.25
X196.107Y-74.25
X198.607Y-74.25
X204.62Y-74.24
X207.12Y-74.24
X209.62Y-74.24
X212.12Y-74.24
X214.62Y-74.24
X220.67Y-74.25
X223.17Y-74.25
X225.67Y-74.25
X228.17Y-74.25
X230.67Y-74.25
X236.74Y-74.25
X239.24Y-74.25
X241.74Y-74.25
X241.748Y-3.158
X244.24Y-74.25
X244.248Y-3.158
X244.522Y-27.878
X244.522Y-30.378
X244.522Y-32.878
X244.522Y-35.378
X244.522Y-37.878
X244.522Y-40.378
X244.522Y-42.878
X244.522Y-45.378
X244.522Y-47.878
X244.522Y-50.378
X244.522Y-52.878
X244.522Y-55.378
X244.522Y-57.878
X246.74Y-74.25
X246.748Y-3.158
T7
X3.33Y-55.768
X3.37Y-34.598
X3.37Y-41.638
X3.37Y-48.713
X5.83Y-55.768
X5.87Y-34.598
X5.87Y-41.638
X5.87Y-48.713
X6.123Y-123.262
X6.123Y-125.802
X6.123Y-133.422
X11.203Y-123.262
X11.203Y-125.802
X11.203Y-133.422
X18.652Y-123.312
X18.652Y-125.852
X18.652Y-133.472
X21.95Y-44.834
X21.97Y-54.894
X23.732Y-123.312
X23.732Y-125.852
X23.732Y-133.472
X24.45Y-44.834
X24.47Y-54.894
X31.182Y-123.292
X31.182Y-125.832
X31.182Y-133.452
X33.8Y-44.824
X33.8Y-54.859
X36.262Y-123.292
X36.262Y-125.832
X36.262Y-133.452
X36.3Y-44.824
X36.3Y-54.859
X43.712Y-123.312
X43.712Y-125.852
X43.712Y-133.472
X48.792Y-123.312
X48.792Y-125.852
X48.792Y-133.472
X140.979Y-41.625
X140.989Y-34.555
X140.989Y-48.695
X141.089Y-55.77
X143.479Y-41.625
X143.489Y-34.555
X143.489Y-48.695
X143.589Y-55.77
X145.43Y-21.96
X147.93Y-21.96
X160.915Y-48.43
X160.93Y-58.445
X163.415Y-48.43
X163.43Y-58.445
X171.342Y-11.715
X172.77Y-58.48
X172.775Y-48.435
X175.27Y-58.48
X175.275Y-48.435
X176.342Y-11.715
X201.452Y-123.142
X201.452Y-125.682
X201.452Y-133.302
X203.605Y-3.708
X203.605Y-8.708
X206.532Y-123.142
X206.532Y-125.682
X206.532Y-133.302
X213.852Y-123.142
X213.852Y-125.682
X213.852Y-133.302
X218.932Y-123.142
X218.932Y-125.682
X218.932Y-133.302
X225.58Y-3.68
X226.352Y-123.402
X226.352Y-125.942
X226.352Y-133.562
X227.28Y-3.68
X228.98Y-3.68
X230.68Y-3.68
X231.432Y-123.402
X231.432Y-125.942
X231.432Y-133.562
X232.38Y-3.68
X238.862Y-123.402
X238.862Y-125.942
X238.862Y-133.562
X243.942Y-123.402
X243.942Y-125.942
X243.942Y-133.562
T8
X190.942Y-3.777
X196.042Y-4.977
X241.595Y-15.051
X246.695Y-16.251
T9
X181.102Y-3.778
X183.642Y-3.778
X186.182Y-3.778
X219.802Y-18.797
X227.422Y-18.797
X246.72Y-10.178
X246.72Y-22.878
T10
X23.847Y-142.52
X23.847Y-152.68
X55.111Y-142.52
X55.111Y-152.68
X86.35Y-142.52
X86.35Y-152.68
X117.6Y-142.52
X117.6Y-152.68
X148.85Y-142.51
X148.85Y-152.67
X166.192Y-3.785
X176.352Y-3.785
X180.11Y-142.52
X180.11Y-152.68
X203.605Y-14.978
X203.605Y-27.678
X211.356Y-142.536
X211.356Y-152.696
X242.603Y-142.52
X242.603Y-152.68
T11
X214.35Y-23.808
X214.35Y-28.808
X232.382Y-23.796
X232.382Y-28.796
T2
G00X10.625Y-145.65
M15
G01X10.625Y-146.35
M16
G05
G00X15.275Y-151.0
M15
G01X15.975Y-151.0
M16
G05
G00X20.625Y-145.65
M15
G01X20.625Y-146.35
M16
G05
G00X41.875Y-145.65
M15
G01X41.875Y-146.35
M16
G05
G00X46.525Y-151.0
M15
G01X47.225Y-151.0
M16
G05
G00X51.875Y-145.65
M15
G01X51.875Y-146.35
M16
G05
G00X73.125Y-145.65
M15
G01X73.125Y-146.35
M16
G05
G00X77.775Y-151.0
M15
G01X78.475Y-151.0
M16
G05
G00X83.125Y-145.65
M15
G01X83.125Y-146.35
M16
G05
G00X104.375Y-145.65
M15
G01X104.375Y-146.35
M16
G05
G00X109.025Y-151.0
M15
G01X109.725Y-151.0
M16
G05
G00X114.375Y-145.65
M15
G01X114.375Y-146.35
M16
G05
G00X135.625Y-145.65
M15
G01X135.625Y-146.35
M16
G05
G00X140.275Y-151.0
M15
G01X140.975Y-151.0
M16
G05
G00X145.625Y-145.65
M15
G01X145.625Y-146.35
M16
G05
G00X166.875Y-145.65
M15
G01X166.875Y-146.35
M16
G05
G00X171.525Y-151.0
M15
G01X172.225Y-151.0
M16
G05
G00X176.875Y-145.65
M15
G01X176.875Y-146.35
M16
G05
G00X198.125Y-145.65
M15
G01X198.125Y-146.35
M16
G05
G00X202.775Y-151.0
M15
G01X203.475Y-151.0
M16
G05
G00X208.125Y-145.65
M15
G01X208.125Y-146.35
M16
G05
G00X229.375Y-145.65
M15
G01X229.375Y-146.35
M16
G05
G00X234.025Y-151.0
M15
G01X234.725Y-151.0
M16
G05
G00X239.375Y-145.65
M15
G01X239.375Y-146.35
M16
G05
M30
