%TF.GenerationSoftware,KiCad,Pcbnew,9.0.5*%
%TF.CreationDate,2025-11-15T17:03:18+01:00*%
%TF.ProjectId,SpikyOscilloscopce,5370696b-794f-4736-9369-6c6c6f73636f,rev?*%
%TF.SameCoordinates,Original*%
%TF.FileFunction,Other,User*%
%FSLAX46Y46*%
G04 Gerber Fmt 4.6, Leading zero omitted, Abs format (unit mm)*
G04 Created by KiCad (PCBNEW 9.0.5) date 2025-11-15 17:03:18*
%MOMM*%
%LPD*%
G01*
G04 APERTURE LIST*
%ADD10C,0.050000*%
%ADD11C,0.120000*%
G04 APERTURE END LIST*
D10*
%TO.C,H4*%
X249750000Y-138000000D02*
G75*
G02*
X243250000Y-138000000I-3250000J0D01*
G01*
X243250000Y-138000000D02*
G75*
G02*
X249750000Y-138000000I3250000J0D01*
G01*
%TO.C,H3*%
X6750000Y-138000000D02*
G75*
G02*
X250000Y-138000000I-3250000J0D01*
G01*
X250000Y-138000000D02*
G75*
G02*
X6750000Y-138000000I3250000J0D01*
G01*
%TO.C,H2*%
X248250000Y-65000000D02*
G75*
G02*
X241750000Y-65000000I-3250000J0D01*
G01*
X241750000Y-65000000D02*
G75*
G02*
X248250000Y-65000000I3250000J0D01*
G01*
%TO.C,H1*%
X8250000Y-65000000D02*
G75*
G02*
X1750000Y-65000000I-3250000J0D01*
G01*
X1750000Y-65000000D02*
G75*
G02*
X8250000Y-65000000I3250000J0D01*
G01*
%TO.C,C27*%
X208854732Y-6208299D02*
G75*
G02*
X198354732Y-6208299I-5250000J0D01*
G01*
X198354732Y-6208299D02*
G75*
G02*
X208854732Y-6208299I5250000J0D01*
G01*
%TO.C,SW10*%
X138139176Y-52920000D02*
X138139176Y-59670000D01*
X138139176Y-59670000D02*
X146539176Y-59670000D01*
X146539176Y-52920000D02*
X138139176Y-52920000D01*
X146539176Y-59670000D02*
X146539176Y-52920000D01*
%TO.C,C45*%
X166211380Y-20468299D02*
X159111380Y-20468299D01*
X159111380Y-17468299D01*
X166211380Y-17468299D01*
X166211380Y-20468299D01*
%TO.C,R92*%
X85290000Y-84575398D02*
X75570000Y-84575398D01*
X75570000Y-81575398D01*
X85290000Y-81575398D01*
X85290000Y-84575398D01*
%TO.C,FB1*%
X184801701Y-25178299D02*
G75*
G02*
X176921701Y-25178299I-3940000J0D01*
G01*
X176921701Y-25178299D02*
G75*
G02*
X184801701Y-25178299I3940000J0D01*
G01*
%TO.C,R75*%
X138250000Y-117851819D02*
X147970000Y-117851819D01*
X147970000Y-120851819D01*
X138250000Y-120851819D01*
X138250000Y-117851819D01*
%TO.C,U8*%
X28345000Y-81570000D02*
X38075000Y-81570000D01*
X38075000Y-92230000D01*
X28345000Y-92230000D01*
X28345000Y-81570000D01*
%TO.C,C157*%
X38310000Y-109250000D02*
G75*
G02*
X32810000Y-109250000I-2750000J0D01*
G01*
X32810000Y-109250000D02*
G75*
G02*
X38310000Y-109250000I2750000J0D01*
G01*
%TO.C,K1*%
X4672853Y-121912500D02*
X4672853Y-134712500D01*
X4672853Y-121912500D02*
X12572853Y-121912500D01*
X12572853Y-134712500D02*
X4672853Y-134712500D01*
X12572853Y-134712500D02*
X12572853Y-121912500D01*
%TO.C,U1*%
X87542047Y-117860000D02*
X97272047Y-117860000D01*
X97272047Y-138680000D01*
X87542047Y-138680000D01*
X87542047Y-117860000D01*
%TO.C,R58*%
X102750000Y-7410000D02*
X115010000Y-7410000D01*
X115010000Y-10410000D01*
X102750000Y-10410000D01*
X102750000Y-7410000D01*
%TO.C,C28*%
X168070000Y-126984888D02*
G75*
G02*
X162570000Y-126984888I-2750000J0D01*
G01*
X162570000Y-126984888D02*
G75*
G02*
X168070000Y-126984888I2750000J0D01*
G01*
%TO.C,C75*%
X98778449Y-127559630D02*
X101878449Y-127559630D01*
X101878449Y-122959630D01*
X98778449Y-122959630D01*
X98778449Y-127559630D01*
%TO.C,C57*%
X146579176Y-43025000D02*
X151679176Y-43025000D01*
X151679176Y-45525000D01*
X146579176Y-45525000D01*
X146579176Y-43025000D01*
%TO.C,C147*%
X13840000Y-126860000D02*
X16940000Y-126860000D01*
X16940000Y-122260000D01*
X13840000Y-122260000D01*
X13840000Y-126860000D01*
%TO.C,C7*%
X80285677Y-117860000D02*
X87385677Y-117860000D01*
X87385677Y-120860000D01*
X80285677Y-120860000D01*
X80285677Y-117860000D01*
%TO.C,R65*%
X102740000Y-25810000D02*
X115000000Y-25810000D01*
X115000000Y-28810000D01*
X102740000Y-28810000D01*
X102740000Y-25810000D01*
%TO.C,J3*%
X123440000Y-19102686D02*
X123440000Y-25852686D01*
X123440000Y-25852686D02*
X139340000Y-25852686D01*
X139340000Y-19102686D02*
X123440000Y-19102686D01*
X139340000Y-25852686D02*
X139340000Y-19102686D01*
%TO.C,C56*%
X146589176Y-35955000D02*
X151689176Y-35955000D01*
X151689176Y-38455000D01*
X146589176Y-38455000D01*
X146589176Y-35955000D01*
%TO.C,C10*%
X121930000Y-38205113D02*
G75*
G02*
X116430000Y-38205113I-2750000J0D01*
G01*
X116430000Y-38205113D02*
G75*
G02*
X121930000Y-38205113I2750000J0D01*
G01*
%TO.C,C126*%
X155150000Y-93970000D02*
X150550000Y-93970000D01*
X150550000Y-90870000D01*
X155150000Y-90870000D01*
X155150000Y-93970000D01*
%TO.C,J7*%
X204925000Y-158500000D02*
X201325000Y-158500000D01*
X201325000Y-155500000D01*
X204925000Y-155500000D01*
X204925000Y-158500000D01*
D11*
X209125000Y-155500000D02*
X197125000Y-155500000D01*
X197125000Y-143300000D01*
X209125000Y-143300000D01*
X209125000Y-155500000D01*
%TO.C,C47*%
D10*
X205827011Y-42059493D02*
X208827011Y-42059493D01*
X208827011Y-34959493D01*
X205827011Y-34959493D01*
X205827011Y-42059493D01*
%TO.C,C161*%
X38555113Y-98250000D02*
G75*
G02*
X33055113Y-98250000I-2750000J0D01*
G01*
X33055113Y-98250000D02*
G75*
G02*
X38555113Y-98250000I2750000J0D01*
G01*
%TO.C,C144*%
X230302500Y-121899613D02*
X232802500Y-121899613D01*
X232802500Y-116799613D01*
X230302500Y-116799613D01*
X230302500Y-121899613D01*
%TO.C,L2*%
X218950329Y-26308299D02*
G75*
G02*
X209750329Y-26308299I-4600000J0D01*
G01*
X209750329Y-26308299D02*
G75*
G02*
X218950329Y-26308299I4600000J0D01*
G01*
%TO.C,R38*%
X90410000Y-28858309D02*
X102670000Y-28858309D01*
X102670000Y-31858309D01*
X90410000Y-31858309D01*
X90410000Y-28858309D01*
%TO.C,R229*%
X168190000Y-140120000D02*
X177910000Y-140120000D01*
X177910000Y-143120000D01*
X168190000Y-143120000D01*
X168190000Y-140120000D01*
%TO.C,C138*%
X10481958Y-121760000D02*
X12981958Y-121760000D01*
X12981958Y-116660000D01*
X10481958Y-116660000D01*
X10481958Y-121760000D01*
%TO.C,R224*%
X115396566Y-139973434D02*
X105676566Y-139973434D01*
X105676566Y-136973434D01*
X115396566Y-136973434D01*
X115396566Y-139973434D01*
%TO.C,R179*%
X26270000Y-71110000D02*
X16550000Y-71110000D01*
X16550000Y-68110000D01*
X26270000Y-68110000D01*
X26270000Y-71110000D01*
%TO.C,C38*%
X166420000Y-115060000D02*
G75*
G02*
X160920000Y-115060000I-2750000J0D01*
G01*
X160920000Y-115060000D02*
G75*
G02*
X166420000Y-115060000I2750000J0D01*
G01*
%TO.C,D31*%
X29732500Y-121804026D02*
X32232500Y-121804026D01*
X32232500Y-112084026D01*
X29732500Y-112084026D01*
X29732500Y-121804026D01*
%TO.C,R156*%
X96379044Y-73280000D02*
X106099044Y-73280000D01*
X106099044Y-76280000D01*
X96379044Y-76280000D01*
X96379044Y-73280000D01*
%TO.C,C149*%
X39010000Y-126860000D02*
X42110000Y-126860000D01*
X42110000Y-122260000D01*
X39010000Y-122260000D01*
X39010000Y-126860000D01*
%TO.C,R185*%
X237360000Y-88160000D02*
X240360000Y-88160000D01*
X240360000Y-78440000D01*
X237360000Y-78440000D01*
X237360000Y-88160000D01*
%TO.C,R134*%
X211940000Y-93910000D02*
X202220000Y-93910000D01*
X202220000Y-90910000D01*
X211940000Y-90910000D01*
X211940000Y-93910000D01*
%TO.C,R4*%
X137630000Y-26030000D02*
X134630000Y-26030000D01*
X134630000Y-35750000D01*
X137630000Y-35750000D01*
X137630000Y-26030000D01*
%TO.C,R26*%
X39400000Y-48728920D02*
X42400000Y-48728920D01*
X42400000Y-39008920D01*
X39400000Y-39008920D01*
X39400000Y-48728920D01*
%TO.C,R152*%
X162910000Y-63370000D02*
X159910000Y-63370000D01*
X159910000Y-73090000D01*
X162910000Y-73090000D01*
X162910000Y-63370000D01*
%TO.C,D53*%
X21796866Y-154130000D02*
X25896866Y-154130000D01*
X25896866Y-141070000D01*
X21796866Y-141070000D01*
X21796866Y-154130000D01*
%TO.C,C156*%
X15015113Y-93320000D02*
G75*
G02*
X9515113Y-93320000I-2750000J0D01*
G01*
X9515113Y-93320000D02*
G75*
G02*
X15015113Y-93320000I2750000J0D01*
G01*
%TO.C,C35*%
X184881701Y-37186048D02*
G75*
G02*
X179381701Y-37186048I-2750000J0D01*
G01*
X179381701Y-37186048D02*
G75*
G02*
X184881701Y-37186048I2750000J0D01*
G01*
%TO.C,R56*%
X102770000Y-1246070D02*
X115030000Y-1246070D01*
X115030000Y-4246070D01*
X102770000Y-4246070D01*
X102770000Y-1246070D01*
%TO.C,D37*%
X31210000Y-144410000D02*
X28710000Y-144410000D01*
X28710000Y-154130000D01*
X31210000Y-154130000D01*
X31210000Y-144410000D01*
%TO.C,R77*%
X138250000Y-133120000D02*
X147970000Y-133120000D01*
X147970000Y-136120000D01*
X138250000Y-136120000D01*
X138250000Y-133120000D01*
%TO.C,C128*%
X224980000Y-90900000D02*
X229580000Y-90900000D01*
X229580000Y-94000000D01*
X224980000Y-94000000D01*
X224980000Y-90900000D01*
%TO.C,SW4*%
X420000Y-38788288D02*
X420000Y-45538288D01*
X420000Y-45538288D02*
X8820000Y-45538288D01*
X8820000Y-38788288D02*
X420000Y-38788288D01*
X8820000Y-45538288D02*
X8820000Y-38788288D01*
%TO.C,C76*%
X98778449Y-137728458D02*
X101878449Y-137728458D01*
X101878449Y-133128458D01*
X98778449Y-133128458D01*
X98778449Y-137728458D01*
%TO.C,F1*%
X240344551Y-13901149D02*
X240344551Y-17401149D01*
X240344551Y-17401149D02*
X247944551Y-17401149D01*
X247944551Y-13901149D02*
X240344551Y-13901149D01*
X247944551Y-17401149D02*
X247944551Y-13901149D01*
%TO.C,C42*%
X192790000Y-54364554D02*
X195790000Y-54364554D01*
X195790000Y-47264554D01*
X192790000Y-47264554D01*
X192790000Y-54364554D01*
%TO.C,R41*%
X102685769Y-7324231D02*
X90425769Y-7324231D01*
X90425769Y-4324231D01*
X102685769Y-4324231D01*
X102685769Y-7324231D01*
%TO.C,C150*%
X196760000Y-126700000D02*
X199860000Y-126700000D01*
X199860000Y-122100000D01*
X196760000Y-122100000D01*
X196760000Y-126700000D01*
%TO.C,C65*%
X37440000Y-144410000D02*
X32840000Y-144410000D01*
X32840000Y-141310000D01*
X37440000Y-141310000D01*
X37440000Y-144410000D01*
%TO.C,C118*%
X155670000Y-78170000D02*
X160270000Y-78170000D01*
X160270000Y-81270000D01*
X155670000Y-81270000D01*
X155670000Y-78170000D01*
%TO.C,D4*%
X206524732Y-13527823D02*
X200684732Y-13527823D01*
X200684732Y-29127823D01*
X206524732Y-29127823D01*
X206524732Y-13527823D01*
%TO.C,R39*%
X90433762Y-1240000D02*
X102693762Y-1240000D01*
X102693762Y-4240000D01*
X90433762Y-4240000D01*
X90433762Y-1240000D01*
%TO.C,C29*%
X169719999Y-124010000D02*
X162619999Y-124010000D01*
X162619999Y-121010000D01*
X169719999Y-121010000D01*
X169719999Y-124010000D01*
%TO.C,L1*%
X236981701Y-26296372D02*
G75*
G02*
X227781701Y-26296372I-4600000J0D01*
G01*
X227781701Y-26296372D02*
G75*
G02*
X236981701Y-26296372I4600000J0D01*
G01*
%TO.C,SW9*%
X138039176Y-45845000D02*
X138039176Y-52595000D01*
X138039176Y-52595000D02*
X146439176Y-52595000D01*
X146439176Y-45845000D02*
X138039176Y-45845000D01*
X146439176Y-52595000D02*
X146439176Y-45845000D01*
%TO.C,D57*%
X146800000Y-154120000D02*
X150900000Y-154120000D01*
X150900000Y-141060000D01*
X146800000Y-141060000D01*
X146800000Y-154120000D01*
%TO.C,R187*%
X19852251Y-121805509D02*
X22852251Y-121805509D01*
X22852251Y-112085509D01*
X19852251Y-112085509D01*
X19852251Y-121805509D01*
%TO.C,R120*%
X236525000Y-99140000D02*
X226805000Y-99140000D01*
X226805000Y-96140000D01*
X236525000Y-96140000D01*
X236525000Y-99140000D01*
%TO.C,R175*%
X164990000Y-84570000D02*
X174710000Y-84570000D01*
X174710000Y-87570000D01*
X164990000Y-87570000D01*
X164990000Y-84570000D01*
%TO.C,R140*%
X62380000Y-84565000D02*
X52660000Y-84565000D01*
X52660000Y-81565000D01*
X62380000Y-81565000D01*
X62380000Y-84565000D01*
%TO.C,R103*%
X187890000Y-84570000D02*
X197610000Y-84570000D01*
X197610000Y-87570000D01*
X187890000Y-87570000D01*
X187890000Y-84570000D01*
%TO.C,C67*%
X131180000Y-144260000D02*
X126580000Y-144260000D01*
X126580000Y-141160000D01*
X131180000Y-141160000D01*
X131180000Y-144260000D01*
%TO.C,U14*%
X152740000Y-117863252D02*
X162470000Y-117863252D01*
X162470000Y-138683252D01*
X152740000Y-138683252D01*
X152740000Y-117863252D01*
%TO.C,R5*%
X228775657Y-6478299D02*
X225775657Y-6478299D01*
X225775657Y-16198299D01*
X228775657Y-16198299D01*
X228775657Y-6478299D01*
%TO.C,R108*%
X34930000Y-81420000D02*
X25210000Y-81420000D01*
X25210000Y-78420000D01*
X34930000Y-78420000D01*
X34930000Y-81420000D01*
%TO.C,R150*%
X131120000Y-63354625D02*
X128120000Y-63354625D01*
X128120000Y-73074625D01*
X131120000Y-73074625D01*
X131120000Y-63354625D01*
%TO.C,U18*%
X62389667Y-50930000D02*
X98469667Y-50930000D01*
X98469667Y-41200000D01*
X62389667Y-41200000D01*
X62389667Y-50930000D01*
%TO.C,D1*%
X187421701Y-7288144D02*
X184921701Y-7288144D01*
X184921701Y-17008144D01*
X187421701Y-17008144D01*
X187421701Y-7288144D01*
%TO.C,R145*%
X226655000Y-102290000D02*
X216935000Y-102290000D01*
X216935000Y-99290000D01*
X226655000Y-99290000D01*
X226655000Y-102290000D01*
%TO.C,R184*%
X233590000Y-71020000D02*
X223870000Y-71020000D01*
X223870000Y-68020000D01*
X233590000Y-68020000D01*
X233590000Y-71020000D01*
%TO.C,C22*%
X205840000Y-49292136D02*
X208840000Y-49292136D01*
X208840000Y-42192136D01*
X205840000Y-42192136D01*
X205840000Y-49292136D01*
%TO.C,FB2*%
X175721701Y-25176098D02*
G75*
G02*
X167841701Y-25176098I-3940000J0D01*
G01*
X167841701Y-25176098D02*
G75*
G02*
X175721701Y-25176098I3940000J0D01*
G01*
%TO.C,R15*%
X97980000Y-41050000D02*
X88260000Y-41050000D01*
X88260000Y-38050000D01*
X97980000Y-38050000D01*
X97980000Y-41050000D01*
%TO.C,C123*%
X38220000Y-91030000D02*
X42820000Y-91030000D01*
X42820000Y-94130000D01*
X38220000Y-94130000D01*
X38220000Y-91030000D01*
%TO.C,R211*%
X26270000Y-62110000D02*
X16550000Y-62110000D01*
X16550000Y-59110000D01*
X26270000Y-59110000D01*
X26270000Y-62110000D01*
%TO.C,R31*%
X166530000Y-62350000D02*
X169530000Y-62350000D01*
X169530000Y-52630000D01*
X166530000Y-52630000D01*
X166530000Y-62350000D01*
%TO.C,C62*%
X68680000Y-144260000D02*
X64080000Y-144260000D01*
X64080000Y-141160000D01*
X68680000Y-141160000D01*
X68680000Y-144260000D01*
%TO.C,C87*%
X110270000Y-100080000D02*
X103170000Y-100080000D01*
X103170000Y-97080000D01*
X110270000Y-97080000D01*
X110270000Y-100080000D01*
%TO.C,C141*%
X48062500Y-121832500D02*
X50562500Y-121832500D01*
X50562500Y-116732500D01*
X48062500Y-116732500D01*
X48062500Y-121832500D01*
%TO.C,D51*%
X249950000Y-144410000D02*
X247450000Y-144410000D01*
X247450000Y-154130000D01*
X249950000Y-154130000D01*
X249950000Y-144410000D01*
%TO.C,R73*%
X1150000Y-154130000D02*
X4150000Y-154130000D01*
X4150000Y-144410000D01*
X1150000Y-144410000D01*
X1150000Y-154130000D01*
%TO.C,R22*%
X146579176Y-39875000D02*
X156299176Y-39875000D01*
X156299176Y-42875000D01*
X146579176Y-42875000D01*
X146579176Y-39875000D01*
%TO.C,R88*%
X149340000Y-111750000D02*
X139620000Y-111750000D01*
X139620000Y-108750000D01*
X149340000Y-108750000D01*
X149340000Y-111750000D01*
%TO.C,SW2*%
X142480000Y-19110000D02*
X142480000Y-25860000D01*
X142480000Y-25860000D02*
X150880000Y-25860000D01*
X150880000Y-19110000D02*
X142480000Y-19110000D01*
X150880000Y-25860000D02*
X150880000Y-19110000D01*
%TO.C,R146*%
X67670000Y-63390000D02*
X64670000Y-63390000D01*
X64670000Y-73110000D01*
X67670000Y-73110000D01*
X67670000Y-63390000D01*
%TO.C,C49*%
X214733209Y-36009493D02*
G75*
G02*
X209233209Y-36009493I-2750000J0D01*
G01*
X209233209Y-36009493D02*
G75*
G02*
X214733209Y-36009493I2750000J0D01*
G01*
%TO.C,R213*%
X58370000Y-62090000D02*
X48650000Y-62090000D01*
X48650000Y-59090000D01*
X58370000Y-59090000D01*
X58370000Y-62090000D01*
%TO.C,C143*%
X217789407Y-121633295D02*
X220289407Y-121633295D01*
X220289407Y-116533295D01*
X217789407Y-116533295D01*
X217789407Y-121633295D01*
%TO.C,J10*%
X121200000Y-640000D02*
X121200000Y-9940000D01*
X121200000Y-9940000D02*
X164200000Y-9940000D01*
X164200000Y-640000D02*
X121200000Y-640000D01*
X164200000Y-9940000D02*
X164200000Y-640000D01*
%TO.C,R57*%
X102770000Y-4324598D02*
X115030000Y-4324598D01*
X115030000Y-7324598D01*
X102770000Y-7324598D01*
X102770000Y-4324598D01*
%TO.C,C68*%
X162440000Y-144260000D02*
X157840000Y-144260000D01*
X157840000Y-141160000D01*
X162440000Y-141160000D01*
X162440000Y-144260000D01*
%TO.C,C131*%
X25210000Y-86618181D02*
X28210000Y-86618181D01*
X28210000Y-82018181D01*
X25210000Y-82018181D01*
X25210000Y-86618181D01*
%TO.C,SW6*%
X380000Y-52918288D02*
X380000Y-59668288D01*
X380000Y-59668288D02*
X8780000Y-59668288D01*
X8780000Y-52918288D02*
X380000Y-52918288D01*
X8780000Y-59668288D02*
X8780000Y-52918288D01*
%TO.C,U13*%
X113360000Y-61120000D02*
X136720000Y-61120000D01*
X136720000Y-51390000D01*
X113360000Y-51390000D01*
X113360000Y-61120000D01*
%TO.C,C120*%
X230100000Y-78200000D02*
X234700000Y-78200000D01*
X234700000Y-81300000D01*
X230100000Y-81300000D01*
X230100000Y-78200000D01*
%TO.C,R141*%
X99670000Y-84470000D02*
X89950000Y-84470000D01*
X89950000Y-81470000D01*
X99670000Y-81470000D01*
X99670000Y-84470000D01*
%TO.C,SW1*%
X238798006Y-308299D02*
X238798006Y-7058299D01*
X238798006Y-7058299D02*
X249698006Y-7058299D01*
X249698006Y-308299D02*
X238798006Y-308299D01*
X249698006Y-7058299D02*
X249698006Y-308299D01*
%TO.C,C73*%
X148120000Y-133101979D02*
X151220000Y-133101979D01*
X151220000Y-128501979D01*
X148120000Y-128501979D01*
X148120000Y-133101979D01*
%TO.C,R90*%
X32834272Y-102220000D02*
X23114272Y-102220000D01*
X23114272Y-99220000D01*
X32834272Y-99220000D01*
X32834272Y-102220000D01*
%TO.C,C97*%
X60402586Y-105275682D02*
X57402586Y-105275682D01*
X57402586Y-112775682D01*
X60402586Y-112775682D01*
X60402586Y-105275682D01*
%TO.C,C74*%
X148120000Y-138170000D02*
X151220000Y-138170000D01*
X151220000Y-133570000D01*
X148120000Y-133570000D01*
X148120000Y-138170000D01*
%TO.C,C164*%
X80430000Y-81420000D02*
X73330000Y-81420000D01*
X73330000Y-78420000D01*
X80430000Y-78420000D01*
X80430000Y-81420000D01*
%TO.C,R210*%
X10200000Y-81440000D02*
X480000Y-81440000D01*
X480000Y-78440000D01*
X10200000Y-78440000D01*
X10200000Y-81440000D01*
%TO.C,R36*%
X102740000Y-28869449D02*
X115000000Y-28869449D01*
X115000000Y-31869449D01*
X102740000Y-31869449D01*
X102740000Y-28869449D01*
%TO.C,C90*%
X90708220Y-102950000D02*
G75*
G02*
X85208220Y-102950000I-2750000J0D01*
G01*
X85208220Y-102950000D02*
G75*
G02*
X90708220Y-102950000I2750000J0D01*
G01*
%TO.C,R95*%
X197610000Y-84420000D02*
X187890000Y-84420000D01*
X187890000Y-81420000D01*
X197610000Y-81420000D01*
X197610000Y-84420000D01*
%TO.C,R37*%
X78090000Y-28860000D02*
X90350000Y-28860000D01*
X90350000Y-31860000D01*
X78090000Y-31860000D01*
X78090000Y-28860000D01*
%TO.C,U25*%
X110420000Y-97080000D02*
X120150000Y-97080000D01*
X120150000Y-115380000D01*
X110420000Y-115380000D01*
X110420000Y-97080000D01*
%TO.C,R12*%
X126652582Y-10190000D02*
X138912582Y-10190000D01*
X138912582Y-13190000D01*
X126652582Y-13190000D01*
X126652582Y-10190000D01*
%TO.C,R131*%
X137370000Y-90720000D02*
X127650000Y-90720000D01*
X127650000Y-87720000D01*
X137370000Y-87720000D01*
X137370000Y-90720000D01*
%TO.C,R147*%
X83530000Y-63400000D02*
X80530000Y-63400000D01*
X80530000Y-73120000D01*
X83530000Y-73120000D01*
X83530000Y-63400000D01*
%TO.C,R9*%
X128170000Y-26020000D02*
X125170000Y-26020000D01*
X125170000Y-35740000D01*
X128170000Y-35740000D01*
X128170000Y-26020000D01*
%TO.C,R32*%
X178370000Y-62380000D02*
X181370000Y-62380000D01*
X181370000Y-52660000D01*
X178370000Y-52660000D01*
X178370000Y-62380000D01*
%TO.C,C53*%
X8970000Y-43038288D02*
X14070000Y-43038288D01*
X14070000Y-45538288D01*
X8970000Y-45538288D01*
X8970000Y-43038288D01*
%TO.C,R52*%
X90420000Y-13547677D02*
X102680000Y-13547677D01*
X102680000Y-16547677D01*
X90420000Y-16547677D01*
X90420000Y-13547677D01*
%TO.C,D13*%
X6950000Y-154130000D02*
X9450000Y-154130000D01*
X9450000Y-144410000D01*
X6950000Y-144410000D01*
X6950000Y-154130000D01*
%TO.C,R198*%
X201320000Y-68060000D02*
X191600000Y-68060000D01*
X191600000Y-65060000D01*
X201320000Y-65060000D01*
X201320000Y-68060000D01*
%TO.C,R122*%
X9925000Y-111684135D02*
X205000Y-111684135D01*
X205000Y-108684135D01*
X9925000Y-108684135D01*
X9925000Y-111684135D01*
%TO.C,R188*%
X32382500Y-121804026D02*
X35382500Y-121804026D01*
X35382500Y-112084026D01*
X32382500Y-112084026D01*
X32382500Y-121804026D01*
%TO.C,R157*%
X112255000Y-73305000D02*
X121975000Y-73305000D01*
X121975000Y-76305000D01*
X112255000Y-76305000D01*
X112255000Y-73305000D01*
%TO.C,D52*%
X244800000Y-154131039D02*
X247300000Y-154131039D01*
X247300000Y-144411039D01*
X244800000Y-144411039D01*
X244800000Y-154131039D01*
%TO.C,C54*%
X8974000Y-50113288D02*
X14074000Y-50113288D01*
X14074000Y-52613288D01*
X8974000Y-52613288D01*
X8974000Y-50113288D01*
%TO.C,C85*%
X186050000Y-107710000D02*
X189050000Y-107710000D01*
X189050000Y-100610000D01*
X186050000Y-100610000D01*
X186050000Y-107710000D01*
%TO.C,C162*%
X80250000Y-75300000D02*
G75*
G02*
X74750000Y-75300000I-2750000J0D01*
G01*
X74750000Y-75300000D02*
G75*
G02*
X80250000Y-75300000I2750000J0D01*
G01*
%TO.C,K7*%
X224902500Y-122052500D02*
X224902500Y-134852500D01*
X224902500Y-122052500D02*
X232802500Y-122052500D01*
X232802500Y-134852500D02*
X224902500Y-134852500D01*
X232802500Y-134852500D02*
X232802500Y-122052500D01*
%TO.C,D54*%
X53060815Y-154130000D02*
X57160815Y-154130000D01*
X57160815Y-141070000D01*
X53060815Y-141070000D01*
X53060815Y-154130000D01*
%TO.C,R205*%
X58370000Y-65100000D02*
X48650000Y-65100000D01*
X48650000Y-62100000D01*
X58370000Y-62100000D01*
X58370000Y-65100000D01*
%TO.C,C177*%
X249590000Y-113620000D02*
G75*
G02*
X244090000Y-113620000I-2750000J0D01*
G01*
X244090000Y-113620000D02*
G75*
G02*
X249590000Y-113620000I2750000J0D01*
G01*
%TO.C,R30*%
X39400000Y-58758920D02*
X42400000Y-58758920D01*
X42400000Y-49038920D01*
X39400000Y-49038920D01*
X39400000Y-58758920D01*
%TO.C,U12*%
X215095000Y-81450000D02*
X224825000Y-81450000D01*
X224825000Y-92110000D01*
X215095000Y-92110000D01*
X215095000Y-81450000D01*
%TO.C,R99*%
X38220000Y-84720000D02*
X47940000Y-84720000D01*
X47940000Y-87720000D01*
X38220000Y-87720000D01*
X38220000Y-84720000D01*
%TO.C,SW17*%
X217720000Y-71400000D02*
X217720000Y-78150000D01*
X217720000Y-78150000D02*
X233620000Y-78150000D01*
X233620000Y-71400000D02*
X217720000Y-71400000D01*
X233620000Y-78150000D02*
X233620000Y-71400000D01*
%TO.C,SW18*%
X233790000Y-71400000D02*
X233790000Y-78150000D01*
X233790000Y-78150000D02*
X249690000Y-78150000D01*
X249690000Y-71400000D02*
X233790000Y-71400000D01*
X249690000Y-78150000D02*
X249690000Y-71400000D01*
%TO.C,R176*%
X202220000Y-84600000D02*
X211940000Y-84600000D01*
X211940000Y-87600000D01*
X202220000Y-87600000D01*
X202220000Y-84600000D01*
%TO.C,R154*%
X64660000Y-73260000D02*
X74380000Y-73260000D01*
X74380000Y-76260000D01*
X64660000Y-76260000D01*
X64660000Y-73260000D01*
%TO.C,R149*%
X115255000Y-63435000D02*
X112255000Y-63435000D01*
X112255000Y-73155000D01*
X115255000Y-73155000D01*
X115255000Y-63435000D01*
%TO.C,R135*%
X211940000Y-90750000D02*
X202220000Y-90750000D01*
X202220000Y-87750000D01*
X211940000Y-87750000D01*
X211940000Y-90750000D01*
%TO.C,R76*%
X138250000Y-128036747D02*
X147970000Y-128036747D01*
X147970000Y-131036747D01*
X138250000Y-131036747D01*
X138250000Y-128036747D01*
%TO.C,C104*%
X194770198Y-130350890D02*
G75*
G02*
X189270198Y-130350890I-2750000J0D01*
G01*
X189270198Y-130350890D02*
G75*
G02*
X194770198Y-130350890I2750000J0D01*
G01*
%TO.C,SW11*%
X234200Y-71400000D02*
X234200Y-78150000D01*
X234200Y-78150000D02*
X16134200Y-78150000D01*
X16134200Y-71400000D02*
X234200Y-71400000D01*
X16134200Y-78150000D02*
X16134200Y-71400000D01*
%TO.C,C139*%
X23002500Y-121805509D02*
X25502500Y-121805509D01*
X25502500Y-116705509D01*
X23002500Y-116705509D01*
X23002500Y-121805509D01*
%TO.C,C44*%
X192798088Y-42058405D02*
X195798088Y-42058405D01*
X195798088Y-34958405D01*
X192798088Y-34958405D01*
X192798088Y-42058405D01*
%TO.C,R101*%
X112840000Y-84630000D02*
X122560000Y-84630000D01*
X122560000Y-87630000D01*
X112840000Y-87630000D01*
X112840000Y-84630000D01*
%TO.C,R2*%
X103500000Y-38040000D02*
X113220000Y-38040000D01*
X113220000Y-41040000D01*
X103500000Y-41040000D01*
X103500000Y-38040000D01*
%TO.C,R10*%
X191928308Y-37410468D02*
X188928308Y-37410468D01*
X188928308Y-47130468D01*
X191928308Y-47130468D01*
X191928308Y-37410468D01*
%TO.C,R1*%
X103490000Y-51390000D02*
X113210000Y-51390000D01*
X113210000Y-54390000D01*
X103490000Y-54390000D01*
X103490000Y-51390000D01*
%TO.C,R62*%
X102749626Y-19680000D02*
X115009626Y-19680000D01*
X115009626Y-22680000D01*
X102749626Y-22680000D01*
X102749626Y-19680000D01*
%TO.C,R124*%
X25070000Y-94020000D02*
X15350000Y-94020000D01*
X15350000Y-91020000D01*
X25070000Y-91020000D01*
X25070000Y-94020000D01*
%TO.C,R166*%
X127649026Y-78270000D02*
X137369026Y-78270000D01*
X137369026Y-81270000D01*
X127649026Y-81270000D01*
X127649026Y-78270000D01*
%TO.C,D2*%
X177801701Y-5834659D02*
X164741701Y-5834659D01*
X164741701Y-1734659D01*
X177801701Y-1734659D01*
X177801701Y-5834659D01*
%TO.C,R177*%
X216935000Y-102440000D02*
X226655000Y-102440000D01*
X226655000Y-105440000D01*
X216935000Y-105440000D01*
X216935000Y-102440000D01*
%TO.C,R227*%
X136930000Y-140110000D02*
X146650000Y-140110000D01*
X146650000Y-143110000D01*
X136930000Y-143110000D01*
X136930000Y-140110000D01*
%TO.C,D49*%
X218713057Y-144430000D02*
X216213057Y-144430000D01*
X216213057Y-154150000D01*
X218713057Y-154150000D01*
X218713057Y-144430000D01*
%TO.C,C108*%
X101950000Y-105710000D02*
X109050000Y-105710000D01*
X109050000Y-108710000D01*
X101950000Y-108710000D01*
X101950000Y-105710000D01*
%TO.C,C109*%
X101950000Y-111810000D02*
X109050000Y-111810000D01*
X109050000Y-114810000D01*
X101950000Y-114810000D01*
X101950000Y-111810000D01*
%TO.C,R226*%
X146649731Y-139960000D02*
X136929731Y-139960000D01*
X136929731Y-136960000D01*
X146649731Y-136960000D01*
X146649731Y-139960000D01*
%TO.C,C100*%
X189050000Y-110690000D02*
X186050000Y-110690000D01*
X186050000Y-117790000D01*
X189050000Y-117790000D01*
X189050000Y-110690000D01*
%TO.C,R33*%
X237850000Y-56420000D02*
X228130000Y-56420000D01*
X228130000Y-53420000D01*
X237850000Y-53420000D01*
X237850000Y-56420000D01*
%TO.C,R221*%
X43190000Y-140120000D02*
X52910000Y-140120000D01*
X52910000Y-143120000D01*
X43190000Y-143120000D01*
X43190000Y-140120000D01*
%TO.C,U4*%
X140670000Y-81420000D02*
X150400000Y-81420000D01*
X150400000Y-92080000D01*
X140670000Y-92080000D01*
X140670000Y-81420000D01*
%TO.C,R82*%
X90900000Y-117760000D02*
X81180000Y-117760000D01*
X81180000Y-114760000D01*
X90900000Y-114760000D01*
X90900000Y-117760000D01*
%TO.C,R13*%
X158680000Y-13290000D02*
X146420000Y-13290000D01*
X146420000Y-10290000D01*
X158680000Y-10290000D01*
X158680000Y-13290000D01*
%TO.C,C46*%
X159191701Y-29718299D02*
X166291701Y-29718299D01*
X166291701Y-32718299D01*
X159191701Y-32718299D01*
X159191701Y-29718299D01*
%TO.C,R136*%
X226655000Y-111740000D02*
X216935000Y-111740000D01*
X216935000Y-108740000D01*
X226655000Y-108740000D01*
X226655000Y-111740000D01*
%TO.C,R159*%
X143990000Y-73230000D02*
X153710000Y-73230000D01*
X153710000Y-76230000D01*
X143990000Y-76230000D01*
X143990000Y-73230000D01*
%TO.C,C167*%
X215110000Y-92300000D02*
X222210000Y-92300000D01*
X222210000Y-95300000D01*
X215110000Y-95300000D01*
X215110000Y-92300000D01*
%TO.C,K4*%
X42262500Y-121962500D02*
X42262500Y-134762500D01*
X42262500Y-121962500D02*
X50162500Y-121962500D01*
X50162500Y-134762500D02*
X42262500Y-134762500D01*
X50162500Y-134762500D02*
X50162500Y-121962500D01*
%TO.C,C89*%
X149210000Y-100110000D02*
X142110000Y-100110000D01*
X142110000Y-97110000D01*
X149210000Y-97110000D01*
X149210000Y-100110000D01*
%TO.C,C166*%
X223340000Y-68330000D02*
G75*
G02*
X217840000Y-68330000I-2750000J0D01*
G01*
X217840000Y-68330000D02*
G75*
G02*
X223340000Y-68330000I2750000J0D01*
G01*
%TO.C,C168*%
X229830000Y-81300000D02*
X222730000Y-81300000D01*
X222730000Y-78300000D01*
X229830000Y-78300000D01*
X229830000Y-81300000D01*
%TO.C,SW16*%
X201670000Y-71390000D02*
X201670000Y-78140000D01*
X201670000Y-78140000D02*
X217570000Y-78140000D01*
X217570000Y-71390000D02*
X201670000Y-71390000D01*
X217570000Y-78140000D02*
X217570000Y-71390000D01*
%TO.C,D22*%
X131790000Y-144410000D02*
X129290000Y-144410000D01*
X129290000Y-154130000D01*
X131790000Y-154130000D01*
X131790000Y-144410000D01*
%TO.C,R54*%
X90427087Y-7410000D02*
X102687087Y-7410000D01*
X102687087Y-10410000D01*
X90427087Y-10410000D01*
X90427087Y-7410000D01*
%TO.C,R191*%
X214639407Y-121634078D02*
X217639407Y-121634078D01*
X217639407Y-111914078D01*
X214639407Y-111914078D01*
X214639407Y-121634078D01*
%TO.C,R86*%
X129890005Y-111740000D02*
X120170005Y-111740000D01*
X120170005Y-108740000D01*
X129890005Y-108740000D01*
X129890005Y-111740000D01*
%TO.C,U3*%
X13220000Y-99220000D02*
X22950000Y-99220000D01*
X22950000Y-109880000D01*
X13220000Y-109880000D01*
X13220000Y-99220000D01*
%TO.C,R34*%
X78093088Y-10470000D02*
X90353088Y-10470000D01*
X90353088Y-13470000D01*
X78093088Y-13470000D01*
X78093088Y-10470000D01*
%TO.C,R212*%
X42340000Y-62110000D02*
X32620000Y-62110000D01*
X32620000Y-59110000D01*
X42340000Y-59110000D01*
X42340000Y-62110000D01*
%TO.C,R200*%
X233590000Y-68010000D02*
X223870000Y-68010000D01*
X223870000Y-65010000D01*
X233590000Y-65010000D01*
X233590000Y-68010000D01*
%TO.C,U26*%
X175243702Y-119905777D02*
X185903702Y-119905777D01*
X185903702Y-130685777D01*
X175243702Y-130685777D01*
X175243702Y-119905777D01*
%TO.C,U27*%
X129900000Y-97080000D02*
X139630000Y-97080000D01*
X139630000Y-115380000D01*
X129900000Y-115380000D01*
X129900000Y-97080000D01*
%TO.C,C93*%
X149150000Y-102920000D02*
G75*
G02*
X143650000Y-102920000I-2750000J0D01*
G01*
X143650000Y-102920000D02*
G75*
G02*
X149150000Y-102920000I2750000J0D01*
G01*
%TO.C,C176*%
X244680000Y-99140000D02*
X237580000Y-99140000D01*
X237580000Y-96140000D01*
X244680000Y-96140000D01*
X244680000Y-99140000D01*
%TO.C,C174*%
X245214888Y-92950000D02*
G75*
G02*
X239714888Y-92950000I-2750000J0D01*
G01*
X239714888Y-92950000D02*
G75*
G02*
X245214888Y-92950000I2750000J0D01*
G01*
%TO.C,C79*%
X80080554Y-105315113D02*
G75*
G02*
X74580554Y-105315113I-2750000J0D01*
G01*
X74580554Y-105315113D02*
G75*
G02*
X80080554Y-105315113I2750000J0D01*
G01*
%TO.C,R117*%
X187890000Y-87720000D02*
X197610000Y-87720000D01*
X197610000Y-90720000D01*
X187890000Y-90720000D01*
X187890000Y-87720000D01*
%TO.C,R96*%
X234700000Y-84450000D02*
X224980000Y-84450000D01*
X224980000Y-81450000D01*
X234700000Y-81450000D01*
X234700000Y-84450000D01*
%TO.C,R71*%
X94890000Y-154130000D02*
X97890000Y-154130000D01*
X97890000Y-144410000D01*
X94890000Y-144410000D01*
X94890000Y-154130000D01*
%TO.C,C82*%
X71320000Y-125100000D02*
X74320000Y-125100000D01*
X74320000Y-118000000D01*
X71320000Y-118000000D01*
X71320000Y-125100000D01*
%TO.C,C171*%
X102990000Y-92270000D02*
X110090000Y-92270000D01*
X110090000Y-95270000D01*
X102990000Y-95270000D01*
X102990000Y-92270000D01*
%TO.C,D21*%
X131940000Y-154130000D02*
X134440000Y-154130000D01*
X134440000Y-144410000D01*
X131940000Y-144410000D01*
X131940000Y-154130000D01*
%TO.C,C33*%
X168261701Y-29720018D02*
X175361701Y-29720018D01*
X175361701Y-32720018D01*
X168261701Y-32720018D01*
X168261701Y-29720018D01*
%TO.C,R64*%
X102770000Y-22750000D02*
X115030000Y-22750000D01*
X115030000Y-25750000D01*
X102770000Y-25750000D01*
X102770000Y-22750000D01*
%TO.C,D40*%
X57310000Y-154130000D02*
X59810000Y-154130000D01*
X59810000Y-144410000D01*
X57310000Y-144410000D01*
X57310000Y-154130000D01*
%TO.C,C137*%
X226805000Y-104360000D02*
X229805000Y-104360000D01*
X229805000Y-99760000D01*
X226805000Y-99760000D01*
X226805000Y-104360000D01*
%TO.C,C158*%
X32325113Y-68320000D02*
G75*
G02*
X26825113Y-68320000I-2750000J0D01*
G01*
X26825113Y-68320000D02*
G75*
G02*
X32325113Y-68320000I2750000J0D01*
G01*
%TO.C,C48*%
X166726814Y-37186048D02*
G75*
G02*
X161226814Y-37186048I-2750000J0D01*
G01*
X161226814Y-37186048D02*
G75*
G02*
X166726814Y-37186048I2750000J0D01*
G01*
%TO.C,R8*%
X131320000Y-26020000D02*
X128320000Y-26020000D01*
X128320000Y-35740000D01*
X131320000Y-35740000D01*
X131320000Y-26020000D01*
%TO.C,C63*%
X99940000Y-144260000D02*
X95340000Y-144260000D01*
X95340000Y-141160000D01*
X99940000Y-141160000D01*
X99940000Y-144260000D01*
%TO.C,U15*%
X102970000Y-81480000D02*
X112700000Y-81480000D01*
X112700000Y-92140000D01*
X102970000Y-92140000D01*
X102970000Y-81480000D01*
%TO.C,R222*%
X84147209Y-139970000D02*
X74427209Y-139970000D01*
X74427209Y-136970000D01*
X84147209Y-136970000D01*
X84147209Y-139970000D01*
%TO.C,R130*%
X137370000Y-93870000D02*
X127650000Y-93870000D01*
X127650000Y-90870000D01*
X137370000Y-90870000D01*
X137370000Y-93870000D01*
%TO.C,R214*%
X201320000Y-62060000D02*
X191600000Y-62060000D01*
X191600000Y-59060000D01*
X201320000Y-59060000D01*
X201320000Y-62060000D01*
%TO.C,R189*%
X44907709Y-121832500D02*
X47907709Y-121832500D01*
X47907709Y-112112500D01*
X44907709Y-112112500D01*
X44907709Y-121832500D01*
%TO.C,D47*%
X187460000Y-144410000D02*
X184960000Y-144410000D01*
X184960000Y-154130000D01*
X187460000Y-154130000D01*
X187460000Y-144410000D01*
%TO.C,R44*%
X90410000Y-25800000D02*
X102670000Y-25800000D01*
X102670000Y-28800000D01*
X90410000Y-28800000D01*
X90410000Y-25800000D01*
%TO.C,C121*%
X244945000Y-96040000D02*
X249545000Y-96040000D01*
X249545000Y-99140000D01*
X244945000Y-99140000D01*
X244945000Y-96040000D01*
%TO.C,R84*%
X100690000Y-108760000D02*
X110410000Y-108760000D01*
X110410000Y-111760000D01*
X100690000Y-111760000D01*
X100690000Y-108760000D01*
%TO.C,C55*%
X8930000Y-57168288D02*
X14030000Y-57168288D01*
X14030000Y-59668288D01*
X8930000Y-59668288D01*
X8930000Y-57168288D01*
%TO.C,R59*%
X102749134Y-10470000D02*
X115009134Y-10470000D01*
X115009134Y-13470000D01*
X102749134Y-13470000D01*
X102749134Y-10470000D01*
%TO.C,SW5*%
X420000Y-45863288D02*
X420000Y-52613288D01*
X420000Y-52613288D02*
X8820000Y-52613288D01*
X8820000Y-45863288D02*
X420000Y-45863288D01*
X8820000Y-52613288D02*
X8820000Y-45863288D01*
%TO.C,R164*%
X52660000Y-78415000D02*
X62380000Y-78415000D01*
X62380000Y-81415000D01*
X52660000Y-81415000D01*
X52660000Y-78415000D01*
%TO.C,C52*%
X14070000Y-38483288D02*
X8970000Y-38483288D01*
X8970000Y-35983288D01*
X14070000Y-35983288D01*
X14070000Y-38483288D01*
%TO.C,R219*%
X11920000Y-140120000D02*
X21640000Y-140120000D01*
X21640000Y-143120000D01*
X11920000Y-143120000D01*
X11920000Y-140120000D01*
%TO.C,SW7*%
X138039176Y-31705000D02*
X138039176Y-38455000D01*
X138039176Y-38455000D02*
X146439176Y-38455000D01*
X146439176Y-31705000D02*
X138039176Y-31705000D01*
X146439176Y-38455000D02*
X146439176Y-31705000D01*
%TO.C,C13*%
X125220983Y-133051528D02*
X128220983Y-133051528D01*
X128220983Y-125951528D01*
X125220983Y-125951528D01*
X125220983Y-133051528D01*
%TO.C,C32*%
X177341701Y-29720018D02*
X184441701Y-29720018D01*
X184441701Y-32720018D01*
X177341701Y-32720018D01*
X177341701Y-29720018D01*
%TO.C,D25*%
X194440000Y-154130000D02*
X196940000Y-154130000D01*
X196940000Y-144410000D01*
X194440000Y-144410000D01*
X194440000Y-154130000D01*
%TO.C,R144*%
X211940000Y-84450000D02*
X202220000Y-84450000D01*
X202220000Y-81450000D01*
X211940000Y-81450000D01*
X211940000Y-84450000D01*
%TO.C,C98*%
X189053702Y-128055777D02*
X186053702Y-128055777D01*
X186053702Y-135155777D01*
X189053702Y-135155777D01*
X189053702Y-128055777D01*
%TO.C,R104*%
X224980000Y-84600000D02*
X234700000Y-84600000D01*
X234700000Y-87600000D01*
X224980000Y-87600000D01*
X224980000Y-84600000D01*
%TO.C,R232*%
X240400000Y-139952842D02*
X230680000Y-139952842D01*
X230680000Y-136952842D01*
X240400000Y-136952842D01*
X240400000Y-139952842D01*
%TO.C,R203*%
X26270000Y-65110000D02*
X16550000Y-65110000D01*
X16550000Y-62110000D01*
X26270000Y-62110000D01*
X26270000Y-65110000D01*
%TO.C,D10*%
X30850000Y-52008920D02*
X30850000Y-58758920D01*
X30850000Y-58758920D02*
X39250000Y-58758920D01*
X39250000Y-52008920D02*
X30850000Y-52008920D01*
X39250000Y-58758920D02*
X39250000Y-52008920D01*
%TO.C,Q4*%
X99540000Y-68390000D02*
X99540000Y-73130000D01*
X99540000Y-68390000D02*
X105000000Y-68390000D01*
X105000000Y-73130000D02*
X99540000Y-73130000D01*
X105000000Y-73130000D02*
X105000000Y-68390000D01*
%TO.C,U24*%
X60550000Y-102410000D02*
X71210000Y-102410000D01*
X71210000Y-113190000D01*
X60550000Y-113190000D01*
X60550000Y-102410000D01*
%TO.C,SW8*%
X138029176Y-38775000D02*
X138029176Y-45525000D01*
X138029176Y-45525000D02*
X146429176Y-45525000D01*
X146429176Y-38775000D02*
X138029176Y-38775000D01*
X146429176Y-45525000D02*
X146429176Y-38775000D01*
%TO.C,R216*%
X233590000Y-62010000D02*
X223870000Y-62010000D01*
X223870000Y-59010000D01*
X233590000Y-59010000D01*
X233590000Y-62010000D01*
%TO.C,R190*%
X202260000Y-121630000D02*
X205260000Y-121630000D01*
X205260000Y-111910000D01*
X202260000Y-111910000D01*
X202260000Y-121630000D01*
%TO.C,C125*%
X112840000Y-90930000D02*
X117440000Y-90930000D01*
X117440000Y-94030000D01*
X112840000Y-94030000D01*
X112840000Y-90930000D01*
%TO.C,D56*%
X115550000Y-154130000D02*
X119650000Y-154130000D01*
X119650000Y-141070000D01*
X115550000Y-141070000D01*
X115550000Y-154130000D01*
%TO.C,D45*%
X156200000Y-144400000D02*
X153700000Y-144400000D01*
X153700000Y-154120000D01*
X156200000Y-154120000D01*
X156200000Y-144400000D01*
%TO.C,R53*%
X90420000Y-10470000D02*
X102680000Y-10470000D01*
X102680000Y-13470000D01*
X90420000Y-13470000D01*
X90420000Y-10470000D01*
%TO.C,R153*%
X178850000Y-63380000D02*
X175850000Y-63380000D01*
X175850000Y-73100000D01*
X178850000Y-73100000D01*
X178850000Y-63380000D01*
%TO.C,R20*%
X8930000Y-54018288D02*
X18650000Y-54018288D01*
X18650000Y-57018288D01*
X8930000Y-57018288D01*
X8930000Y-54018288D01*
%TO.C,C2*%
X80285677Y-121010000D02*
X87385677Y-121010000D01*
X87385677Y-124010000D01*
X80285677Y-124010000D01*
X80285677Y-121010000D01*
%TO.C,R106*%
X19795000Y-99070000D02*
X10075000Y-99070000D01*
X10075000Y-96070000D01*
X19795000Y-96070000D01*
X19795000Y-99070000D01*
%TO.C,R129*%
X99670000Y-90770000D02*
X89950000Y-90770000D01*
X89950000Y-87770000D01*
X99670000Y-87770000D01*
X99670000Y-90770000D01*
%TO.C,D26*%
X194290000Y-144410000D02*
X191790000Y-144410000D01*
X191790000Y-154130000D01*
X194290000Y-154130000D01*
X194290000Y-144410000D01*
%TO.C,R172*%
X52660000Y-84715000D02*
X62380000Y-84715000D01*
X62380000Y-87715000D01*
X52660000Y-87715000D01*
X52660000Y-84715000D01*
%TO.C,R204*%
X42340000Y-65110000D02*
X32620000Y-65110000D01*
X32620000Y-62110000D01*
X42340000Y-62110000D01*
X42340000Y-65110000D01*
%TO.C,D6*%
X30850000Y-41973920D02*
X30850000Y-48723920D01*
X30850000Y-48723920D02*
X39250000Y-48723920D01*
X39250000Y-41973920D02*
X30850000Y-41973920D01*
X39250000Y-48723920D02*
X39250000Y-41973920D01*
%TO.C,U20*%
X432720Y-4460000D02*
X63830000Y-4460000D01*
X432720Y-29820000D02*
X432720Y-4460000D01*
X63830000Y-4460000D02*
X63830000Y-29820000D01*
X63830000Y-29820000D02*
X432720Y-29820000D01*
%TO.C,D58*%
X178060000Y-154130000D02*
X182160000Y-154130000D01*
X182160000Y-141070000D01*
X178060000Y-141070000D01*
X178060000Y-154130000D01*
%TO.C,R208*%
X233590000Y-65010000D02*
X223870000Y-65010000D01*
X223870000Y-62010000D01*
X233590000Y-62010000D01*
X233590000Y-65010000D01*
%TO.C,U9*%
X223730000Y-280000D02*
X234230000Y-280000D01*
X234230000Y-5180000D01*
X223730000Y-5180000D01*
X223730000Y-280000D01*
%TO.C,C8*%
X238432605Y-9558299D02*
X231332605Y-9558299D01*
X231332605Y-6558299D01*
X238432605Y-6558299D01*
X238432605Y-9558299D01*
%TO.C,C107*%
X81950000Y-105730000D02*
X89050000Y-105730000D01*
X89050000Y-108730000D01*
X81950000Y-108730000D01*
X81950000Y-105730000D01*
%TO.C,R102*%
X150550000Y-84570000D02*
X160270000Y-84570000D01*
X160270000Y-87570000D01*
X150550000Y-87570000D01*
X150550000Y-84570000D01*
%TO.C,C146*%
X1420000Y-126800000D02*
X4520000Y-126800000D01*
X4520000Y-122200000D01*
X1420000Y-122200000D01*
X1420000Y-126800000D01*
%TO.C,R220*%
X52909341Y-139970000D02*
X43189341Y-139970000D01*
X43189341Y-136970000D01*
X52909341Y-136970000D01*
X52909341Y-139970000D01*
%TO.C,J5*%
X173675000Y-158500000D02*
X170075000Y-158500000D01*
X170075000Y-155500000D01*
X173675000Y-155500000D01*
X173675000Y-158500000D01*
D11*
X177875000Y-155500000D02*
X165875000Y-155500000D01*
X165875000Y-143300000D01*
X177875000Y-143300000D01*
X177875000Y-155500000D01*
%TO.C,R207*%
D10*
X217290000Y-65050000D02*
X207570000Y-65050000D01*
X207570000Y-62050000D01*
X217290000Y-62050000D01*
X217290000Y-65050000D01*
%TO.C,C103*%
X80060000Y-111570226D02*
G75*
G02*
X74560000Y-111570226I-2750000J0D01*
G01*
X74560000Y-111570226D02*
G75*
G02*
X80060000Y-111570226I2750000J0D01*
G01*
%TO.C,D23*%
X163192960Y-154130000D02*
X165692960Y-154130000D01*
X165692960Y-144410000D01*
X163192960Y-144410000D01*
X163192960Y-154130000D01*
%TO.C,R125*%
X25070000Y-90870000D02*
X15350000Y-90870000D01*
X15350000Y-87870000D01*
X25070000Y-87870000D01*
X25070000Y-90870000D01*
%TO.C,FB4*%
X230181701Y-35378145D02*
G75*
G02*
X222301701Y-35378145I-3940000J0D01*
G01*
X222301701Y-35378145D02*
G75*
G02*
X230181701Y-35378145I3940000J0D01*
G01*
%TO.C,C21*%
X170291701Y-17458299D02*
X177391701Y-17458299D01*
X177391701Y-20458299D01*
X170291701Y-20458299D01*
X170291701Y-17458299D01*
%TO.C,R158*%
X128114796Y-73230000D02*
X137834796Y-73230000D01*
X137834796Y-76230000D01*
X128114796Y-76230000D01*
X128114796Y-73230000D01*
%TO.C,R85*%
X110370000Y-117840000D02*
X100650000Y-117840000D01*
X100650000Y-114840000D01*
X110370000Y-114840000D01*
X110370000Y-117840000D01*
%TO.C,C84*%
X186053702Y-125065777D02*
X189053702Y-125065777D01*
X189053702Y-117965777D01*
X186053702Y-117965777D01*
X186053702Y-125065777D01*
%TO.C,C9*%
X80270000Y-117200000D02*
G75*
G02*
X74770000Y-117200000I-2750000J0D01*
G01*
X74770000Y-117200000D02*
G75*
G02*
X80270000Y-117200000I2750000J0D01*
G01*
%TO.C,R193*%
X239666374Y-121900000D02*
X242666374Y-121900000D01*
X242666374Y-112180000D01*
X239666374Y-112180000D01*
X239666374Y-121900000D01*
%TO.C,R186*%
X7330215Y-121760000D02*
X10330215Y-121760000D01*
X10330215Y-112040000D01*
X7330215Y-112040000D01*
X7330215Y-121760000D01*
%TO.C,R112*%
X109540000Y-81330000D02*
X99820000Y-81330000D01*
X99820000Y-78330000D01*
X109540000Y-78330000D01*
X109540000Y-81330000D01*
%TO.C,D11*%
X157980000Y-55595000D02*
X157980000Y-62345000D01*
X157980000Y-62345000D02*
X166380000Y-62345000D01*
X166380000Y-55595000D02*
X157980000Y-55595000D01*
X166380000Y-62345000D02*
X166380000Y-55595000D01*
%TO.C,FB3*%
X166640240Y-25178299D02*
G75*
G02*
X158760240Y-25178299I-3940000J0D01*
G01*
X158760240Y-25178299D02*
G75*
G02*
X166640240Y-25178299I3940000J0D01*
G01*
%TO.C,R132*%
X174710000Y-93870000D02*
X164990000Y-93870000D01*
X164990000Y-90870000D01*
X174710000Y-90870000D01*
X174710000Y-93870000D01*
%TO.C,R78*%
X111758449Y-120888458D02*
X102038449Y-120888458D01*
X102038449Y-117888458D01*
X111758449Y-117888458D01*
X111758449Y-120888458D01*
%TO.C,C175*%
X229970000Y-110000000D02*
X237070000Y-110000000D01*
X237070000Y-113000000D01*
X229970000Y-113000000D01*
X229970000Y-110000000D01*
%TO.C,R119*%
X224980000Y-87750000D02*
X234700000Y-87750000D01*
X234700000Y-90750000D01*
X224980000Y-90750000D01*
X224980000Y-87750000D01*
%TO.C,U16*%
X229950000Y-99290000D02*
X239680000Y-99290000D01*
X239680000Y-109950000D01*
X229950000Y-109950000D01*
X229950000Y-99290000D01*
%TO.C,R180*%
X42340000Y-71120000D02*
X32620000Y-71120000D01*
X32620000Y-68120000D01*
X42340000Y-68120000D01*
X42340000Y-71120000D01*
%TO.C,C113*%
X140900000Y-111790000D02*
X148000000Y-111790000D01*
X148000000Y-114790000D01*
X140900000Y-114790000D01*
X140900000Y-111790000D01*
%TO.C,C102*%
X79670000Y-130380000D02*
G75*
G02*
X74170000Y-130380000I-2750000J0D01*
G01*
X74170000Y-130380000D02*
G75*
G02*
X79670000Y-130380000I2750000J0D01*
G01*
%TO.C,U17*%
X195948088Y-29409493D02*
X205678088Y-29409493D01*
X205678088Y-40069493D01*
X195948088Y-40069493D01*
X195948088Y-29409493D01*
%TO.C,R81*%
X138240000Y-122961244D02*
X147960000Y-122961244D01*
X147960000Y-125961244D01*
X138240000Y-125961244D01*
X138240000Y-122961244D01*
%TO.C,R165*%
X89950000Y-78326640D02*
X99670000Y-78326640D01*
X99670000Y-81326640D01*
X89950000Y-81326640D01*
X89950000Y-78326640D01*
%TO.C,R97*%
X249545000Y-102290000D02*
X239825000Y-102290000D01*
X239825000Y-99290000D01*
X249545000Y-99290000D01*
X249545000Y-102290000D01*
%TO.C,R46*%
X78100000Y-19679449D02*
X90360000Y-19679449D01*
X90360000Y-22679449D01*
X78100000Y-22679449D01*
X78100000Y-19679449D01*
%TO.C,C169*%
X239530000Y-92950000D02*
G75*
G02*
X234030000Y-92950000I-2750000J0D01*
G01*
X234030000Y-92950000D02*
G75*
G02*
X239530000Y-92950000I2750000J0D01*
G01*
%TO.C,C119*%
X193010000Y-78170000D02*
X197610000Y-78170000D01*
X197610000Y-81270000D01*
X193010000Y-81270000D01*
X193010000Y-78170000D01*
%TO.C,R113*%
X112840000Y-87780000D02*
X122560000Y-87780000D01*
X122560000Y-90780000D01*
X112840000Y-90780000D01*
X112840000Y-87780000D01*
%TO.C,R174*%
X127650000Y-84570000D02*
X137370000Y-84570000D01*
X137370000Y-87570000D01*
X127650000Y-87570000D01*
X127650000Y-84570000D01*
%TO.C,K2*%
X17202500Y-121962500D02*
X17202500Y-134762500D01*
X17202500Y-121962500D02*
X25102500Y-121962500D01*
X25102500Y-134762500D02*
X17202500Y-134762500D01*
X25102500Y-134762500D02*
X25102500Y-121962500D01*
%TO.C,R28*%
X178375000Y-52335000D02*
X181375000Y-52335000D01*
X181375000Y-42615000D01*
X178375000Y-42615000D01*
X178375000Y-52335000D01*
%TO.C,J2*%
X142425000Y-158500000D02*
X138825000Y-158500000D01*
X138825000Y-155500000D01*
X142425000Y-155500000D01*
X142425000Y-158500000D01*
D11*
X146625000Y-155500000D02*
X134625000Y-155500000D01*
X134625000Y-143300000D01*
X146625000Y-143300000D01*
X146625000Y-155500000D01*
D10*
%TO.C,SW14*%
X48390000Y-71400000D02*
X48390000Y-78150000D01*
X48390000Y-78150000D02*
X64290000Y-78150000D01*
X64290000Y-71400000D02*
X48390000Y-71400000D01*
X64290000Y-78150000D02*
X64290000Y-71400000D01*
%TO.C,D38*%
X26050000Y-154130000D02*
X28550000Y-154130000D01*
X28550000Y-144410000D01*
X26050000Y-144410000D01*
X26050000Y-154130000D01*
%TO.C,C159*%
X28350000Y-92340000D02*
X35450000Y-92340000D01*
X35450000Y-95340000D01*
X28350000Y-95340000D01*
X28350000Y-92340000D01*
%TO.C,R17*%
X8970000Y-32833288D02*
X18690000Y-32833288D01*
X18690000Y-35833288D01*
X8970000Y-35833288D01*
X8970000Y-32833288D01*
%TO.C,R50*%
X90423287Y-19676713D02*
X102683287Y-19676713D01*
X102683287Y-22676713D01*
X90423287Y-22676713D01*
X90423287Y-19676713D01*
%TO.C,R142*%
X137370000Y-84420000D02*
X127650000Y-84420000D01*
X127650000Y-81420000D01*
X137370000Y-81420000D01*
X137370000Y-84420000D01*
%TO.C,R93*%
X122570000Y-84480000D02*
X112850000Y-84480000D01*
X112850000Y-81480000D01*
X122570000Y-81480000D01*
X122570000Y-84480000D01*
%TO.C,R79*%
X111756337Y-125958458D02*
X102036337Y-125958458D01*
X102036337Y-122958458D01*
X111756337Y-122958458D01*
X111756337Y-125958458D01*
%TO.C,R128*%
X99670000Y-93920000D02*
X89950000Y-93920000D01*
X89950000Y-90920000D01*
X99670000Y-90920000D01*
X99670000Y-93920000D01*
%TO.C,J8*%
X111175000Y-158500000D02*
X107575000Y-158500000D01*
X107575000Y-155500000D01*
X111175000Y-155500000D01*
X111175000Y-158500000D01*
D11*
X115375000Y-155500000D02*
X103375000Y-155500000D01*
X103375000Y-143300000D01*
X115375000Y-143300000D01*
X115375000Y-155500000D01*
%TO.C,R100*%
D10*
X75570000Y-84725000D02*
X85290000Y-84725000D01*
X85290000Y-87725000D01*
X75570000Y-87725000D01*
X75570000Y-84725000D01*
%TO.C,R40*%
X241001701Y-44380272D02*
X231281701Y-44380272D01*
X231281701Y-41380272D01*
X241001701Y-41380272D01*
X241001701Y-44380272D01*
%TO.C,C172*%
X117690000Y-81330000D02*
X110590000Y-81330000D01*
X110590000Y-78330000D01*
X117690000Y-78330000D01*
X117690000Y-81330000D01*
%TO.C,R24*%
X146689176Y-54020000D02*
X156409176Y-54020000D01*
X156409176Y-57020000D01*
X146689176Y-57020000D01*
X146689176Y-54020000D01*
%TO.C,K5*%
X200002500Y-121792500D02*
X200002500Y-134592500D01*
X200002500Y-121792500D02*
X207902500Y-121792500D01*
X207902500Y-134592500D02*
X200002500Y-134592500D01*
X207902500Y-134592500D02*
X207902500Y-121792500D01*
%TO.C,R42*%
X102680000Y-19618483D02*
X90420000Y-19618483D01*
X90420000Y-16618483D01*
X102680000Y-16618483D01*
X102680000Y-19618483D01*
%TO.C,C148*%
X26490000Y-126830000D02*
X29590000Y-126830000D01*
X29590000Y-122230000D01*
X26490000Y-122230000D01*
X26490000Y-126830000D01*
%TO.C,R116*%
X184580000Y-81270000D02*
X174860000Y-81270000D01*
X174860000Y-78270000D01*
X184580000Y-78270000D01*
X184580000Y-81270000D01*
%TO.C,D55*%
X84300000Y-154130000D02*
X88400000Y-154130000D01*
X88400000Y-141070000D01*
X84300000Y-141070000D01*
X84300000Y-154130000D01*
%TO.C,R91*%
X47940000Y-84570000D02*
X38220000Y-84570000D01*
X38220000Y-81570000D01*
X47940000Y-81570000D01*
X47940000Y-84570000D01*
%TO.C,C95*%
X59980000Y-122797016D02*
X56980000Y-122797016D01*
X56980000Y-130297016D01*
X59980000Y-130297016D01*
X59980000Y-122797016D01*
%TO.C,R178*%
X10200000Y-90450000D02*
X480000Y-90450000D01*
X480000Y-87450000D01*
X10200000Y-87450000D01*
X10200000Y-90450000D01*
%TO.C,R230*%
X208993449Y-139980000D02*
X199273449Y-139980000D01*
X199273449Y-136980000D01*
X208993449Y-136980000D01*
X208993449Y-139980000D01*
%TO.C,D41*%
X93700000Y-144410000D02*
X91200000Y-144410000D01*
X91200000Y-154130000D01*
X93700000Y-154130000D01*
X93700000Y-144410000D01*
%TO.C,R155*%
X80530000Y-73280000D02*
X90250000Y-73280000D01*
X90250000Y-76280000D01*
X80530000Y-76280000D01*
X80530000Y-73280000D01*
%TO.C,C6*%
X238377550Y-13969799D02*
G75*
G02*
X229877550Y-13969799I-4250000J0D01*
G01*
X229877550Y-13969799D02*
G75*
G02*
X238377550Y-13969799I4250000J0D01*
G01*
%TO.C,J1*%
X17425000Y-158500000D02*
X13825000Y-158500000D01*
X13825000Y-155500000D01*
X17425000Y-155500000D01*
X17425000Y-158500000D01*
D11*
X21625000Y-155500000D02*
X9625000Y-155500000D01*
X9625000Y-143300000D01*
X21625000Y-143300000D01*
X21625000Y-155500000D01*
%TO.C,C26*%
D10*
X216223993Y-16478299D02*
X209123993Y-16478299D01*
X209123993Y-13478299D01*
X216223993Y-13478299D01*
X216223993Y-16478299D01*
%TO.C,R228*%
X177910203Y-139970000D02*
X168190203Y-139970000D01*
X168190203Y-136970000D01*
X177910203Y-136970000D01*
X177910203Y-139970000D01*
%TO.C,C101*%
X175082465Y-105416542D02*
X172082465Y-105416542D01*
X172082465Y-112916542D01*
X175082465Y-112916542D01*
X175082465Y-105416542D01*
%TO.C,C88*%
X129750000Y-100100000D02*
X122650000Y-100100000D01*
X122650000Y-97100000D01*
X129750000Y-97100000D01*
X129750000Y-100100000D01*
%TO.C,R70*%
X63630000Y-154130000D02*
X66630000Y-154130000D01*
X66630000Y-144410000D01*
X63630000Y-144410000D01*
X63630000Y-154130000D01*
%TO.C,R109*%
X38220000Y-87880000D02*
X47940000Y-87880000D01*
X47940000Y-90880000D01*
X38220000Y-90880000D01*
X38220000Y-87880000D01*
%TO.C,R69*%
X219890000Y-154130000D02*
X222890000Y-154130000D01*
X222890000Y-144410000D01*
X219890000Y-144410000D01*
X219890000Y-154130000D01*
%TO.C,C1*%
X87490000Y-126824888D02*
G75*
G02*
X81990000Y-126824888I-2750000J0D01*
G01*
X81990000Y-126824888D02*
G75*
G02*
X87490000Y-126824888I2750000J0D01*
G01*
%TO.C,D39*%
X62460000Y-144410000D02*
X59960000Y-144410000D01*
X59960000Y-154130000D01*
X62460000Y-154130000D01*
X62460000Y-144410000D01*
%TO.C,R6*%
X222625657Y-16185587D02*
X225625657Y-16185587D01*
X225625657Y-6465587D01*
X222625657Y-6465587D01*
X222625657Y-16185587D01*
%TO.C,R218*%
X21640000Y-139970000D02*
X11920000Y-139970000D01*
X11920000Y-136970000D01*
X21640000Y-136970000D01*
X21640000Y-139970000D01*
%TO.C,R197*%
X58370000Y-68110000D02*
X48650000Y-68110000D01*
X48650000Y-65110000D01*
X58370000Y-65110000D01*
X58370000Y-68110000D01*
%TO.C,D44*%
X119805010Y-154130000D02*
X122305010Y-154130000D01*
X122305010Y-144410000D01*
X119805010Y-144410000D01*
X119805010Y-154130000D01*
%TO.C,C122*%
X27705000Y-111770000D02*
X23105000Y-111770000D01*
X23105000Y-108670000D01*
X27705000Y-108670000D01*
X27705000Y-111770000D01*
%TO.C,D27*%
X225687004Y-154130000D02*
X228187004Y-154130000D01*
X228187004Y-144410000D01*
X225687004Y-144410000D01*
X225687004Y-154130000D01*
%TO.C,C50*%
X91300000Y-53870000D02*
G75*
G02*
X85800000Y-53870000I-2750000J0D01*
G01*
X85800000Y-53870000D02*
G75*
G02*
X91300000Y-53870000I2750000J0D01*
G01*
%TO.C,C115*%
X43340000Y-78330000D02*
X47940000Y-78330000D01*
X47940000Y-81430000D01*
X43340000Y-81430000D01*
X43340000Y-78330000D01*
%TO.C,D50*%
X213560000Y-154150000D02*
X216060000Y-154150000D01*
X216060000Y-144430000D01*
X213560000Y-144430000D01*
X213560000Y-154150000D01*
%TO.C,D30*%
X17202500Y-121804203D02*
X19702500Y-121804203D01*
X19702500Y-112084203D01*
X17202500Y-112084203D01*
X17202500Y-121804203D01*
%TO.C,R29*%
X27570000Y-58798920D02*
X30570000Y-58798920D01*
X30570000Y-49078920D01*
X27570000Y-49078920D01*
X27570000Y-58798920D01*
%TO.C,D35*%
X224502500Y-121902345D02*
X227002500Y-121902345D01*
X227002500Y-112182345D01*
X224502500Y-112182345D01*
X224502500Y-121902345D01*
%TO.C,C14*%
X155403867Y-81270000D02*
X148303867Y-81270000D01*
X148303867Y-78270000D01*
X155403867Y-78270000D01*
X155403867Y-81270000D01*
%TO.C,R171*%
X15350000Y-84720000D02*
X25070000Y-84720000D01*
X25070000Y-87720000D01*
X15350000Y-87720000D01*
X15350000Y-84720000D01*
%TO.C,R87*%
X129890005Y-117820000D02*
X120170005Y-117820000D01*
X120170005Y-114820000D01*
X129890005Y-114820000D01*
X129890005Y-117820000D01*
%TO.C,R83*%
X90900000Y-111700000D02*
X81180000Y-111700000D01*
X81180000Y-108700000D01*
X90900000Y-108700000D01*
X90900000Y-111700000D01*
%TO.C,D36*%
X237013783Y-121900000D02*
X239513783Y-121900000D01*
X239513783Y-112180000D01*
X237013783Y-112180000D01*
X237013783Y-121900000D01*
%TO.C,R195*%
X26270000Y-68110000D02*
X16550000Y-68110000D01*
X16550000Y-65110000D01*
X26270000Y-65110000D01*
X26270000Y-68110000D01*
%TO.C,K8*%
X237412500Y-122052500D02*
X237412500Y-134852500D01*
X237412500Y-122052500D02*
X245312500Y-122052500D01*
X245312500Y-134852500D02*
X237412500Y-134852500D01*
X245312500Y-134852500D02*
X245312500Y-122052500D01*
%TO.C,R35*%
X78100000Y-7410000D02*
X90360000Y-7410000D01*
X90360000Y-10410000D01*
X78100000Y-10410000D01*
X78100000Y-7410000D01*
%TO.C,C92*%
X129695113Y-102910000D02*
G75*
G02*
X124195113Y-102910000I-2750000J0D01*
G01*
X124195113Y-102910000D02*
G75*
G02*
X129695113Y-102910000I2750000J0D01*
G01*
%TO.C,J9*%
X236175000Y-158500000D02*
X232575000Y-158500000D01*
X232575000Y-155500000D01*
X236175000Y-155500000D01*
X236175000Y-158500000D01*
D11*
X240375000Y-155500000D02*
X228375000Y-155500000D01*
X228375000Y-143300000D01*
X240375000Y-143300000D01*
X240375000Y-155500000D01*
%TO.C,C64*%
D10*
X6190000Y-144260000D02*
X1590000Y-144260000D01*
X1590000Y-141160000D01*
X6190000Y-141160000D01*
X6190000Y-144260000D01*
%TO.C,R217*%
X246410000Y-88150000D02*
X249410000Y-88150000D01*
X249410000Y-78430000D01*
X246410000Y-78430000D01*
X246410000Y-88150000D01*
%TO.C,C112*%
X147990000Y-108760000D02*
X140890000Y-108760000D01*
X140890000Y-105760000D01*
X147990000Y-105760000D01*
X147990000Y-108760000D01*
%TO.C,C41*%
X195808088Y-27417573D02*
X192808088Y-27417573D01*
X192808088Y-34517573D01*
X195808088Y-34517573D01*
X195808088Y-27417573D01*
%TO.C,R89*%
X149350000Y-117820000D02*
X139630000Y-117820000D01*
X139630000Y-114820000D01*
X149350000Y-114820000D01*
X149350000Y-117820000D01*
%TO.C,U11*%
X65695000Y-81575000D02*
X75425000Y-81575000D01*
X75425000Y-92235000D01*
X65695000Y-92235000D01*
X65695000Y-81575000D01*
%TO.C,D3*%
X228771701Y-20396920D02*
X218451701Y-20396920D01*
X218451701Y-17196920D01*
X228771701Y-17196920D01*
X228771701Y-20396920D01*
%TO.C,C132*%
X62550000Y-86645000D02*
X65550000Y-86645000D01*
X65550000Y-82045000D01*
X62550000Y-82045000D01*
X62550000Y-86645000D01*
%TO.C,C151*%
X209160000Y-126690000D02*
X212260000Y-126690000D01*
X212260000Y-122090000D01*
X209160000Y-122090000D01*
X209160000Y-126690000D01*
%TO.C,C86*%
X90758220Y-100110000D02*
X83658220Y-100110000D01*
X83658220Y-97110000D01*
X90758220Y-97110000D01*
X90758220Y-100110000D01*
%TO.C,C24*%
X178030000Y-92230000D02*
X185130000Y-92230000D01*
X185130000Y-95230000D01*
X178030000Y-95230000D01*
X178030000Y-92230000D01*
%TO.C,C17*%
X133940000Y-41040000D02*
X136440000Y-41040000D01*
X136440000Y-35940000D01*
X133940000Y-35940000D01*
X133940000Y-41040000D01*
%TO.C,R173*%
X89950000Y-84620000D02*
X99670000Y-84620000D01*
X99670000Y-87620000D01*
X89950000Y-87620000D01*
X89950000Y-84620000D01*
%TO.C,Q6*%
X131270000Y-68340000D02*
X131270000Y-73080000D01*
X131270000Y-68340000D02*
X136730000Y-68340000D01*
X136730000Y-73080000D02*
X131270000Y-73080000D01*
X136730000Y-73080000D02*
X136730000Y-68340000D01*
%TO.C,R169*%
X216935000Y-96140000D02*
X226655000Y-96140000D01*
X226655000Y-99140000D01*
X216935000Y-99140000D01*
X216935000Y-96140000D01*
%TO.C,C134*%
X137520000Y-86490000D02*
X140520000Y-86490000D01*
X140520000Y-81890000D01*
X137520000Y-81890000D01*
X137520000Y-86490000D01*
%TO.C,R14*%
X85270000Y-41040000D02*
X75550000Y-41040000D01*
X75550000Y-38040000D01*
X85270000Y-38040000D01*
X85270000Y-41040000D01*
%TO.C,D46*%
X151050000Y-154120000D02*
X153550000Y-154120000D01*
X153550000Y-144400000D01*
X151050000Y-144400000D01*
X151050000Y-154120000D01*
%TO.C,U7*%
X178010000Y-81420000D02*
X187740000Y-81420000D01*
X187740000Y-92080000D01*
X178010000Y-92080000D01*
X178010000Y-81420000D01*
%TO.C,R47*%
X78100000Y-22740000D02*
X90360000Y-22740000D01*
X90360000Y-25740000D01*
X78100000Y-25740000D01*
X78100000Y-22740000D01*
%TO.C,C152*%
X221660000Y-126960000D02*
X224760000Y-126960000D01*
X224760000Y-122360000D01*
X221660000Y-122360000D01*
X221660000Y-126960000D01*
%TO.C,R66*%
X32390000Y-154130000D02*
X35390000Y-154130000D01*
X35390000Y-144410000D01*
X32390000Y-144410000D01*
X32390000Y-154130000D01*
%TO.C,R126*%
X62390000Y-93945000D02*
X52670000Y-93945000D01*
X52670000Y-90945000D01*
X62390000Y-90945000D01*
X62390000Y-93945000D01*
%TO.C,D60*%
X240553034Y-154130000D02*
X244653034Y-154130000D01*
X244653034Y-141070000D01*
X240553034Y-141070000D01*
X240553034Y-154130000D01*
%TO.C,C136*%
X212090000Y-86516276D02*
X215090000Y-86516276D01*
X215090000Y-81916276D01*
X212090000Y-81916276D01*
X212090000Y-86516276D01*
%TO.C,C124*%
X75570000Y-91035000D02*
X80170000Y-91035000D01*
X80170000Y-94135000D01*
X75570000Y-94135000D01*
X75570000Y-91035000D01*
%TO.C,C173*%
X123110000Y-93740000D02*
G75*
G02*
X117610000Y-93740000I-2750000J0D01*
G01*
X117610000Y-93740000D02*
G75*
G02*
X123110000Y-93740000I2750000J0D01*
G01*
%TO.C,R167*%
X164990000Y-78270000D02*
X174710000Y-78270000D01*
X174710000Y-81270000D01*
X164990000Y-81270000D01*
X164990000Y-78270000D01*
%TO.C,K3*%
X29732500Y-121942500D02*
X29732500Y-134742500D01*
X29732500Y-121942500D02*
X37632500Y-121942500D01*
X37632500Y-134742500D02*
X29732500Y-134742500D01*
X37632500Y-134742500D02*
X37632500Y-121942500D01*
%TO.C,C111*%
X121440005Y-111800000D02*
X128540005Y-111800000D01*
X128540005Y-114800000D01*
X121440005Y-114800000D01*
X121440005Y-111800000D01*
%TO.C,D16*%
X38040000Y-144410000D02*
X35540000Y-144410000D01*
X35540000Y-154130000D01*
X38040000Y-154130000D01*
X38040000Y-144410000D01*
%TO.C,R72*%
X157390000Y-154130000D02*
X160390000Y-154130000D01*
X160390000Y-144410000D01*
X157390000Y-144410000D01*
X157390000Y-154130000D01*
%TO.C,R148*%
X99380000Y-63410000D02*
X96380000Y-63410000D01*
X96380000Y-73130000D01*
X99380000Y-73130000D01*
X99380000Y-63410000D01*
%TO.C,D12*%
X169820000Y-55630000D02*
X169820000Y-62380000D01*
X169820000Y-62380000D02*
X178220000Y-62380000D01*
X178220000Y-55630000D02*
X169820000Y-55630000D01*
X178220000Y-62380000D02*
X178220000Y-55630000D01*
%TO.C,C81*%
X194762465Y-105436542D02*
G75*
G02*
X189262465Y-105436542I-2750000J0D01*
G01*
X189262465Y-105436542D02*
G75*
G02*
X194762465Y-105436542I2750000J0D01*
G01*
%TO.C,R196*%
X42340000Y-68110000D02*
X32620000Y-68110000D01*
X32620000Y-65110000D01*
X42340000Y-65110000D01*
X42340000Y-68110000D01*
%TO.C,R115*%
X150550000Y-87720000D02*
X160270000Y-87720000D01*
X160270000Y-90720000D01*
X150550000Y-90720000D01*
X150550000Y-87720000D01*
%TO.C,R181*%
X58370000Y-71120000D02*
X48650000Y-71120000D01*
X48650000Y-68120000D01*
X58370000Y-68120000D01*
X58370000Y-71120000D01*
%TO.C,C116*%
X80690000Y-78325000D02*
X85290000Y-78325000D01*
X85290000Y-81425000D01*
X80690000Y-81425000D01*
X80690000Y-78325000D01*
%TO.C,Q1*%
X178391701Y-378299D02*
X188891701Y-378299D01*
X188891701Y-5278299D01*
X178391701Y-5278299D01*
X178391701Y-378299D01*
%TO.C,C163*%
X65700000Y-92360000D02*
X72800000Y-92360000D01*
X72800000Y-95360000D01*
X65700000Y-95360000D01*
X65700000Y-92360000D01*
%TO.C,R114*%
X147240000Y-81270000D02*
X137520000Y-81270000D01*
X137520000Y-78270000D01*
X147240000Y-78270000D01*
X147240000Y-81270000D01*
%TO.C,C25*%
X128820000Y-35924222D02*
X126320000Y-35924222D01*
X126320000Y-41024222D01*
X128820000Y-41024222D01*
X128820000Y-35924222D01*
%TO.C,C70*%
X98778449Y-122488458D02*
X101878449Y-122488458D01*
X101878449Y-117888458D01*
X98778449Y-117888458D01*
X98778449Y-122488458D01*
%TO.C,C36*%
X176801701Y-38705178D02*
G75*
G02*
X168301701Y-38705178I-4250000J0D01*
G01*
X168301701Y-38705178D02*
G75*
G02*
X176801701Y-38705178I4250000J0D01*
G01*
%TO.C,R18*%
X8970000Y-39888288D02*
X18690000Y-39888288D01*
X18690000Y-42888288D01*
X8970000Y-42888288D01*
X8970000Y-39888288D01*
%TO.C,R23*%
X146589176Y-46950000D02*
X156309176Y-46950000D01*
X156309176Y-49950000D01*
X146589176Y-49950000D01*
X146589176Y-46950000D01*
%TO.C,R202*%
X10200000Y-84440000D02*
X480000Y-84440000D01*
X480000Y-81440000D01*
X10200000Y-81440000D01*
X10200000Y-84440000D01*
%TO.C,C51*%
X85740000Y-51400000D02*
X82740000Y-51400000D01*
X82740000Y-58500000D01*
X85740000Y-58500000D01*
X85740000Y-51400000D01*
%TO.C,C43*%
X164169432Y-14498299D02*
G75*
G02*
X158669432Y-14498299I-2750000J0D01*
G01*
X158669432Y-14498299D02*
G75*
G02*
X164169432Y-14498299I2750000J0D01*
G01*
%TO.C,R127*%
X62380000Y-90865000D02*
X52660000Y-90865000D01*
X52660000Y-87865000D01*
X62380000Y-87865000D01*
X62380000Y-90865000D01*
%TO.C,R94*%
X160270000Y-84420000D02*
X150550000Y-84420000D01*
X150550000Y-81420000D01*
X160270000Y-81420000D01*
X160270000Y-84420000D01*
%TO.C,F2*%
X189691701Y-2626543D02*
X189691701Y-6126543D01*
X189691701Y-6126543D02*
X197291701Y-6126543D01*
X197291701Y-2626543D02*
X189691701Y-2626543D01*
X197291701Y-6126543D02*
X197291701Y-2626543D01*
%TO.C,R233*%
X230680000Y-140114760D02*
X240400000Y-140114760D01*
X240400000Y-143114760D01*
X230680000Y-143114760D01*
X230680000Y-140114760D01*
%TO.C,D48*%
X182310000Y-154130000D02*
X184810000Y-154130000D01*
X184810000Y-144410000D01*
X182310000Y-144410000D01*
X182310000Y-154130000D01*
%TO.C,J6*%
X79925000Y-158500000D02*
X76325000Y-158500000D01*
X76325000Y-155500000D01*
X79925000Y-155500000D01*
X79925000Y-158500000D01*
D11*
X84125000Y-155500000D02*
X72125000Y-155500000D01*
X72125000Y-143300000D01*
X84125000Y-143300000D01*
X84125000Y-155500000D01*
%TO.C,U19*%
D10*
X59230000Y-61130000D02*
X82590000Y-61130000D01*
X82590000Y-51400000D01*
X59230000Y-51400000D01*
X59230000Y-61130000D01*
%TO.C,C31*%
X175200000Y-96700000D02*
G75*
G02*
X169700000Y-96700000I-2750000J0D01*
G01*
X169700000Y-96700000D02*
G75*
G02*
X175200000Y-96700000I2750000J0D01*
G01*
%TO.C,Q7*%
X147150000Y-68340000D02*
X147150000Y-73080000D01*
X147150000Y-68340000D02*
X152610000Y-68340000D01*
X152610000Y-73080000D02*
X147150000Y-73080000D01*
X152610000Y-73080000D02*
X152610000Y-68340000D01*
%TO.C,R43*%
X78090000Y-25800000D02*
X90350000Y-25800000D01*
X90350000Y-28800000D01*
X78090000Y-28800000D01*
X78090000Y-25800000D01*
%TO.C,R143*%
X174710000Y-84420000D02*
X164990000Y-84420000D01*
X164990000Y-81420000D01*
X174710000Y-81420000D01*
X174710000Y-84420000D01*
%TO.C,R168*%
X202220000Y-78300000D02*
X211940000Y-78300000D01*
X211940000Y-81300000D01*
X202220000Y-81300000D01*
X202220000Y-78300000D01*
%TO.C,C106*%
X89050000Y-114750000D02*
X81950000Y-114750000D01*
X81950000Y-111750000D01*
X89050000Y-111750000D01*
X89050000Y-114750000D01*
%TO.C,R209*%
X243380000Y-88160000D02*
X246380000Y-88160000D01*
X246380000Y-78440000D01*
X243380000Y-78440000D01*
X243380000Y-88160000D01*
%TO.C,D59*%
X209305734Y-154145734D02*
X213405734Y-154145734D01*
X213405734Y-141085734D01*
X209305734Y-141085734D01*
X209305734Y-154145734D01*
%TO.C,D33*%
X199610000Y-121630000D02*
X202110000Y-121630000D01*
X202110000Y-111910000D01*
X199610000Y-111910000D01*
X199610000Y-121630000D01*
%TO.C,D20*%
X100540000Y-144410000D02*
X98040000Y-144410000D01*
X98040000Y-154130000D01*
X100540000Y-154130000D01*
X100540000Y-144410000D01*
%TO.C,C145*%
X242820000Y-121900000D02*
X245320000Y-121900000D01*
X245320000Y-116800000D01*
X242820000Y-116800000D01*
X242820000Y-121900000D01*
%TO.C,D32*%
X42257709Y-121832500D02*
X44757709Y-121832500D01*
X44757709Y-112112500D01*
X42257709Y-112112500D01*
X42257709Y-121832500D01*
%TO.C,D24*%
X163040000Y-144410000D02*
X160540000Y-144410000D01*
X160540000Y-154130000D01*
X163040000Y-154130000D01*
X163040000Y-144410000D01*
%TO.C,C165*%
X70750000Y-98350000D02*
G75*
G02*
X65250000Y-98350000I-2750000J0D01*
G01*
X65250000Y-98350000D02*
G75*
G02*
X70750000Y-98350000I2750000J0D01*
G01*
%TO.C,D7*%
X157965000Y-45580000D02*
X157965000Y-52330000D01*
X157965000Y-52330000D02*
X166365000Y-52330000D01*
X166365000Y-45580000D02*
X157965000Y-45580000D01*
X166365000Y-52330000D02*
X166365000Y-45580000D01*
%TO.C,C117*%
X117970000Y-78220000D02*
X122570000Y-78220000D01*
X122570000Y-81320000D01*
X117970000Y-81320000D01*
X117970000Y-78220000D01*
%TO.C,D18*%
X69280000Y-144410000D02*
X66780000Y-144410000D01*
X66780000Y-154130000D01*
X69280000Y-154130000D01*
X69280000Y-144410000D01*
%TO.C,C69*%
X224930000Y-144260000D02*
X220330000Y-144260000D01*
X220330000Y-141160000D01*
X224930000Y-141160000D01*
X224930000Y-144260000D01*
%TO.C,D34*%
X211989407Y-121632500D02*
X214489407Y-121632500D01*
X214489407Y-111912500D01*
X211989407Y-111912500D01*
X211989407Y-121632500D01*
%TO.C,R45*%
X78098975Y-16620000D02*
X90358975Y-16620000D01*
X90358975Y-19620000D01*
X78098975Y-19620000D01*
X78098975Y-16620000D01*
%TO.C,C91*%
X110200000Y-102870000D02*
G75*
G02*
X104700000Y-102870000I-2750000J0D01*
G01*
X104700000Y-102870000D02*
G75*
G02*
X110200000Y-102870000I2750000J0D01*
G01*
%TO.C,C11*%
X113370000Y-41040000D02*
X116370000Y-41040000D01*
X116370000Y-33940000D01*
X113370000Y-33940000D01*
X113370000Y-41040000D01*
%TO.C,R215*%
X217290000Y-62050000D02*
X207570000Y-62050000D01*
X207570000Y-59050000D01*
X217290000Y-59050000D01*
X217290000Y-62050000D01*
%TO.C,C23*%
X198040000Y-93520000D02*
G75*
G02*
X192540000Y-93520000I-2750000J0D01*
G01*
X192540000Y-93520000D02*
G75*
G02*
X198040000Y-93520000I2750000J0D01*
G01*
%TO.C,C66*%
X193690000Y-144260000D02*
X189090000Y-144260000D01*
X189090000Y-141160000D01*
X193690000Y-141160000D01*
X193690000Y-144260000D01*
%TO.C,R183*%
X217290000Y-71050000D02*
X207570000Y-71050000D01*
X207570000Y-68050000D01*
X217290000Y-68050000D01*
X217290000Y-71050000D01*
%TO.C,C20*%
X131368183Y-35931817D02*
X128868183Y-35931817D01*
X128868183Y-41031817D01*
X131368183Y-41031817D01*
X131368183Y-35931817D01*
%TO.C,C153*%
X234320000Y-126950982D02*
X237420000Y-126950982D01*
X237420000Y-122350982D01*
X234320000Y-122350982D01*
X234320000Y-126950982D01*
%TO.C,R231*%
X199270000Y-140130000D02*
X208990000Y-140130000D01*
X208990000Y-143130000D01*
X199270000Y-143130000D01*
X199270000Y-140130000D01*
%TO.C,C72*%
X148120000Y-122930142D02*
X151220000Y-122930142D01*
X151220000Y-118330142D01*
X148120000Y-118330142D01*
X148120000Y-122930142D01*
%TO.C,C83*%
X71360000Y-107580000D02*
X74360000Y-107580000D01*
X74360000Y-100480000D01*
X71360000Y-100480000D01*
X71360000Y-107580000D01*
%TO.C,Q5*%
X115405000Y-68415000D02*
X115405000Y-73155000D01*
X115405000Y-68415000D02*
X120865000Y-68415000D01*
X120865000Y-73155000D02*
X115405000Y-73155000D01*
X120865000Y-73155000D02*
X120865000Y-68415000D01*
%TO.C,R192*%
X227152500Y-121899613D02*
X230152500Y-121899613D01*
X230152500Y-112179613D01*
X227152500Y-112179613D01*
X227152500Y-121899613D01*
%TO.C,R151*%
X146990000Y-63360000D02*
X143990000Y-63360000D01*
X143990000Y-73080000D01*
X146990000Y-73080000D01*
X146990000Y-63360000D01*
%TO.C,C71*%
X98788449Y-132648458D02*
X101888449Y-132648458D01*
X101888449Y-128048458D01*
X98788449Y-128048458D01*
X98788449Y-132648458D01*
%TO.C,D15*%
X38190000Y-154130000D02*
X40690000Y-154130000D01*
X40690000Y-144410000D01*
X38190000Y-144410000D01*
X38190000Y-154130000D01*
%TO.C,C140*%
X35542500Y-121804026D02*
X38042500Y-121804026D01*
X38042500Y-116704026D01*
X35542500Y-116704026D01*
X35542500Y-121804026D01*
%TO.C,R139*%
X25060000Y-84570000D02*
X15340000Y-84570000D01*
X15340000Y-81570000D01*
X25060000Y-81570000D01*
X25060000Y-84570000D01*
%TO.C,C59*%
X146689176Y-57170000D02*
X151789176Y-57170000D01*
X151789176Y-59670000D01*
X146689176Y-59670000D01*
X146689176Y-57170000D01*
%TO.C,R19*%
X8970000Y-46963288D02*
X18690000Y-46963288D01*
X18690000Y-49963288D01*
X8970000Y-49963288D01*
X8970000Y-46963288D01*
%TO.C,R7*%
X134475000Y-26020000D02*
X131475000Y-26020000D01*
X131475000Y-35740000D01*
X134475000Y-35740000D01*
X134475000Y-26020000D01*
%TO.C,SW12*%
X16290000Y-71400000D02*
X16290000Y-78150000D01*
X16290000Y-78150000D02*
X32190000Y-78150000D01*
X32190000Y-71400000D02*
X16290000Y-71400000D01*
X32190000Y-78150000D02*
X32190000Y-71400000D01*
%TO.C,C105*%
X194762467Y-112985113D02*
G75*
G02*
X189262467Y-112985113I-2750000J0D01*
G01*
X189262467Y-112985113D02*
G75*
G02*
X194762467Y-112985113I2750000J0D01*
G01*
%TO.C,D42*%
X88550000Y-154123846D02*
X91050000Y-154123846D01*
X91050000Y-144403846D01*
X88550000Y-144403846D01*
X88550000Y-154123846D01*
%TO.C,C16*%
X179091701Y-11714747D02*
G75*
G02*
X168591701Y-11714747I-5250000J0D01*
G01*
X168591701Y-11714747D02*
G75*
G02*
X179091701Y-11714747I5250000J0D01*
G01*
%TO.C,R105*%
X239825000Y-102440000D02*
X249545000Y-102440000D01*
X249545000Y-105440000D01*
X239825000Y-105440000D01*
X239825000Y-102440000D01*
%TO.C,U29*%
X149360000Y-97080000D02*
X159090000Y-97080000D01*
X159090000Y-115380000D01*
X149360000Y-115380000D01*
X149360000Y-97080000D01*
%TO.C,U22*%
X60150000Y-119930000D02*
X70810000Y-119930000D01*
X70810000Y-130710000D01*
X60150000Y-130710000D01*
X60150000Y-119930000D01*
%TO.C,R199*%
X217290000Y-68050000D02*
X207570000Y-68050000D01*
X207570000Y-65050000D01*
X217290000Y-65050000D01*
X217290000Y-68050000D01*
%TO.C,C154*%
X27950000Y-99070000D02*
X20850000Y-99070000D01*
X20850000Y-96070000D01*
X27950000Y-96070000D01*
X27950000Y-99070000D01*
%TO.C,SW3*%
X420000Y-31748288D02*
X420000Y-38498288D01*
X420000Y-38498288D02*
X8820000Y-38498288D01*
X8820000Y-31748288D02*
X420000Y-31748288D01*
X8820000Y-38498288D02*
X8820000Y-31748288D01*
%TO.C,R160*%
X159910000Y-73240000D02*
X169630000Y-73240000D01*
X169630000Y-76240000D01*
X159910000Y-76240000D01*
X159910000Y-73240000D01*
%TO.C,R111*%
X75567364Y-87885000D02*
X85287364Y-87885000D01*
X85287364Y-90885000D01*
X75567364Y-90885000D01*
X75567364Y-87885000D01*
%TO.C,R206*%
X201320000Y-65060000D02*
X191600000Y-65060000D01*
X191600000Y-62060000D01*
X201320000Y-62060000D01*
X201320000Y-65060000D01*
%TO.C,R16*%
X91460000Y-51080000D02*
X101180000Y-51080000D01*
X101180000Y-54080000D01*
X91460000Y-54080000D01*
X91460000Y-51080000D01*
%TO.C,R170*%
X205000Y-102370000D02*
X9925000Y-102370000D01*
X9925000Y-105370000D01*
X205000Y-105370000D01*
X205000Y-102370000D01*
%TO.C,R49*%
X78080000Y-1240000D02*
X90340000Y-1240000D01*
X90340000Y-4240000D01*
X78080000Y-4240000D01*
X78080000Y-1240000D01*
%TO.C,D29*%
X4679066Y-121760000D02*
X7179066Y-121760000D01*
X7179066Y-112040000D01*
X4679066Y-112040000D01*
X4679066Y-121760000D01*
%TO.C,R133*%
X174710000Y-90720000D02*
X164990000Y-90720000D01*
X164990000Y-87720000D01*
X174710000Y-87720000D01*
X174710000Y-90720000D01*
%TO.C,R138*%
X9923701Y-102220000D02*
X203701Y-102220000D01*
X203701Y-99220000D01*
X9923701Y-99220000D01*
X9923701Y-102220000D01*
%TO.C,C130*%
X10075000Y-104300000D02*
X13075000Y-104300000D01*
X13075000Y-99700000D01*
X10075000Y-99700000D01*
X10075000Y-104300000D01*
%TO.C,C142*%
X205400000Y-121630000D02*
X207900000Y-121630000D01*
X207900000Y-116530000D01*
X205400000Y-116530000D01*
X205400000Y-121630000D01*
%TO.C,C4*%
X111909432Y-133049864D02*
X114909432Y-133049864D01*
X114909432Y-125949864D01*
X111909432Y-125949864D01*
X111909432Y-133049864D01*
%TO.C,K6*%
X212402500Y-121792500D02*
X212402500Y-134592500D01*
X212402500Y-121792500D02*
X220302500Y-121792500D01*
X220302500Y-134592500D02*
X212402500Y-134592500D01*
X220302500Y-134592500D02*
X220302500Y-121792500D01*
%TO.C,C160*%
X43070000Y-81420000D02*
X35970000Y-81420000D01*
X35970000Y-78420000D01*
X43070000Y-78420000D01*
X43070000Y-81420000D01*
%TO.C,C135*%
X174860000Y-86490000D02*
X177860000Y-86490000D01*
X177860000Y-81890000D01*
X174860000Y-81890000D01*
X174860000Y-86490000D01*
%TO.C,D8*%
X169825000Y-45585000D02*
X169825000Y-52335000D01*
X169825000Y-52335000D02*
X178225000Y-52335000D01*
X178225000Y-45585000D02*
X169825000Y-45585000D01*
X178225000Y-52335000D02*
X178225000Y-45585000D01*
%TO.C,J4*%
X48675000Y-158500000D02*
X45075000Y-158500000D01*
X45075000Y-155500000D01*
X48675000Y-155500000D01*
X48675000Y-158500000D01*
D11*
X52875000Y-155500000D02*
X40875000Y-155500000D01*
X40875000Y-143300000D01*
X52875000Y-143300000D01*
X52875000Y-155500000D01*
D10*
%TO.C,C12*%
X218528976Y-6316706D02*
G75*
G02*
X210028976Y-6316706I-4250000J0D01*
G01*
X210028976Y-6316706D02*
G75*
G02*
X218528976Y-6316706I4250000J0D01*
G01*
%TO.C,C58*%
X146589176Y-50100000D02*
X151689176Y-50100000D01*
X151689176Y-52600000D01*
X146589176Y-52600000D01*
X146589176Y-50100000D01*
%TO.C,R163*%
X15340000Y-78420000D02*
X25060000Y-78420000D01*
X25060000Y-81420000D01*
X15340000Y-81420000D01*
X15340000Y-78420000D01*
%TO.C,R223*%
X74430000Y-140120000D02*
X84150000Y-140120000D01*
X84150000Y-143120000D01*
X74430000Y-143120000D01*
X74430000Y-140120000D01*
%TO.C,C34*%
X169720049Y-120860000D02*
X162620049Y-120860000D01*
X162620049Y-117860000D01*
X169720049Y-117860000D01*
X169720049Y-120860000D01*
%TO.C,C127*%
X187890000Y-90870000D02*
X192490000Y-90870000D01*
X192490000Y-93970000D01*
X187890000Y-93970000D01*
X187890000Y-90870000D01*
%TO.C,C61*%
X238001701Y-56418794D02*
X241001701Y-56418794D01*
X241001701Y-49318794D01*
X238001701Y-49318794D01*
X238001701Y-56418794D01*
%TO.C,R137*%
X226655000Y-108590000D02*
X216935000Y-108590000D01*
X216935000Y-105590000D01*
X226655000Y-105590000D01*
X226655000Y-108590000D01*
%TO.C,C94*%
X73960000Y-128080000D02*
X70960000Y-128080000D01*
X70960000Y-135180000D01*
X73960000Y-135180000D01*
X73960000Y-128080000D01*
%TO.C,R60*%
X102750000Y-13547715D02*
X115010000Y-13547715D01*
X115010000Y-16547715D01*
X102750000Y-16547715D01*
X102750000Y-13547715D01*
%TO.C,C110*%
X128540005Y-108750000D02*
X121440005Y-108750000D01*
X121440005Y-105750000D01*
X128540005Y-105750000D01*
X128540005Y-108750000D01*
%TO.C,R68*%
X188640000Y-154130000D02*
X191640000Y-154130000D01*
X191640000Y-144410000D01*
X188640000Y-144410000D01*
X188640000Y-154130000D01*
%TO.C,R98*%
X23105000Y-102370000D02*
X32825000Y-102370000D01*
X32825000Y-105370000D01*
X23105000Y-105370000D01*
X23105000Y-102370000D01*
%TO.C,C155*%
X16060000Y-109930000D02*
X13060000Y-109930000D01*
X13060000Y-117030000D01*
X16060000Y-117030000D01*
X16060000Y-109930000D01*
%TO.C,R80*%
X111756337Y-136119659D02*
X102036337Y-136119659D01*
X102036337Y-133119659D01*
X111756337Y-133119659D01*
X111756337Y-136119659D01*
%TO.C,D43*%
X124965010Y-144409723D02*
X122465010Y-144409723D01*
X122465010Y-154129723D01*
X124965010Y-154129723D01*
X124965010Y-144409723D01*
%TO.C,R74*%
X111748449Y-131048458D02*
X102028449Y-131048458D01*
X102028449Y-128048458D01*
X111748449Y-128048458D01*
X111748449Y-131048458D01*
%TO.C,U23*%
X90911073Y-97080000D02*
X100641073Y-97080000D01*
X100641073Y-115380000D01*
X90911073Y-115380000D01*
X90911073Y-97080000D01*
%TO.C,C3*%
X159570000Y-74020000D02*
G75*
G02*
X154070000Y-74020000I-2750000J0D01*
G01*
X154070000Y-74020000D02*
G75*
G02*
X159570000Y-74020000I2750000J0D01*
G01*
%TO.C,Q2*%
X67820000Y-68370000D02*
X67820000Y-73110000D01*
X67820000Y-68370000D02*
X73280000Y-68370000D01*
X73280000Y-73110000D02*
X67820000Y-73110000D01*
X73280000Y-73110000D02*
X73280000Y-68370000D01*
%TO.C,C15*%
X160740000Y-93690000D02*
G75*
G02*
X155240000Y-93690000I-2750000J0D01*
G01*
X155240000Y-93690000D02*
G75*
G02*
X160740000Y-93690000I2750000J0D01*
G01*
%TO.C,R21*%
X146589176Y-32805000D02*
X156309176Y-32805000D01*
X156309176Y-35805000D01*
X146589176Y-35805000D01*
X146589176Y-32805000D01*
%TO.C,R182*%
X201320000Y-71060000D02*
X191600000Y-71060000D01*
X191600000Y-68060000D01*
X201320000Y-68060000D01*
X201320000Y-71060000D01*
%TO.C,D14*%
X6800000Y-144410000D02*
X4300000Y-144410000D01*
X4300000Y-154130000D01*
X6800000Y-154130000D01*
X6800000Y-144410000D01*
%TO.C,R161*%
X175850000Y-73250000D02*
X185570000Y-73250000D01*
X185570000Y-76250000D01*
X175850000Y-76250000D01*
X175850000Y-73250000D01*
%TO.C,U28*%
X175240000Y-102540000D02*
X185900000Y-102540000D01*
X185900000Y-113320000D01*
X175240000Y-113320000D01*
X175240000Y-102540000D01*
%TO.C,C77*%
X148120000Y-128002996D02*
X151220000Y-128002996D01*
X151220000Y-123402996D01*
X148120000Y-123402996D01*
X148120000Y-128002996D01*
%TO.C,C78*%
X80020000Y-122795113D02*
G75*
G02*
X74520000Y-122795113I-2750000J0D01*
G01*
X74520000Y-122795113D02*
G75*
G02*
X80020000Y-122795113I2750000J0D01*
G01*
%TO.C,R123*%
X9925000Y-108530000D02*
X205000Y-108530000D01*
X205000Y-105530000D01*
X9925000Y-105530000D01*
X9925000Y-108530000D01*
%TO.C,SW13*%
X32340000Y-71400000D02*
X32340000Y-78150000D01*
X32340000Y-78150000D02*
X48240000Y-78150000D01*
X48240000Y-71400000D02*
X32340000Y-71400000D01*
X48240000Y-78150000D02*
X48240000Y-71400000D01*
%TO.C,R48*%
X78087007Y-13550000D02*
X90347007Y-13550000D01*
X90347007Y-16550000D01*
X78087007Y-16550000D01*
X78087007Y-13550000D01*
%TO.C,R55*%
X78090000Y-4320000D02*
X90350000Y-4320000D01*
X90350000Y-7320000D01*
X78090000Y-7320000D01*
X78090000Y-4320000D01*
%TO.C,R11*%
X191930000Y-47270468D02*
X188930000Y-47270468D01*
X188930000Y-56990468D01*
X191930000Y-56990468D01*
X191930000Y-47270468D01*
%TO.C,C129*%
X239825000Y-108750000D02*
X244425000Y-108750000D01*
X244425000Y-111850000D01*
X239825000Y-111850000D01*
X239825000Y-108750000D01*
%TO.C,Q8*%
X163060000Y-68350000D02*
X163060000Y-73090000D01*
X163060000Y-68350000D02*
X168520000Y-68350000D01*
X168520000Y-73090000D02*
X163060000Y-73090000D01*
X168520000Y-73090000D02*
X168520000Y-68350000D01*
%TO.C,U10*%
X195945000Y-41715075D02*
X205675000Y-41715075D01*
X205675000Y-52375075D01*
X195945000Y-52375075D01*
X195945000Y-41715075D01*
%TO.C,R25*%
X27570000Y-48723920D02*
X30570000Y-48723920D01*
X30570000Y-39003920D01*
X27570000Y-39003920D01*
X27570000Y-48723920D01*
%TO.C,C80*%
X194770000Y-122758377D02*
G75*
G02*
X189270000Y-122758377I-2750000J0D01*
G01*
X189270000Y-122758377D02*
G75*
G02*
X194770000Y-122758377I2750000J0D01*
G01*
%TO.C,U2*%
X115055000Y-117848458D02*
X124785000Y-117848458D01*
X124785000Y-136148458D01*
X115055000Y-136148458D01*
X115055000Y-117848458D01*
%TO.C,C37*%
X147814888Y-15910000D02*
G75*
G02*
X142314888Y-15910000I-2750000J0D01*
G01*
X142314888Y-15910000D02*
G75*
G02*
X147814888Y-15910000I2750000J0D01*
G01*
%TO.C,C96*%
X74360000Y-110560000D02*
X71360000Y-110560000D01*
X71360000Y-117660000D01*
X74360000Y-117660000D01*
X74360000Y-110560000D01*
%TO.C,Q9*%
X179000000Y-68360000D02*
X179000000Y-73100000D01*
X179000000Y-68360000D02*
X184460000Y-68360000D01*
X184460000Y-73100000D02*
X179000000Y-73100000D01*
X184460000Y-73100000D02*
X184460000Y-68360000D01*
%TO.C,U5*%
X136720000Y-41190000D02*
X100640000Y-41190000D01*
X100640000Y-50920000D01*
X136720000Y-50920000D01*
X136720000Y-41190000D01*
%TO.C,SW15*%
X185657244Y-71400000D02*
X185657244Y-78150000D01*
X185657244Y-78150000D02*
X201557244Y-78150000D01*
X201557244Y-71400000D02*
X185657244Y-71400000D01*
X201557244Y-78150000D02*
X201557244Y-71400000D01*
%TO.C,D17*%
X69430000Y-154130000D02*
X71930000Y-154130000D01*
X71930000Y-144410000D01*
X69430000Y-144410000D01*
X69430000Y-154130000D01*
%TO.C,R61*%
X102747244Y-16610000D02*
X115007244Y-16610000D01*
X115007244Y-19610000D01*
X102747244Y-19610000D01*
X102747244Y-16610000D01*
%TO.C,J11*%
X241671701Y-24928145D02*
X241671701Y-60828145D01*
X241671701Y-60828145D02*
X248421701Y-60828145D01*
X248421701Y-24928145D02*
X241671701Y-24928145D01*
X248421701Y-60828145D02*
X248421701Y-24928145D01*
%TO.C,R162*%
X205000Y-96070000D02*
X9925000Y-96070000D01*
X9925000Y-99070000D01*
X205000Y-99070000D01*
X205000Y-96070000D01*
%TO.C,R51*%
X90430000Y-22740000D02*
X102690000Y-22740000D01*
X102690000Y-25740000D01*
X90430000Y-25740000D01*
X90430000Y-22740000D01*
%TO.C,Q3*%
X83680000Y-68380000D02*
X83680000Y-73120000D01*
X83680000Y-68380000D02*
X89140000Y-68380000D01*
X89140000Y-73120000D02*
X83680000Y-73120000D01*
X89140000Y-73120000D02*
X89140000Y-68380000D01*
%TO.C,C5*%
X140680000Y-92230000D02*
X147780000Y-92230000D01*
X147780000Y-95230000D01*
X140680000Y-95230000D01*
X140680000Y-92230000D01*
%TO.C,C133*%
X99820000Y-86550000D02*
X102820000Y-86550000D01*
X102820000Y-81950000D01*
X99820000Y-81950000D01*
X99820000Y-86550000D01*
%TO.C,C30*%
X192743741Y-81270000D02*
X185643741Y-81270000D01*
X185643741Y-78270000D01*
X192743741Y-78270000D01*
X192743741Y-81270000D01*
%TO.C,R118*%
X221811821Y-81300000D02*
X212091821Y-81300000D01*
X212091821Y-78300000D01*
X221811821Y-78300000D01*
X221811821Y-81300000D01*
%TO.C,R201*%
X240370000Y-88160000D02*
X243370000Y-88160000D01*
X243370000Y-78440000D01*
X240370000Y-78440000D01*
X240370000Y-88160000D01*
%TO.C,R110*%
X72250000Y-81415000D02*
X62530000Y-81415000D01*
X62530000Y-78415000D01*
X72250000Y-78415000D01*
X72250000Y-81415000D01*
%TO.C,R121*%
X239825000Y-105600000D02*
X249545000Y-105600000D01*
X249545000Y-108600000D01*
X239825000Y-108600000D01*
X239825000Y-105600000D01*
%TO.C,R3*%
X219475657Y-16185587D02*
X222475657Y-16185587D01*
X222475657Y-6465587D01*
X219475657Y-6465587D01*
X219475657Y-16185587D01*
%TO.C,R63*%
X241001701Y-36878145D02*
X231281701Y-36878145D01*
X231281701Y-33878145D01*
X241001701Y-33878145D01*
X241001701Y-36878145D01*
%TO.C,D5*%
X19000000Y-41983920D02*
X19000000Y-48733920D01*
X19000000Y-48733920D02*
X27400000Y-48733920D01*
X27400000Y-41983920D02*
X19000000Y-41983920D01*
X27400000Y-48733920D02*
X27400000Y-41983920D01*
%TO.C,R67*%
X126140000Y-154130000D02*
X129140000Y-154130000D01*
X129140000Y-144410000D01*
X126140000Y-144410000D01*
X126140000Y-154130000D01*
%TO.C,R107*%
X32825000Y-108520000D02*
X23105000Y-108520000D01*
X23105000Y-105520000D01*
X32825000Y-105520000D01*
X32825000Y-108520000D01*
%TO.C,U6*%
X128370000Y-117850000D02*
X138100000Y-117850000D01*
X138100000Y-136150000D01*
X128370000Y-136150000D01*
X128370000Y-117850000D01*
%TO.C,C60*%
X237270402Y-50368145D02*
G75*
G02*
X231770402Y-50368145I-2750000J0D01*
G01*
X231770402Y-50368145D02*
G75*
G02*
X237270402Y-50368145I2750000J0D01*
G01*
%TO.C,D19*%
X100690000Y-154130000D02*
X103190000Y-154130000D01*
X103190000Y-144410000D01*
X100690000Y-144410000D01*
X100690000Y-154130000D01*
%TO.C,C39*%
X139139999Y-17280000D02*
X142139999Y-17280000D01*
X142139999Y-10180000D01*
X139139999Y-10180000D01*
X139139999Y-17280000D01*
%TO.C,C19*%
X226261701Y-27265934D02*
G75*
G02*
X220761701Y-27265934I-2750000J0D01*
G01*
X220761701Y-27265934D02*
G75*
G02*
X226261701Y-27265934I2750000J0D01*
G01*
%TO.C,R225*%
X105670000Y-140110000D02*
X115390000Y-140110000D01*
X115390000Y-143110000D01*
X105670000Y-143110000D01*
X105670000Y-140110000D01*
%TO.C,C40*%
X192428088Y-33470046D02*
G75*
G02*
X186928088Y-33470046I-2750000J0D01*
G01*
X186928088Y-33470046D02*
G75*
G02*
X192428088Y-33470046I2750000J0D01*
G01*
%TO.C,C99*%
X175079550Y-122769550D02*
X172079550Y-122769550D01*
X172079550Y-130269550D01*
X175079550Y-130269550D01*
X175079550Y-122769550D01*
%TO.C,D28*%
X225536000Y-144410000D02*
X223036000Y-144410000D01*
X223036000Y-154130000D01*
X225536000Y-154130000D01*
X225536000Y-144410000D01*
%TO.C,C114*%
X28235000Y-95970000D02*
X32835000Y-95970000D01*
X32835000Y-99070000D01*
X28235000Y-99070000D01*
X28235000Y-95970000D01*
%TO.C,C18*%
X133900000Y-35934672D02*
X131400000Y-35934672D01*
X131400000Y-41034672D01*
X133900000Y-41034672D01*
X133900000Y-35934672D01*
%TO.C,R194*%
X10200000Y-87440000D02*
X480000Y-87440000D01*
X480000Y-84440000D01*
X10200000Y-84440000D01*
X10200000Y-87440000D01*
%TO.C,C170*%
X112100000Y-75390000D02*
G75*
G02*
X106600000Y-75390000I-2750000J0D01*
G01*
X106600000Y-75390000D02*
G75*
G02*
X112100000Y-75390000I2750000J0D01*
G01*
%TO.C,R27*%
X166525000Y-52325000D02*
X169525000Y-52325000D01*
X169525000Y-42605000D01*
X166525000Y-42605000D01*
X166525000Y-52325000D01*
%TO.C,D9*%
X19020000Y-52043920D02*
X19020000Y-58793920D01*
X19020000Y-58793920D02*
X27420000Y-58793920D01*
X27420000Y-52043920D02*
X19020000Y-52043920D01*
X27420000Y-58793920D02*
X27420000Y-52043920D01*
%TD*%
M02*
