%TF.GenerationSoftware,KiCad,Pcbnew,9.0.5*%
%TF.CreationDate,2025-11-15T17:03:18+01:00*%
%TF.ProjectId,SpikyOscilloscopce,5370696b-794f-4736-9369-6c6c6f73636f,rev?*%
%TF.SameCoordinates,Original*%
%TF.FileFunction,Soldermask,Bot*%
%TF.FilePolarity,Negative*%
%FSLAX46Y46*%
G04 Gerber Fmt 4.6, Leading zero omitted, Abs format (unit mm)*
G04 Created by KiCad (PCBNEW 9.0.5) date 2025-11-15 17:03:18*
%MOMM*%
%LPD*%
G01*
G04 APERTURE LIST*
G04 Aperture macros list*
%AMRoundRect*
0 Rectangle with rounded corners*
0 $1 Rounding radius*
0 $2 $3 $4 $5 $6 $7 $8 $9 X,Y pos of 4 corners*
0 Add a 4 corners polygon primitive as box body*
4,1,4,$2,$3,$4,$5,$6,$7,$8,$9,$2,$3,0*
0 Add four circle primitives for the rounded corners*
1,1,$1+$1,$2,$3*
1,1,$1+$1,$4,$5*
1,1,$1+$1,$6,$7*
1,1,$1+$1,$8,$9*
0 Add four rect primitives between the rounded corners*
20,1,$1+$1,$2,$3,$4,$5,0*
20,1,$1+$1,$4,$5,$6,$7,0*
20,1,$1+$1,$6,$7,$8,$9,0*
20,1,$1+$1,$8,$9,$2,$3,0*%
G04 Aperture macros list end*
%ADD10C,3.000000*%
%ADD11RoundRect,0.250000X0.750000X-0.750000X0.750000X0.750000X-0.750000X0.750000X-0.750000X-0.750000X0*%
%ADD12C,2.000000*%
%ADD13RoundRect,0.250000X-0.600000X-0.750000X0.600000X-0.750000X0.600000X0.750000X-0.600000X0.750000X0*%
%ADD14O,1.700000X2.000000*%
%ADD15C,1.600000*%
%ADD16RoundRect,0.250000X-0.550000X-0.550000X0.550000X-0.550000X0.550000X0.550000X-0.550000X0.550000X0*%
%ADD17RoundRect,0.250000X0.550000X0.550000X-0.550000X0.550000X-0.550000X-0.550000X0.550000X-0.550000X0*%
%ADD18R,2.000000X2.000000*%
%ADD19RoundRect,0.250000X-0.550000X0.550000X-0.550000X-0.550000X0.550000X-0.550000X0.550000X0.550000X0*%
%ADD20C,1.400000*%
%ADD21RoundRect,0.250000X-0.600000X-0.725000X0.600000X-0.725000X0.600000X0.725000X-0.600000X0.725000X0*%
%ADD22O,1.700000X1.950000*%
%ADD23RoundRect,0.250000X0.550000X-0.550000X0.550000X0.550000X-0.550000X0.550000X-0.550000X-0.550000X0*%
%ADD24C,1.300000*%
%ADD25RoundRect,0.200000X-0.200000X0.550000X-0.200000X-0.550000X0.200000X-0.550000X0.200000X0.550000X0*%
%ADD26RoundRect,0.200000X-0.550000X-0.200000X0.550000X-0.200000X0.550000X0.200000X-0.550000X0.200000X0*%
%ADD27C,2.600000*%
%ADD28RoundRect,0.250001X0.949999X-0.949999X0.949999X0.949999X-0.949999X0.949999X-0.949999X-0.949999X0*%
%ADD29C,2.400000*%
%ADD30C,2.010000*%
%ADD31RoundRect,0.250001X-0.949999X0.949999X-0.949999X-0.949999X0.949999X-0.949999X0.949999X0.949999X0*%
%ADD32RoundRect,0.250000X-0.350000X-0.350000X0.350000X-0.350000X0.350000X0.350000X-0.350000X0.350000X0*%
%ADD33C,1.200000*%
%ADD34RoundRect,0.250001X0.949999X0.949999X-0.949999X0.949999X-0.949999X-0.949999X0.949999X-0.949999X0*%
%ADD35R,1.050000X1.500000*%
%ADD36O,1.050000X1.500000*%
%ADD37R,1.200000X2.000000*%
%ADD38O,1.200000X2.000000*%
%ADD39R,1.275000X1.800000*%
%ADD40O,1.275000X1.800000*%
%ADD41RoundRect,0.249999X0.850001X0.850001X-0.850001X0.850001X-0.850001X-0.850001X0.850001X-0.850001X0*%
%ADD42C,2.200000*%
%ADD43R,1.905000X2.000000*%
%ADD44O,1.905000X2.000000*%
%ADD45RoundRect,0.250000X0.750000X0.750000X-0.750000X0.750000X-0.750000X-0.750000X0.750000X-0.750000X0*%
%ADD46RoundRect,0.250000X0.725000X-0.600000X0.725000X0.600000X-0.725000X0.600000X-0.725000X-0.600000X0*%
%ADD47O,1.950000X1.700000*%
%ADD48C,3.180000*%
%ADD49RoundRect,0.249999X1.250001X1.250001X-1.250001X1.250001X-1.250001X-1.250001X1.250001X-1.250001X0*%
G04 APERTURE END LIST*
D10*
%TO.C,H4*%
X246500000Y-138000000D03*
%TD*%
%TO.C,H3*%
X3500000Y-138000000D03*
%TD*%
%TO.C,H2*%
X245000000Y-65000000D03*
%TD*%
%TO.C,H1*%
X5000000Y-65000000D03*
%TD*%
D11*
%TO.C,C27*%
X203604732Y-8708299D03*
D12*
X203604732Y-3708299D03*
%TD*%
D13*
%TO.C,SW10*%
X141089176Y-55770000D03*
D14*
X143589176Y-55770000D03*
%TD*%
D15*
%TO.C,C45*%
X165161380Y-18968299D03*
X160161380Y-18968299D03*
%TD*%
%TO.C,R92*%
X84240000Y-83075398D03*
X76620000Y-83075398D03*
%TD*%
D12*
%TO.C,FB1*%
X178321701Y-25178299D03*
X183401701Y-25178299D03*
%TD*%
D15*
%TO.C,R75*%
X139300000Y-119351819D03*
X146920000Y-119351819D03*
%TD*%
D16*
%TO.C,U8*%
X29405000Y-83090000D03*
D15*
X29405000Y-85630000D03*
X29405000Y-88170000D03*
X29405000Y-90710000D03*
X37025000Y-90710000D03*
X37025000Y-88170000D03*
X37025000Y-85630000D03*
X37025000Y-83090000D03*
%TD*%
D17*
%TO.C,C157*%
X36810000Y-109250000D03*
D15*
X34310000Y-109250000D03*
%TD*%
D18*
%TO.C,K1*%
X6122853Y-123262500D03*
D12*
X6122853Y-125802500D03*
X6122853Y-133422500D03*
X11202853Y-133422500D03*
X11202853Y-125802500D03*
X11202853Y-123262500D03*
%TD*%
D16*
%TO.C,U1*%
X88602047Y-119380000D03*
D15*
X88602047Y-121920000D03*
X88602047Y-124460000D03*
X88602047Y-127000000D03*
X88602047Y-129540000D03*
X88602047Y-132080000D03*
X88602047Y-134620000D03*
X88602047Y-137160000D03*
X96222047Y-137160000D03*
X96222047Y-134620000D03*
X96222047Y-132080000D03*
X96222047Y-129540000D03*
X96222047Y-127000000D03*
X96222047Y-124460000D03*
X96222047Y-121920000D03*
X96222047Y-119380000D03*
%TD*%
%TO.C,R58*%
X103800000Y-8910000D03*
X113960000Y-8910000D03*
%TD*%
D19*
%TO.C,C28*%
X165320000Y-125734888D03*
D15*
X165320000Y-128234888D03*
%TD*%
%TO.C,C75*%
X100328449Y-126509630D03*
X100328449Y-124009630D03*
%TD*%
D20*
%TO.C,C57*%
X147879176Y-44275000D03*
X150379176Y-44275000D03*
%TD*%
D15*
%TO.C,C147*%
X15390000Y-125810000D03*
X15390000Y-123310000D03*
%TD*%
%TO.C,C7*%
X81335677Y-119360000D03*
X86335677Y-119360000D03*
%TD*%
%TO.C,R65*%
X103790000Y-27310000D03*
X113950000Y-27310000D03*
%TD*%
D21*
%TO.C,J3*%
X126390000Y-21952686D03*
D22*
X128890000Y-21952686D03*
X131390000Y-21952686D03*
X133890000Y-21952686D03*
X136390000Y-21952686D03*
%TD*%
D20*
%TO.C,C56*%
X147889176Y-37205000D03*
X150389176Y-37205000D03*
%TD*%
D23*
%TO.C,C10*%
X119180000Y-39455113D03*
D15*
X119180000Y-36955113D03*
%TD*%
%TO.C,C126*%
X154100000Y-92420000D03*
X151600000Y-92420000D03*
%TD*%
D24*
%TO.C,J7*%
X208125000Y-153500000D03*
X208125000Y-151000000D03*
X203125000Y-146000000D03*
X198125000Y-153500000D03*
X198125000Y-151000000D03*
D25*
X208125000Y-146000000D03*
D26*
X203125000Y-151000000D03*
D25*
X198125000Y-146000000D03*
%TD*%
D15*
%TO.C,C47*%
X207327011Y-41009493D03*
X207327011Y-36009493D03*
%TD*%
D17*
%TO.C,C161*%
X37055113Y-98250000D03*
D15*
X34555113Y-98250000D03*
%TD*%
D20*
%TO.C,C144*%
X231552500Y-120599613D03*
X231552500Y-118099613D03*
%TD*%
D27*
%TO.C,L2*%
X214350329Y-23808299D03*
X214350329Y-28808299D03*
%TD*%
D15*
%TO.C,R38*%
X91460000Y-30358309D03*
X101620000Y-30358309D03*
%TD*%
%TO.C,R229*%
X169240000Y-141620000D03*
X176860000Y-141620000D03*
%TD*%
D20*
%TO.C,C138*%
X11731958Y-120460000D03*
X11731958Y-117960000D03*
%TD*%
D15*
%TO.C,R224*%
X114346566Y-138473434D03*
X106726566Y-138473434D03*
%TD*%
%TO.C,R179*%
X25220000Y-69610000D03*
X17600000Y-69610000D03*
%TD*%
D23*
%TO.C,C38*%
X163670000Y-116310000D03*
D15*
X163670000Y-113810000D03*
%TD*%
D23*
%TO.C,D31*%
X30982500Y-120754026D03*
D15*
X30982500Y-113134026D03*
%TD*%
%TO.C,R156*%
X97429044Y-74780000D03*
X105049044Y-74780000D03*
%TD*%
%TO.C,C149*%
X40560000Y-125810000D03*
X40560000Y-123310000D03*
%TD*%
%TO.C,R185*%
X238860000Y-87110000D03*
X238860000Y-79490000D03*
%TD*%
%TO.C,R134*%
X210890000Y-92410000D03*
X203270000Y-92410000D03*
%TD*%
%TO.C,R4*%
X136130000Y-27080000D03*
X136130000Y-34700000D03*
%TD*%
%TO.C,R26*%
X40900000Y-47678920D03*
X40900000Y-40058920D03*
%TD*%
%TO.C,R152*%
X161410000Y-64420000D03*
X161410000Y-72040000D03*
%TD*%
D28*
%TO.C,D53*%
X23846866Y-152680000D03*
D29*
X23846866Y-142520000D03*
%TD*%
D17*
%TO.C,C156*%
X13515113Y-93320000D03*
D15*
X11015113Y-93320000D03*
%TD*%
D17*
%TO.C,C35*%
X183381701Y-37186048D03*
D15*
X180881701Y-37186048D03*
%TD*%
%TO.C,R56*%
X103820000Y-2746070D03*
X113980000Y-2746070D03*
%TD*%
D19*
%TO.C,D37*%
X29960000Y-145460000D03*
D15*
X29960000Y-153080000D03*
%TD*%
%TO.C,R77*%
X139300000Y-134620000D03*
X146920000Y-134620000D03*
%TD*%
%TO.C,C128*%
X226030000Y-92450000D03*
X228530000Y-92450000D03*
%TD*%
D13*
%TO.C,SW4*%
X3370000Y-41638288D03*
D14*
X5870000Y-41638288D03*
%TD*%
D15*
%TO.C,C76*%
X100328449Y-136678458D03*
X100328449Y-134178458D03*
%TD*%
D30*
%TO.C,F1*%
X241594551Y-15051149D03*
X246694551Y-16251149D03*
%TD*%
D15*
%TO.C,C42*%
X194290000Y-53314554D03*
X194290000Y-48314554D03*
%TD*%
%TO.C,R41*%
X101635769Y-5824231D03*
X91475769Y-5824231D03*
%TD*%
%TO.C,C150*%
X198310000Y-125650000D03*
X198310000Y-123150000D03*
%TD*%
%TO.C,C65*%
X36390000Y-142860000D03*
X33890000Y-142860000D03*
%TD*%
%TO.C,C118*%
X156720000Y-79720000D03*
X159220000Y-79720000D03*
%TD*%
D31*
%TO.C,D4*%
X203604732Y-14977823D03*
D29*
X203604732Y-27677823D03*
%TD*%
D15*
%TO.C,R39*%
X91483762Y-2740000D03*
X101643762Y-2740000D03*
%TD*%
%TO.C,C29*%
X168669999Y-122510000D03*
X163669999Y-122510000D03*
%TD*%
D27*
%TO.C,L1*%
X232381701Y-23796372D03*
X232381701Y-28796372D03*
%TD*%
D13*
%TO.C,SW9*%
X140989176Y-48695000D03*
D14*
X143489176Y-48695000D03*
%TD*%
D28*
%TO.C,D57*%
X148850000Y-152670000D03*
D29*
X148850000Y-142510000D03*
%TD*%
D15*
%TO.C,R187*%
X21352251Y-120755509D03*
X21352251Y-113135509D03*
%TD*%
%TO.C,R120*%
X235475000Y-97640000D03*
X227855000Y-97640000D03*
%TD*%
%TO.C,R175*%
X166040000Y-86070000D03*
X173660000Y-86070000D03*
%TD*%
%TO.C,R140*%
X61330000Y-83065000D03*
X53710000Y-83065000D03*
%TD*%
%TO.C,R103*%
X188940000Y-86070000D03*
X196560000Y-86070000D03*
%TD*%
%TO.C,C67*%
X130130000Y-142710000D03*
X127630000Y-142710000D03*
%TD*%
D16*
%TO.C,U14*%
X153800000Y-119383252D03*
D15*
X153800000Y-121923252D03*
X153800000Y-124463252D03*
X153800000Y-127003252D03*
X153800000Y-129543252D03*
X153800000Y-132083252D03*
X153800000Y-134623252D03*
X153800000Y-137163252D03*
X161420000Y-137163252D03*
X161420000Y-134623252D03*
X161420000Y-132083252D03*
X161420000Y-129543252D03*
X161420000Y-127003252D03*
X161420000Y-124463252D03*
X161420000Y-121923252D03*
X161420000Y-119383252D03*
%TD*%
%TO.C,R5*%
X227275657Y-7528299D03*
X227275657Y-15148299D03*
%TD*%
%TO.C,R108*%
X33880000Y-79920000D03*
X26260000Y-79920000D03*
%TD*%
%TO.C,R150*%
X129620000Y-64404625D03*
X129620000Y-72024625D03*
%TD*%
D23*
%TO.C,U18*%
X63919667Y-49870000D03*
D15*
X66459667Y-49870000D03*
X68999667Y-49870000D03*
X71539667Y-49870000D03*
X74079667Y-49870000D03*
X76619667Y-49870000D03*
X79159667Y-49870000D03*
X81699667Y-49870000D03*
X84239667Y-49870000D03*
X86779667Y-49870000D03*
X89319667Y-49870000D03*
X91859667Y-49870000D03*
X94399667Y-49870000D03*
X96939667Y-49870000D03*
X96939667Y-42250000D03*
X94399667Y-42250000D03*
X91859667Y-42250000D03*
X89319667Y-42250000D03*
X86779667Y-42250000D03*
X84239667Y-42250000D03*
X81699667Y-42250000D03*
X79159667Y-42250000D03*
X76619667Y-42250000D03*
X74079667Y-42250000D03*
X71539667Y-42250000D03*
X68999667Y-42250000D03*
X66459667Y-42250000D03*
X63919667Y-42250000D03*
%TD*%
D19*
%TO.C,D1*%
X186171701Y-8338144D03*
D15*
X186171701Y-15958144D03*
%TD*%
%TO.C,R145*%
X225605000Y-100790000D03*
X217985000Y-100790000D03*
%TD*%
%TO.C,R184*%
X232540000Y-69520000D03*
X224920000Y-69520000D03*
%TD*%
%TO.C,C22*%
X207340000Y-48242136D03*
X207340000Y-43242136D03*
%TD*%
D12*
%TO.C,FB2*%
X174321701Y-25176098D03*
X169241701Y-25176098D03*
%TD*%
D15*
%TO.C,R15*%
X96930000Y-39550000D03*
X89310000Y-39550000D03*
%TD*%
%TO.C,C123*%
X39270000Y-92580000D03*
X41770000Y-92580000D03*
%TD*%
%TO.C,R211*%
X25220000Y-60610000D03*
X17600000Y-60610000D03*
%TD*%
%TO.C,R31*%
X168030000Y-61300000D03*
X168030000Y-53680000D03*
%TD*%
%TO.C,C62*%
X67630000Y-142710000D03*
X65130000Y-142710000D03*
%TD*%
%TO.C,C87*%
X109220000Y-98580000D03*
X104220000Y-98580000D03*
%TD*%
D20*
%TO.C,C141*%
X49312500Y-120532500D03*
X49312500Y-118032500D03*
%TD*%
D19*
%TO.C,D51*%
X248700000Y-145460000D03*
D15*
X248700000Y-153080000D03*
%TD*%
%TO.C,R73*%
X2650000Y-153080000D03*
X2650000Y-145460000D03*
%TD*%
%TO.C,R22*%
X147629176Y-41375000D03*
X155249176Y-41375000D03*
%TD*%
%TO.C,R88*%
X148290000Y-110250000D03*
X140670000Y-110250000D03*
%TD*%
D13*
%TO.C,SW2*%
X145430000Y-21960000D03*
D14*
X147930000Y-21960000D03*
%TD*%
D15*
%TO.C,R146*%
X66170000Y-64440000D03*
X66170000Y-72060000D03*
%TD*%
D16*
%TO.C,C49*%
X210733209Y-36009493D03*
D15*
X213233209Y-36009493D03*
%TD*%
%TO.C,R213*%
X57320000Y-60590000D03*
X49700000Y-60590000D03*
%TD*%
D20*
%TO.C,C143*%
X219039407Y-120333295D03*
X219039407Y-117833295D03*
%TD*%
D32*
%TO.C,J10*%
X123700000Y-5040000D03*
D33*
X123700000Y-7040000D03*
X125700000Y-5040000D03*
X125700000Y-7040000D03*
X127700000Y-5040000D03*
X127700000Y-7040000D03*
X129700000Y-5040000D03*
X129700000Y-7040000D03*
X131700000Y-5040000D03*
X131700000Y-7040000D03*
X133700000Y-5040000D03*
X133700000Y-7040000D03*
X135700000Y-5040000D03*
X135700000Y-7040000D03*
X137700000Y-5040000D03*
X137700000Y-7040000D03*
X139700000Y-5040000D03*
X139700000Y-7040000D03*
X141700000Y-5040000D03*
X141700000Y-7040000D03*
X143700000Y-5040000D03*
X143700000Y-7040000D03*
X145700000Y-5040000D03*
X145700000Y-7040000D03*
X147700000Y-5040000D03*
X147700000Y-7040000D03*
X149700000Y-5040000D03*
X149700000Y-7040000D03*
X151700000Y-5040000D03*
X151700000Y-7040000D03*
X153700000Y-5040000D03*
X153700000Y-7040000D03*
X155700000Y-5040000D03*
X155700000Y-7040000D03*
X157700000Y-5040000D03*
X157700000Y-7040000D03*
X159700000Y-5040000D03*
X159700000Y-7040000D03*
X161700000Y-5040000D03*
X161700000Y-7040000D03*
%TD*%
D15*
%TO.C,R57*%
X103820000Y-5824598D03*
X113980000Y-5824598D03*
%TD*%
%TO.C,C68*%
X161390000Y-142710000D03*
X158890000Y-142710000D03*
%TD*%
%TO.C,C131*%
X26710000Y-85568181D03*
X26710000Y-83068181D03*
%TD*%
D13*
%TO.C,SW6*%
X3330000Y-55768288D03*
D14*
X5830000Y-55768288D03*
%TD*%
D23*
%TO.C,U13*%
X114880000Y-60060000D03*
D15*
X117420000Y-60060000D03*
X119960000Y-60060000D03*
X122500000Y-60060000D03*
X125040000Y-60060000D03*
X127580000Y-60060000D03*
X130120000Y-60060000D03*
X132660000Y-60060000D03*
X135200000Y-60060000D03*
X135200000Y-52440000D03*
X132660000Y-52440000D03*
X130120000Y-52440000D03*
X127580000Y-52440000D03*
X125040000Y-52440000D03*
X122500000Y-52440000D03*
X119960000Y-52440000D03*
X117420000Y-52440000D03*
X114880000Y-52440000D03*
%TD*%
%TO.C,C120*%
X231150000Y-79750000D03*
X233650000Y-79750000D03*
%TD*%
%TO.C,R141*%
X98620000Y-82970000D03*
X91000000Y-82970000D03*
%TD*%
D21*
%TO.C,SW1*%
X241748006Y-3158299D03*
D22*
X244248006Y-3158299D03*
X246748006Y-3158299D03*
%TD*%
D15*
%TO.C,C73*%
X149670000Y-132051979D03*
X149670000Y-129551979D03*
%TD*%
%TO.C,R90*%
X31784272Y-100720000D03*
X24164272Y-100720000D03*
%TD*%
%TO.C,C97*%
X58902586Y-106525682D03*
X58902586Y-111525682D03*
%TD*%
%TO.C,C74*%
X149670000Y-137120000D03*
X149670000Y-134620000D03*
%TD*%
%TO.C,C164*%
X79380000Y-79920000D03*
X74380000Y-79920000D03*
%TD*%
%TO.C,R210*%
X9150000Y-79940000D03*
X1530000Y-79940000D03*
%TD*%
%TO.C,R36*%
X103790000Y-30369449D03*
X113950000Y-30369449D03*
%TD*%
D17*
%TO.C,C90*%
X88958220Y-102950000D03*
D15*
X86958220Y-102950000D03*
%TD*%
%TO.C,R95*%
X196560000Y-82920000D03*
X188940000Y-82920000D03*
%TD*%
%TO.C,R37*%
X79140000Y-30360000D03*
X89300000Y-30360000D03*
%TD*%
D16*
%TO.C,U25*%
X111480000Y-98610000D03*
D15*
X111480000Y-101150000D03*
X111480000Y-103690000D03*
X111480000Y-106230000D03*
X111480000Y-108770000D03*
X111480000Y-111310000D03*
X111480000Y-113850000D03*
X119100000Y-113850000D03*
X119100000Y-111310000D03*
X119100000Y-108770000D03*
X119100000Y-106230000D03*
X119100000Y-103690000D03*
X119100000Y-101150000D03*
X119100000Y-98610000D03*
%TD*%
%TO.C,R12*%
X127702582Y-11690000D03*
X137862582Y-11690000D03*
%TD*%
%TO.C,R131*%
X136320000Y-89220000D03*
X128700000Y-89220000D03*
%TD*%
%TO.C,R147*%
X82030000Y-64450000D03*
X82030000Y-72070000D03*
%TD*%
%TO.C,R9*%
X126670000Y-27070000D03*
X126670000Y-34690000D03*
%TD*%
%TO.C,R32*%
X179870000Y-61330000D03*
X179870000Y-53710000D03*
%TD*%
D20*
%TO.C,C53*%
X10270000Y-44288288D03*
X12770000Y-44288288D03*
%TD*%
D15*
%TO.C,R52*%
X91470000Y-15047677D03*
X101630000Y-15047677D03*
%TD*%
D23*
%TO.C,D13*%
X8200000Y-153080000D03*
D15*
X8200000Y-145460000D03*
%TD*%
%TO.C,R198*%
X200270000Y-66560000D03*
X192650000Y-66560000D03*
%TD*%
%TO.C,R122*%
X8875000Y-110184135D03*
X1255000Y-110184135D03*
%TD*%
%TO.C,R188*%
X33882500Y-120754026D03*
X33882500Y-113134026D03*
%TD*%
%TO.C,R157*%
X113305000Y-74805000D03*
X120925000Y-74805000D03*
%TD*%
D23*
%TO.C,D52*%
X246050000Y-153081039D03*
D15*
X246050000Y-145461039D03*
%TD*%
D20*
%TO.C,C54*%
X10274000Y-51363288D03*
X12774000Y-51363288D03*
%TD*%
D15*
%TO.C,C85*%
X187550000Y-106660000D03*
X187550000Y-101660000D03*
%TD*%
D16*
%TO.C,C162*%
X76250000Y-75300000D03*
D15*
X78750000Y-75300000D03*
%TD*%
D18*
%TO.C,K7*%
X226352500Y-123402500D03*
D12*
X226352500Y-125942500D03*
X226352500Y-133562500D03*
X231432500Y-133562500D03*
X231432500Y-125942500D03*
X231432500Y-123402500D03*
%TD*%
D28*
%TO.C,D54*%
X55110815Y-152680000D03*
D29*
X55110815Y-142520000D03*
%TD*%
D15*
%TO.C,R205*%
X57320000Y-63600000D03*
X49700000Y-63600000D03*
%TD*%
D17*
%TO.C,C177*%
X248090000Y-113620000D03*
D15*
X245590000Y-113620000D03*
%TD*%
%TO.C,R30*%
X40900000Y-57708920D03*
X40900000Y-50088920D03*
%TD*%
D16*
%TO.C,U12*%
X216155000Y-82970000D03*
D15*
X216155000Y-85510000D03*
X216155000Y-88050000D03*
X216155000Y-90590000D03*
X223775000Y-90590000D03*
X223775000Y-88050000D03*
X223775000Y-85510000D03*
X223775000Y-82970000D03*
%TD*%
%TO.C,R99*%
X39270000Y-86220000D03*
X46890000Y-86220000D03*
%TD*%
D21*
%TO.C,SW17*%
X220670000Y-74250000D03*
D22*
X223170000Y-74250000D03*
X225670000Y-74250000D03*
X228170000Y-74250000D03*
X230670000Y-74250000D03*
%TD*%
D21*
%TO.C,SW18*%
X236740000Y-74250000D03*
D22*
X239240000Y-74250000D03*
X241740000Y-74250000D03*
X244240000Y-74250000D03*
X246740000Y-74250000D03*
%TD*%
D15*
%TO.C,R176*%
X203270000Y-86100000D03*
X210890000Y-86100000D03*
%TD*%
%TO.C,R154*%
X65710000Y-74760000D03*
X73330000Y-74760000D03*
%TD*%
%TO.C,R149*%
X113755000Y-64485000D03*
X113755000Y-72105000D03*
%TD*%
%TO.C,R135*%
X210890000Y-89250000D03*
X203270000Y-89250000D03*
%TD*%
%TO.C,R76*%
X139300000Y-129536747D03*
X146920000Y-129536747D03*
%TD*%
D23*
%TO.C,C104*%
X192020198Y-131600890D03*
D15*
X192020198Y-129100890D03*
%TD*%
D21*
%TO.C,SW11*%
X3184200Y-74250000D03*
D22*
X5684200Y-74250000D03*
X8184200Y-74250000D03*
X10684200Y-74250000D03*
X13184200Y-74250000D03*
%TD*%
D20*
%TO.C,C139*%
X24252500Y-120505509D03*
X24252500Y-118005509D03*
%TD*%
D15*
%TO.C,C44*%
X194298088Y-41008405D03*
X194298088Y-36008405D03*
%TD*%
%TO.C,R101*%
X113890000Y-86130000D03*
X121510000Y-86130000D03*
%TD*%
%TO.C,R2*%
X104550000Y-39540000D03*
X112170000Y-39540000D03*
%TD*%
%TO.C,R10*%
X190428308Y-38460468D03*
X190428308Y-46080468D03*
%TD*%
%TO.C,R1*%
X104540000Y-52890000D03*
X112160000Y-52890000D03*
%TD*%
%TO.C,R62*%
X103799626Y-21180000D03*
X113959626Y-21180000D03*
%TD*%
%TO.C,R124*%
X24020000Y-92520000D03*
X16400000Y-92520000D03*
%TD*%
%TO.C,R166*%
X128699026Y-79770000D03*
X136319026Y-79770000D03*
%TD*%
D34*
%TO.C,D2*%
X176351701Y-3784659D03*
D29*
X166191701Y-3784659D03*
%TD*%
D15*
%TO.C,R177*%
X217985000Y-103940000D03*
X225605000Y-103940000D03*
%TD*%
%TO.C,R227*%
X137980000Y-141610000D03*
X145600000Y-141610000D03*
%TD*%
D19*
%TO.C,D49*%
X217463057Y-145480000D03*
D15*
X217463057Y-153100000D03*
%TD*%
%TO.C,C108*%
X103000000Y-107210000D03*
X108000000Y-107210000D03*
%TD*%
%TO.C,C109*%
X103000000Y-113310000D03*
X108000000Y-113310000D03*
%TD*%
%TO.C,R226*%
X145599731Y-138460000D03*
X137979731Y-138460000D03*
%TD*%
%TO.C,C100*%
X187550000Y-111740000D03*
X187550000Y-116740000D03*
%TD*%
%TO.C,R33*%
X236800000Y-54920000D03*
X229180000Y-54920000D03*
%TD*%
%TO.C,R221*%
X44240000Y-141620000D03*
X51860000Y-141620000D03*
%TD*%
D16*
%TO.C,U4*%
X141730000Y-82940000D03*
D15*
X141730000Y-85480000D03*
X141730000Y-88020000D03*
X141730000Y-90560000D03*
X149350000Y-90560000D03*
X149350000Y-88020000D03*
X149350000Y-85480000D03*
X149350000Y-82940000D03*
%TD*%
%TO.C,R82*%
X89850000Y-116260000D03*
X82230000Y-116260000D03*
%TD*%
%TO.C,R13*%
X157630000Y-11790000D03*
X147470000Y-11790000D03*
%TD*%
%TO.C,C46*%
X160241701Y-31218299D03*
X165241701Y-31218299D03*
%TD*%
%TO.C,R136*%
X225605000Y-110240000D03*
X217985000Y-110240000D03*
%TD*%
%TO.C,R159*%
X145040000Y-74730000D03*
X152660000Y-74730000D03*
%TD*%
%TO.C,C167*%
X216160000Y-93800000D03*
X221160000Y-93800000D03*
%TD*%
D18*
%TO.C,K4*%
X43712500Y-123312500D03*
D12*
X43712500Y-125852500D03*
X43712500Y-133472500D03*
X48792500Y-133472500D03*
X48792500Y-125852500D03*
X48792500Y-123312500D03*
%TD*%
D15*
%TO.C,C89*%
X148160000Y-98610000D03*
X143160000Y-98610000D03*
%TD*%
D17*
%TO.C,C166*%
X221840000Y-68330000D03*
D15*
X219340000Y-68330000D03*
%TD*%
%TO.C,C168*%
X228780000Y-79800000D03*
X223780000Y-79800000D03*
%TD*%
D21*
%TO.C,SW16*%
X204620000Y-74240000D03*
D22*
X207120000Y-74240000D03*
X209620000Y-74240000D03*
X212120000Y-74240000D03*
X214620000Y-74240000D03*
%TD*%
D19*
%TO.C,D22*%
X130540000Y-145460000D03*
D15*
X130540000Y-153080000D03*
%TD*%
%TO.C,R54*%
X91477087Y-8910000D03*
X101637087Y-8910000D03*
%TD*%
%TO.C,R191*%
X216139407Y-120584078D03*
X216139407Y-112964078D03*
%TD*%
%TO.C,R86*%
X128840005Y-110240000D03*
X121220005Y-110240000D03*
%TD*%
D16*
%TO.C,U3*%
X14280000Y-100740000D03*
D15*
X14280000Y-103280000D03*
X14280000Y-105820000D03*
X14280000Y-108360000D03*
X21900000Y-108360000D03*
X21900000Y-105820000D03*
X21900000Y-103280000D03*
X21900000Y-100740000D03*
%TD*%
%TO.C,R34*%
X79143088Y-11970000D03*
X89303088Y-11970000D03*
%TD*%
%TO.C,R212*%
X41290000Y-60610000D03*
X33670000Y-60610000D03*
%TD*%
%TO.C,R200*%
X232540000Y-66510000D03*
X224920000Y-66510000D03*
%TD*%
D16*
%TO.C,U26*%
X176763702Y-121485777D03*
D15*
X176763702Y-124025777D03*
X176763702Y-126565777D03*
X176763702Y-129105777D03*
X184383702Y-129105777D03*
X184383702Y-126565777D03*
X184383702Y-124025777D03*
X184383702Y-121485777D03*
%TD*%
D16*
%TO.C,U27*%
X130960000Y-98610000D03*
D15*
X130960000Y-101150000D03*
X130960000Y-103690000D03*
X130960000Y-106230000D03*
X130960000Y-108770000D03*
X130960000Y-111310000D03*
X130960000Y-113850000D03*
X138580000Y-113850000D03*
X138580000Y-111310000D03*
X138580000Y-108770000D03*
X138580000Y-106230000D03*
X138580000Y-103690000D03*
X138580000Y-101150000D03*
X138580000Y-98610000D03*
%TD*%
D17*
%TO.C,C93*%
X147400000Y-102920000D03*
D15*
X145400000Y-102920000D03*
%TD*%
%TO.C,C176*%
X243630000Y-97640000D03*
X238630000Y-97640000D03*
%TD*%
D16*
%TO.C,C174*%
X241214888Y-92950000D03*
D15*
X243714888Y-92950000D03*
%TD*%
D23*
%TO.C,C79*%
X77330554Y-106565113D03*
D15*
X77330554Y-104065113D03*
%TD*%
%TO.C,R117*%
X188940000Y-89220000D03*
X196560000Y-89220000D03*
%TD*%
%TO.C,R96*%
X233650000Y-82950000D03*
X226030000Y-82950000D03*
%TD*%
%TO.C,R71*%
X96390000Y-153080000D03*
X96390000Y-145460000D03*
%TD*%
%TO.C,C82*%
X72820000Y-124050000D03*
X72820000Y-119050000D03*
%TD*%
%TO.C,C171*%
X104040000Y-93770000D03*
X109040000Y-93770000D03*
%TD*%
D23*
%TO.C,D21*%
X133190000Y-153080000D03*
D15*
X133190000Y-145460000D03*
%TD*%
%TO.C,C33*%
X169311701Y-31220018D03*
X174311701Y-31220018D03*
%TD*%
%TO.C,R64*%
X103820000Y-24250000D03*
X113980000Y-24250000D03*
%TD*%
D23*
%TO.C,D40*%
X58560000Y-153080000D03*
D15*
X58560000Y-145460000D03*
%TD*%
%TO.C,C137*%
X228305000Y-103310000D03*
X228305000Y-100810000D03*
%TD*%
D17*
%TO.C,C158*%
X30825113Y-68320000D03*
D15*
X28325113Y-68320000D03*
%TD*%
D17*
%TO.C,C48*%
X165226814Y-37186048D03*
D15*
X162726814Y-37186048D03*
%TD*%
%TO.C,R8*%
X129820000Y-27070000D03*
X129820000Y-34690000D03*
%TD*%
%TO.C,C63*%
X98890000Y-142710000D03*
X96390000Y-142710000D03*
%TD*%
D16*
%TO.C,U15*%
X104030000Y-83000000D03*
D15*
X104030000Y-85540000D03*
X104030000Y-88080000D03*
X104030000Y-90620000D03*
X111650000Y-90620000D03*
X111650000Y-88080000D03*
X111650000Y-85540000D03*
X111650000Y-83000000D03*
%TD*%
%TO.C,R222*%
X83097209Y-138470000D03*
X75477209Y-138470000D03*
%TD*%
%TO.C,R130*%
X136320000Y-92370000D03*
X128700000Y-92370000D03*
%TD*%
%TO.C,R214*%
X200270000Y-60560000D03*
X192650000Y-60560000D03*
%TD*%
%TO.C,R189*%
X46407709Y-120782500D03*
X46407709Y-113162500D03*
%TD*%
D19*
%TO.C,D47*%
X186210000Y-145460000D03*
D15*
X186210000Y-153080000D03*
%TD*%
%TO.C,R44*%
X91460000Y-27300000D03*
X101620000Y-27300000D03*
%TD*%
%TO.C,C121*%
X245995000Y-97590000D03*
X248495000Y-97590000D03*
%TD*%
%TO.C,R84*%
X101740000Y-110260000D03*
X109360000Y-110260000D03*
%TD*%
D20*
%TO.C,C55*%
X10230000Y-58418288D03*
X12730000Y-58418288D03*
%TD*%
D15*
%TO.C,R59*%
X103799134Y-11970000D03*
X113959134Y-11970000D03*
%TD*%
D13*
%TO.C,SW5*%
X3370000Y-48713288D03*
D14*
X5870000Y-48713288D03*
%TD*%
D15*
%TO.C,R164*%
X53710000Y-79915000D03*
X61330000Y-79915000D03*
%TD*%
D20*
%TO.C,C52*%
X12770000Y-37233288D03*
X10270000Y-37233288D03*
%TD*%
D15*
%TO.C,R219*%
X12970000Y-141620000D03*
X20590000Y-141620000D03*
%TD*%
D13*
%TO.C,SW7*%
X140989176Y-34555000D03*
D14*
X143489176Y-34555000D03*
%TD*%
D15*
%TO.C,C13*%
X126720983Y-132001528D03*
X126720983Y-127001528D03*
%TD*%
%TO.C,C32*%
X178391701Y-31220018D03*
X183391701Y-31220018D03*
%TD*%
D23*
%TO.C,D25*%
X195690000Y-153080000D03*
D15*
X195690000Y-145460000D03*
%TD*%
%TO.C,R144*%
X210890000Y-82950000D03*
X203270000Y-82950000D03*
%TD*%
%TO.C,C98*%
X187553702Y-129105777D03*
X187553702Y-134105777D03*
%TD*%
%TO.C,R104*%
X226030000Y-86100000D03*
X233650000Y-86100000D03*
%TD*%
%TO.C,R232*%
X239350000Y-138452842D03*
X231730000Y-138452842D03*
%TD*%
%TO.C,R203*%
X25220000Y-63610000D03*
X17600000Y-63610000D03*
%TD*%
D13*
%TO.C,D10*%
X33800000Y-54858920D03*
D14*
X36300000Y-54858920D03*
%TD*%
D35*
%TO.C,Q4*%
X101000000Y-71120000D03*
D36*
X102270000Y-71120000D03*
X103540000Y-71120000D03*
%TD*%
D16*
%TO.C,U24*%
X62070000Y-103990000D03*
D15*
X62070000Y-106530000D03*
X62070000Y-109070000D03*
X62070000Y-111610000D03*
X69690000Y-111610000D03*
X69690000Y-109070000D03*
X69690000Y-106530000D03*
X69690000Y-103990000D03*
%TD*%
D13*
%TO.C,SW8*%
X140979176Y-41625000D03*
D14*
X143479176Y-41625000D03*
%TD*%
D15*
%TO.C,R216*%
X232540000Y-60510000D03*
X224920000Y-60510000D03*
%TD*%
%TO.C,R190*%
X203760000Y-120580000D03*
X203760000Y-112960000D03*
%TD*%
%TO.C,C125*%
X113890000Y-92480000D03*
X116390000Y-92480000D03*
%TD*%
D28*
%TO.C,D56*%
X117600000Y-152680000D03*
D29*
X117600000Y-142520000D03*
%TD*%
D19*
%TO.C,D45*%
X154950000Y-145450000D03*
D15*
X154950000Y-153070000D03*
%TD*%
%TO.C,R53*%
X91470000Y-11970000D03*
X101630000Y-11970000D03*
%TD*%
%TO.C,R153*%
X177350000Y-64430000D03*
X177350000Y-72050000D03*
%TD*%
%TO.C,R20*%
X9980000Y-55518288D03*
X17600000Y-55518288D03*
%TD*%
%TO.C,C2*%
X81335677Y-122510000D03*
X86335677Y-122510000D03*
%TD*%
%TO.C,R106*%
X18745000Y-97570000D03*
X11125000Y-97570000D03*
%TD*%
%TO.C,R129*%
X98620000Y-89270000D03*
X91000000Y-89270000D03*
%TD*%
D19*
%TO.C,D26*%
X193040000Y-145460000D03*
D15*
X193040000Y-153080000D03*
%TD*%
%TO.C,R172*%
X53710000Y-86215000D03*
X61330000Y-86215000D03*
%TD*%
%TO.C,R204*%
X41290000Y-63610000D03*
X33670000Y-63610000D03*
%TD*%
D13*
%TO.C,D6*%
X33800000Y-44823920D03*
D14*
X36300000Y-44823920D03*
%TD*%
D37*
%TO.C,U20*%
X62980000Y-5710000D03*
D38*
X60440000Y-5710000D03*
X57900000Y-5710000D03*
X55360000Y-5710000D03*
X52820000Y-5710000D03*
X50280000Y-5710000D03*
X47740000Y-5710000D03*
X45200000Y-5710000D03*
X42660000Y-5710000D03*
X40120000Y-5710000D03*
X37580000Y-5710000D03*
X35040000Y-5710000D03*
X32500000Y-5710000D03*
X29960000Y-5710000D03*
X27420000Y-5710000D03*
X24880000Y-5710000D03*
X22340000Y-5710000D03*
X19800000Y-5710000D03*
X17260000Y-5710000D03*
X14722720Y-5706320D03*
X12182720Y-5706320D03*
X9642720Y-5706320D03*
X9640000Y-28570000D03*
X12180000Y-28570000D03*
X14720000Y-28570000D03*
X17260000Y-28570000D03*
X19800000Y-28570000D03*
X22340000Y-28570000D03*
X24880000Y-28570000D03*
X27420000Y-28570000D03*
X29960000Y-28570000D03*
X32500000Y-28570000D03*
X35040000Y-28570000D03*
X37580000Y-28570000D03*
X40120000Y-28570000D03*
X42660000Y-28570000D03*
X45200000Y-28570000D03*
X47740000Y-28570000D03*
X50280000Y-28570000D03*
X52820000Y-28570000D03*
X55360000Y-28570000D03*
X57900000Y-28570000D03*
X60440000Y-28570000D03*
X62980000Y-28570000D03*
%TD*%
D28*
%TO.C,D58*%
X180110000Y-152680000D03*
D29*
X180110000Y-142520000D03*
%TD*%
D15*
%TO.C,R208*%
X232540000Y-63510000D03*
X224920000Y-63510000D03*
%TD*%
D39*
%TO.C,U9*%
X225580000Y-3680000D03*
D40*
X227280000Y-3680000D03*
X228980000Y-3680000D03*
X230680000Y-3680000D03*
X232380000Y-3680000D03*
%TD*%
D15*
%TO.C,C8*%
X237382605Y-8058299D03*
X232382605Y-8058299D03*
%TD*%
%TO.C,C107*%
X83000000Y-107230000D03*
X88000000Y-107230000D03*
%TD*%
%TO.C,R102*%
X151600000Y-86070000D03*
X159220000Y-86070000D03*
%TD*%
%TO.C,C146*%
X2970000Y-125750000D03*
X2970000Y-123250000D03*
%TD*%
%TO.C,R220*%
X51859341Y-138470000D03*
X44239341Y-138470000D03*
%TD*%
D24*
%TO.C,J5*%
X176875000Y-153500000D03*
X176875000Y-151000000D03*
X171875000Y-146000000D03*
X166875000Y-153500000D03*
X166875000Y-151000000D03*
D25*
X176875000Y-146000000D03*
D26*
X171875000Y-151000000D03*
D25*
X166875000Y-146000000D03*
%TD*%
D15*
%TO.C,R207*%
X216240000Y-63550000D03*
X208620000Y-63550000D03*
%TD*%
D23*
%TO.C,C103*%
X77310000Y-112820226D03*
D15*
X77310000Y-110320226D03*
%TD*%
D23*
%TO.C,D23*%
X164442960Y-153080000D03*
D15*
X164442960Y-145460000D03*
%TD*%
%TO.C,R125*%
X24020000Y-89370000D03*
X16400000Y-89370000D03*
%TD*%
D12*
%TO.C,FB4*%
X228781701Y-35378145D03*
X223701701Y-35378145D03*
%TD*%
D15*
%TO.C,C21*%
X171341701Y-18958299D03*
X176341701Y-18958299D03*
%TD*%
%TO.C,R158*%
X129164796Y-74730000D03*
X136784796Y-74730000D03*
%TD*%
%TO.C,R85*%
X109320000Y-116340000D03*
X101700000Y-116340000D03*
%TD*%
%TO.C,C84*%
X187553702Y-124015777D03*
X187553702Y-119015777D03*
%TD*%
D23*
%TO.C,C9*%
X77520000Y-118450000D03*
D15*
X77520000Y-115950000D03*
%TD*%
%TO.C,R193*%
X241166374Y-120850000D03*
X241166374Y-113230000D03*
%TD*%
%TO.C,R186*%
X8830215Y-120710000D03*
X8830215Y-113090000D03*
%TD*%
%TO.C,R112*%
X108490000Y-79830000D03*
X100870000Y-79830000D03*
%TD*%
D13*
%TO.C,D11*%
X160930000Y-58445000D03*
D14*
X163430000Y-58445000D03*
%TD*%
D12*
%TO.C,FB3*%
X160160240Y-25178299D03*
X165240240Y-25178299D03*
%TD*%
D15*
%TO.C,R132*%
X173660000Y-92370000D03*
X166040000Y-92370000D03*
%TD*%
%TO.C,R78*%
X110708449Y-119388458D03*
X103088449Y-119388458D03*
%TD*%
%TO.C,C175*%
X231020000Y-111500000D03*
X236020000Y-111500000D03*
%TD*%
%TO.C,R119*%
X226030000Y-89250000D03*
X233650000Y-89250000D03*
%TD*%
D16*
%TO.C,U16*%
X231010000Y-100810000D03*
D15*
X231010000Y-103350000D03*
X231010000Y-105890000D03*
X231010000Y-108430000D03*
X238630000Y-108430000D03*
X238630000Y-105890000D03*
X238630000Y-103350000D03*
X238630000Y-100810000D03*
%TD*%
%TO.C,R180*%
X41290000Y-69620000D03*
X33670000Y-69620000D03*
%TD*%
%TO.C,C113*%
X141950000Y-113290000D03*
X146950000Y-113290000D03*
%TD*%
D23*
%TO.C,C102*%
X76920000Y-131630000D03*
D15*
X76920000Y-129130000D03*
%TD*%
D16*
%TO.C,U17*%
X197008088Y-30929493D03*
D15*
X197008088Y-33469493D03*
X197008088Y-36009493D03*
X197008088Y-38549493D03*
X204628088Y-38549493D03*
X204628088Y-36009493D03*
X204628088Y-33469493D03*
X204628088Y-30929493D03*
%TD*%
%TO.C,R81*%
X139290000Y-124461244D03*
X146910000Y-124461244D03*
%TD*%
%TO.C,R165*%
X91000000Y-79826640D03*
X98620000Y-79826640D03*
%TD*%
%TO.C,R97*%
X248495000Y-100790000D03*
X240875000Y-100790000D03*
%TD*%
%TO.C,R46*%
X79150000Y-21179449D03*
X89310000Y-21179449D03*
%TD*%
D17*
%TO.C,C169*%
X238030000Y-92950000D03*
D15*
X235530000Y-92950000D03*
%TD*%
%TO.C,C119*%
X194060000Y-79720000D03*
X196560000Y-79720000D03*
%TD*%
%TO.C,R113*%
X113890000Y-89280000D03*
X121510000Y-89280000D03*
%TD*%
%TO.C,R174*%
X128700000Y-86070000D03*
X136320000Y-86070000D03*
%TD*%
D18*
%TO.C,K2*%
X18652500Y-123312500D03*
D12*
X18652500Y-125852500D03*
X18652500Y-133472500D03*
X23732500Y-133472500D03*
X23732500Y-125852500D03*
X23732500Y-123312500D03*
%TD*%
D15*
%TO.C,R28*%
X179875000Y-51285000D03*
X179875000Y-43665000D03*
%TD*%
D24*
%TO.C,J2*%
X145625000Y-153500000D03*
X145625000Y-151000000D03*
X140625000Y-146000000D03*
X135625000Y-153500000D03*
X135625000Y-151000000D03*
D25*
X145625000Y-146000000D03*
D26*
X140625000Y-151000000D03*
D25*
X135625000Y-146000000D03*
%TD*%
D21*
%TO.C,SW14*%
X51340000Y-74250000D03*
D22*
X53840000Y-74250000D03*
X56340000Y-74250000D03*
X58840000Y-74250000D03*
X61340000Y-74250000D03*
%TD*%
D23*
%TO.C,D38*%
X27300000Y-153080000D03*
D15*
X27300000Y-145460000D03*
%TD*%
%TO.C,C159*%
X29400000Y-93840000D03*
X34400000Y-93840000D03*
%TD*%
%TO.C,R17*%
X10020000Y-34333288D03*
X17640000Y-34333288D03*
%TD*%
%TO.C,R50*%
X91473287Y-21176713D03*
X101633287Y-21176713D03*
%TD*%
%TO.C,R142*%
X136320000Y-82920000D03*
X128700000Y-82920000D03*
%TD*%
%TO.C,R93*%
X121520000Y-82980000D03*
X113900000Y-82980000D03*
%TD*%
%TO.C,R79*%
X110706337Y-124458458D03*
X103086337Y-124458458D03*
%TD*%
%TO.C,R128*%
X98620000Y-92420000D03*
X91000000Y-92420000D03*
%TD*%
D24*
%TO.C,J8*%
X114375000Y-153500000D03*
X114375000Y-151000000D03*
X109375000Y-146000000D03*
X104375000Y-153500000D03*
X104375000Y-151000000D03*
D25*
X114375000Y-146000000D03*
D26*
X109375000Y-151000000D03*
D25*
X104375000Y-146000000D03*
%TD*%
D15*
%TO.C,R100*%
X76620000Y-86225000D03*
X84240000Y-86225000D03*
%TD*%
%TO.C,R40*%
X239951701Y-42880272D03*
X232331701Y-42880272D03*
%TD*%
%TO.C,C172*%
X116640000Y-79830000D03*
X111640000Y-79830000D03*
%TD*%
%TO.C,R24*%
X147739176Y-55520000D03*
X155359176Y-55520000D03*
%TD*%
D18*
%TO.C,K5*%
X201452500Y-123142500D03*
D12*
X201452500Y-125682500D03*
X201452500Y-133302500D03*
X206532500Y-133302500D03*
X206532500Y-125682500D03*
X206532500Y-123142500D03*
%TD*%
D15*
%TO.C,R42*%
X101630000Y-18118483D03*
X91470000Y-18118483D03*
%TD*%
%TO.C,C148*%
X28040000Y-125780000D03*
X28040000Y-123280000D03*
%TD*%
%TO.C,R116*%
X183530000Y-79770000D03*
X175910000Y-79770000D03*
%TD*%
D28*
%TO.C,D55*%
X86350000Y-152680000D03*
D29*
X86350000Y-142520000D03*
%TD*%
D15*
%TO.C,R91*%
X46890000Y-83070000D03*
X39270000Y-83070000D03*
%TD*%
%TO.C,C95*%
X58480000Y-124047016D03*
X58480000Y-129047016D03*
%TD*%
%TO.C,R178*%
X9150000Y-88950000D03*
X1530000Y-88950000D03*
%TD*%
%TO.C,R230*%
X207943449Y-138480000D03*
X200323449Y-138480000D03*
%TD*%
D19*
%TO.C,D41*%
X92450000Y-145460000D03*
D15*
X92450000Y-153080000D03*
%TD*%
%TO.C,R155*%
X81580000Y-74780000D03*
X89200000Y-74780000D03*
%TD*%
D16*
%TO.C,C6*%
X232377550Y-13969799D03*
D15*
X235877550Y-13969799D03*
%TD*%
D24*
%TO.C,J1*%
X20625000Y-153500000D03*
X20625000Y-151000000D03*
X15625000Y-146000000D03*
X10625000Y-153500000D03*
X10625000Y-151000000D03*
D25*
X20625000Y-146000000D03*
D26*
X15625000Y-151000000D03*
D25*
X10625000Y-146000000D03*
%TD*%
D15*
%TO.C,C26*%
X215173993Y-14978299D03*
X210173993Y-14978299D03*
%TD*%
%TO.C,R228*%
X176860203Y-138470000D03*
X169240203Y-138470000D03*
%TD*%
%TO.C,C101*%
X173582465Y-106666542D03*
X173582465Y-111666542D03*
%TD*%
%TO.C,C88*%
X128700000Y-98600000D03*
X123700000Y-98600000D03*
%TD*%
%TO.C,R70*%
X65130000Y-153080000D03*
X65130000Y-145460000D03*
%TD*%
%TO.C,R109*%
X39270000Y-89380000D03*
X46890000Y-89380000D03*
%TD*%
%TO.C,R69*%
X221390000Y-153080000D03*
X221390000Y-145460000D03*
%TD*%
D19*
%TO.C,C1*%
X84740000Y-125574888D03*
D15*
X84740000Y-128074888D03*
%TD*%
D19*
%TO.C,D39*%
X61210000Y-145460000D03*
D15*
X61210000Y-153080000D03*
%TD*%
%TO.C,R6*%
X224125657Y-15135587D03*
X224125657Y-7515587D03*
%TD*%
%TO.C,R218*%
X20590000Y-138470000D03*
X12970000Y-138470000D03*
%TD*%
%TO.C,R197*%
X57320000Y-66610000D03*
X49700000Y-66610000D03*
%TD*%
D23*
%TO.C,D44*%
X121055010Y-153080000D03*
D15*
X121055010Y-145460000D03*
%TD*%
%TO.C,C122*%
X26655000Y-110220000D03*
X24155000Y-110220000D03*
%TD*%
D23*
%TO.C,D27*%
X226937004Y-153080000D03*
D15*
X226937004Y-145460000D03*
%TD*%
D19*
%TO.C,C50*%
X88550000Y-52620000D03*
D15*
X88550000Y-55120000D03*
%TD*%
%TO.C,C115*%
X44390000Y-79880000D03*
X46890000Y-79880000D03*
%TD*%
D23*
%TO.C,D50*%
X214810000Y-153100000D03*
D15*
X214810000Y-145480000D03*
%TD*%
D23*
%TO.C,D30*%
X18452500Y-120754203D03*
D15*
X18452500Y-113134203D03*
%TD*%
%TO.C,R29*%
X29070000Y-57748920D03*
X29070000Y-50128920D03*
%TD*%
D23*
%TO.C,D35*%
X225752500Y-120852345D03*
D15*
X225752500Y-113232345D03*
%TD*%
%TO.C,C14*%
X154353867Y-79770000D03*
X149353867Y-79770000D03*
%TD*%
%TO.C,R171*%
X16400000Y-86220000D03*
X24020000Y-86220000D03*
%TD*%
%TO.C,R87*%
X128840005Y-116320000D03*
X121220005Y-116320000D03*
%TD*%
%TO.C,R83*%
X89850000Y-110200000D03*
X82230000Y-110200000D03*
%TD*%
D23*
%TO.C,D36*%
X238263783Y-120850000D03*
D15*
X238263783Y-113230000D03*
%TD*%
%TO.C,R195*%
X25220000Y-66610000D03*
X17600000Y-66610000D03*
%TD*%
D18*
%TO.C,K8*%
X238862500Y-123402500D03*
D12*
X238862500Y-125942500D03*
X238862500Y-133562500D03*
X243942500Y-133562500D03*
X243942500Y-125942500D03*
X243942500Y-123402500D03*
%TD*%
D15*
%TO.C,R35*%
X79150000Y-8910000D03*
X89310000Y-8910000D03*
%TD*%
D17*
%TO.C,C92*%
X127945113Y-102910000D03*
D15*
X125945113Y-102910000D03*
%TD*%
D24*
%TO.C,J9*%
X239375000Y-153500000D03*
X239375000Y-151000000D03*
X234375000Y-146000000D03*
X229375000Y-153500000D03*
X229375000Y-151000000D03*
D25*
X239375000Y-146000000D03*
D26*
X234375000Y-151000000D03*
D25*
X229375000Y-146000000D03*
%TD*%
D15*
%TO.C,C64*%
X5140000Y-142710000D03*
X2640000Y-142710000D03*
%TD*%
%TO.C,R217*%
X247910000Y-87100000D03*
X247910000Y-79480000D03*
%TD*%
%TO.C,C112*%
X146940000Y-107260000D03*
X141940000Y-107260000D03*
%TD*%
%TO.C,C41*%
X194308088Y-28467573D03*
X194308088Y-33467573D03*
%TD*%
%TO.C,R89*%
X148300000Y-116320000D03*
X140680000Y-116320000D03*
%TD*%
D16*
%TO.C,U11*%
X66755000Y-83095000D03*
D15*
X66755000Y-85635000D03*
X66755000Y-88175000D03*
X66755000Y-90715000D03*
X74375000Y-90715000D03*
X74375000Y-88175000D03*
X74375000Y-85635000D03*
X74375000Y-83095000D03*
%TD*%
D41*
%TO.C,D3*%
X227421701Y-18796920D03*
D42*
X219801701Y-18796920D03*
%TD*%
D15*
%TO.C,C132*%
X64050000Y-85595000D03*
X64050000Y-83095000D03*
%TD*%
%TO.C,C151*%
X210710000Y-125640000D03*
X210710000Y-123140000D03*
%TD*%
%TO.C,C86*%
X89708220Y-98610000D03*
X84708220Y-98610000D03*
%TD*%
%TO.C,C24*%
X179080000Y-93730000D03*
X184080000Y-93730000D03*
%TD*%
D20*
%TO.C,C17*%
X135190000Y-39740000D03*
X135190000Y-37240000D03*
%TD*%
D15*
%TO.C,R173*%
X91000000Y-86120000D03*
X98620000Y-86120000D03*
%TD*%
D35*
%TO.C,Q6*%
X132730000Y-71070000D03*
D36*
X134000000Y-71070000D03*
X135270000Y-71070000D03*
%TD*%
D15*
%TO.C,R169*%
X217985000Y-97640000D03*
X225605000Y-97640000D03*
%TD*%
%TO.C,C134*%
X139020000Y-85440000D03*
X139020000Y-82940000D03*
%TD*%
%TO.C,R14*%
X84220000Y-39540000D03*
X76600000Y-39540000D03*
%TD*%
D23*
%TO.C,D46*%
X152300000Y-153070000D03*
D15*
X152300000Y-145450000D03*
%TD*%
D16*
%TO.C,U7*%
X179070000Y-82940000D03*
D15*
X179070000Y-85480000D03*
X179070000Y-88020000D03*
X179070000Y-90560000D03*
X186690000Y-90560000D03*
X186690000Y-88020000D03*
X186690000Y-85480000D03*
X186690000Y-82940000D03*
%TD*%
%TO.C,R47*%
X79150000Y-24240000D03*
X89310000Y-24240000D03*
%TD*%
%TO.C,C152*%
X223210000Y-125910000D03*
X223210000Y-123410000D03*
%TD*%
%TO.C,R66*%
X33890000Y-153080000D03*
X33890000Y-145460000D03*
%TD*%
%TO.C,R126*%
X61340000Y-92445000D03*
X53720000Y-92445000D03*
%TD*%
D28*
%TO.C,D60*%
X242603034Y-152680000D03*
D29*
X242603034Y-142520000D03*
%TD*%
D15*
%TO.C,C136*%
X213590000Y-85466276D03*
X213590000Y-82966276D03*
%TD*%
%TO.C,C124*%
X76620000Y-92585000D03*
X79120000Y-92585000D03*
%TD*%
D17*
%TO.C,C173*%
X121610000Y-93740000D03*
D15*
X119110000Y-93740000D03*
%TD*%
%TO.C,R167*%
X166040000Y-79770000D03*
X173660000Y-79770000D03*
%TD*%
D18*
%TO.C,K3*%
X31182500Y-123292500D03*
D12*
X31182500Y-125832500D03*
X31182500Y-133452500D03*
X36262500Y-133452500D03*
X36262500Y-125832500D03*
X36262500Y-123292500D03*
%TD*%
D15*
%TO.C,C111*%
X122490005Y-113300000D03*
X127490005Y-113300000D03*
%TD*%
D19*
%TO.C,D16*%
X36790000Y-145460000D03*
D15*
X36790000Y-153080000D03*
%TD*%
%TO.C,R72*%
X158890000Y-153080000D03*
X158890000Y-145460000D03*
%TD*%
%TO.C,R148*%
X97880000Y-64460000D03*
X97880000Y-72080000D03*
%TD*%
D13*
%TO.C,D12*%
X172770000Y-58480000D03*
D14*
X175270000Y-58480000D03*
%TD*%
D23*
%TO.C,C81*%
X192012465Y-106686542D03*
D15*
X192012465Y-104186542D03*
%TD*%
%TO.C,R196*%
X41290000Y-66610000D03*
X33670000Y-66610000D03*
%TD*%
%TO.C,R115*%
X151600000Y-89220000D03*
X159220000Y-89220000D03*
%TD*%
%TO.C,R181*%
X57320000Y-69620000D03*
X49700000Y-69620000D03*
%TD*%
%TO.C,C116*%
X81740000Y-79875000D03*
X84240000Y-79875000D03*
%TD*%
D43*
%TO.C,Q1*%
X181101701Y-3778299D03*
D44*
X183641701Y-3778299D03*
X186181701Y-3778299D03*
%TD*%
D15*
%TO.C,C163*%
X66750000Y-93860000D03*
X71750000Y-93860000D03*
%TD*%
%TO.C,R114*%
X146190000Y-79770000D03*
X138570000Y-79770000D03*
%TD*%
D20*
%TO.C,C25*%
X127570000Y-37224222D03*
X127570000Y-39724222D03*
%TD*%
D15*
%TO.C,C70*%
X100328449Y-121438458D03*
X100328449Y-118938458D03*
%TD*%
D17*
%TO.C,C36*%
X174301701Y-38705178D03*
D15*
X170801701Y-38705178D03*
%TD*%
%TO.C,R18*%
X10020000Y-41388288D03*
X17640000Y-41388288D03*
%TD*%
%TO.C,R23*%
X147639176Y-48450000D03*
X155259176Y-48450000D03*
%TD*%
%TO.C,R202*%
X9150000Y-82940000D03*
X1530000Y-82940000D03*
%TD*%
%TO.C,C51*%
X84240000Y-52450000D03*
X84240000Y-57450000D03*
%TD*%
D16*
%TO.C,C43*%
X160169432Y-14498299D03*
D15*
X162669432Y-14498299D03*
%TD*%
%TO.C,R127*%
X61330000Y-89365000D03*
X53710000Y-89365000D03*
%TD*%
%TO.C,R94*%
X159220000Y-82920000D03*
X151600000Y-82920000D03*
%TD*%
D30*
%TO.C,F2*%
X196041701Y-4976543D03*
X190941701Y-3776543D03*
%TD*%
D15*
%TO.C,R233*%
X231730000Y-141614760D03*
X239350000Y-141614760D03*
%TD*%
D23*
%TO.C,D48*%
X183560000Y-153080000D03*
D15*
X183560000Y-145460000D03*
%TD*%
D24*
%TO.C,J6*%
X83125000Y-153500000D03*
X83125000Y-151000000D03*
X78125000Y-146000000D03*
X73125000Y-153500000D03*
X73125000Y-151000000D03*
D25*
X83125000Y-146000000D03*
D26*
X78125000Y-151000000D03*
D25*
X73125000Y-146000000D03*
%TD*%
D23*
%TO.C,U19*%
X60750000Y-60070000D03*
D15*
X63290000Y-60070000D03*
X65830000Y-60070000D03*
X68370000Y-60070000D03*
X70910000Y-60070000D03*
X73450000Y-60070000D03*
X75990000Y-60070000D03*
X78530000Y-60070000D03*
X81070000Y-60070000D03*
X81070000Y-52450000D03*
X78530000Y-52450000D03*
X75990000Y-52450000D03*
X73450000Y-52450000D03*
X70910000Y-52450000D03*
X68370000Y-52450000D03*
X65830000Y-52450000D03*
X63290000Y-52450000D03*
X60750000Y-52450000D03*
%TD*%
D23*
%TO.C,C31*%
X172450000Y-97950000D03*
D15*
X172450000Y-95450000D03*
%TD*%
D35*
%TO.C,Q7*%
X148610000Y-71070000D03*
D36*
X149880000Y-71070000D03*
X151150000Y-71070000D03*
%TD*%
D15*
%TO.C,R43*%
X79140000Y-27300000D03*
X89300000Y-27300000D03*
%TD*%
%TO.C,R143*%
X173660000Y-82920000D03*
X166040000Y-82920000D03*
%TD*%
%TO.C,R168*%
X203270000Y-79800000D03*
X210890000Y-79800000D03*
%TD*%
%TO.C,C106*%
X88000000Y-113250000D03*
X83000000Y-113250000D03*
%TD*%
%TO.C,R209*%
X244880000Y-87110000D03*
X244880000Y-79490000D03*
%TD*%
D28*
%TO.C,D59*%
X211355734Y-152695734D03*
D29*
X211355734Y-142535734D03*
%TD*%
D23*
%TO.C,D33*%
X200860000Y-120580000D03*
D15*
X200860000Y-112960000D03*
%TD*%
D19*
%TO.C,D20*%
X99290000Y-145460000D03*
D15*
X99290000Y-153080000D03*
%TD*%
D20*
%TO.C,C145*%
X244070000Y-120600000D03*
X244070000Y-118100000D03*
%TD*%
D23*
%TO.C,D32*%
X43507709Y-120782500D03*
D15*
X43507709Y-113162500D03*
%TD*%
D19*
%TO.C,D24*%
X161790000Y-145460000D03*
D15*
X161790000Y-153080000D03*
%TD*%
D17*
%TO.C,C165*%
X69250000Y-98350000D03*
D15*
X66750000Y-98350000D03*
%TD*%
D13*
%TO.C,D7*%
X160915000Y-48430000D03*
D14*
X163415000Y-48430000D03*
%TD*%
D15*
%TO.C,C117*%
X119020000Y-79770000D03*
X121520000Y-79770000D03*
%TD*%
D19*
%TO.C,D18*%
X68030000Y-145460000D03*
D15*
X68030000Y-153080000D03*
%TD*%
%TO.C,C69*%
X223880000Y-142710000D03*
X221380000Y-142710000D03*
%TD*%
D23*
%TO.C,D34*%
X213239407Y-120582500D03*
D15*
X213239407Y-112962500D03*
%TD*%
%TO.C,R45*%
X79148975Y-18120000D03*
X89308975Y-18120000D03*
%TD*%
D17*
%TO.C,C91*%
X108450000Y-102870000D03*
D15*
X106450000Y-102870000D03*
%TD*%
%TO.C,C11*%
X114870000Y-39990000D03*
X114870000Y-34990000D03*
%TD*%
%TO.C,R215*%
X216240000Y-60550000D03*
X208620000Y-60550000D03*
%TD*%
D16*
%TO.C,C23*%
X194040000Y-93520000D03*
D15*
X196540000Y-93520000D03*
%TD*%
%TO.C,C66*%
X192640000Y-142710000D03*
X190140000Y-142710000D03*
%TD*%
%TO.C,R183*%
X216240000Y-69550000D03*
X208620000Y-69550000D03*
%TD*%
D20*
%TO.C,C20*%
X130118183Y-37231817D03*
X130118183Y-39731817D03*
%TD*%
D15*
%TO.C,C153*%
X235870000Y-125900982D03*
X235870000Y-123400982D03*
%TD*%
%TO.C,R231*%
X200320000Y-141630000D03*
X207940000Y-141630000D03*
%TD*%
%TO.C,C72*%
X149670000Y-121880142D03*
X149670000Y-119380142D03*
%TD*%
%TO.C,C83*%
X72860000Y-106530000D03*
X72860000Y-101530000D03*
%TD*%
D35*
%TO.C,Q5*%
X116865000Y-71145000D03*
D36*
X118135000Y-71145000D03*
X119405000Y-71145000D03*
%TD*%
D15*
%TO.C,R192*%
X228652500Y-120849613D03*
X228652500Y-113229613D03*
%TD*%
%TO.C,R151*%
X145490000Y-64410000D03*
X145490000Y-72030000D03*
%TD*%
%TO.C,C71*%
X100338449Y-131598458D03*
X100338449Y-129098458D03*
%TD*%
D23*
%TO.C,D15*%
X39440000Y-153080000D03*
D15*
X39440000Y-145460000D03*
%TD*%
D20*
%TO.C,C140*%
X36792500Y-120504026D03*
X36792500Y-118004026D03*
%TD*%
D15*
%TO.C,R139*%
X24010000Y-83070000D03*
X16390000Y-83070000D03*
%TD*%
D20*
%TO.C,C59*%
X147989176Y-58420000D03*
X150489176Y-58420000D03*
%TD*%
D15*
%TO.C,R19*%
X10020000Y-48463288D03*
X17640000Y-48463288D03*
%TD*%
%TO.C,R7*%
X132975000Y-27070000D03*
X132975000Y-34690000D03*
%TD*%
D21*
%TO.C,SW12*%
X19240000Y-74250000D03*
D22*
X21740000Y-74250000D03*
X24240000Y-74250000D03*
X26740000Y-74250000D03*
X29240000Y-74250000D03*
%TD*%
D23*
%TO.C,C105*%
X192012467Y-114235113D03*
D15*
X192012467Y-111735113D03*
%TD*%
D23*
%TO.C,D42*%
X89800000Y-153073846D03*
D15*
X89800000Y-145453846D03*
%TD*%
D45*
%TO.C,C16*%
X176341701Y-11714747D03*
D12*
X171341701Y-11714747D03*
%TD*%
D15*
%TO.C,R105*%
X240875000Y-103940000D03*
X248495000Y-103940000D03*
%TD*%
D16*
%TO.C,U29*%
X150420000Y-98610000D03*
D15*
X150420000Y-101150000D03*
X150420000Y-103690000D03*
X150420000Y-106230000D03*
X150420000Y-108770000D03*
X150420000Y-111310000D03*
X150420000Y-113850000D03*
X158040000Y-113850000D03*
X158040000Y-111310000D03*
X158040000Y-108770000D03*
X158040000Y-106230000D03*
X158040000Y-103690000D03*
X158040000Y-101150000D03*
X158040000Y-98610000D03*
%TD*%
D16*
%TO.C,U22*%
X61670000Y-121510000D03*
D15*
X61670000Y-124050000D03*
X61670000Y-126590000D03*
X61670000Y-129130000D03*
X69290000Y-129130000D03*
X69290000Y-126590000D03*
X69290000Y-124050000D03*
X69290000Y-121510000D03*
%TD*%
%TO.C,R199*%
X216240000Y-66550000D03*
X208620000Y-66550000D03*
%TD*%
%TO.C,C154*%
X26900000Y-97570000D03*
X21900000Y-97570000D03*
%TD*%
D13*
%TO.C,SW3*%
X3370000Y-34598288D03*
D14*
X5870000Y-34598288D03*
%TD*%
D15*
%TO.C,R160*%
X160960000Y-74740000D03*
X168580000Y-74740000D03*
%TD*%
%TO.C,R111*%
X76617364Y-89385000D03*
X84237364Y-89385000D03*
%TD*%
%TO.C,R206*%
X200270000Y-63560000D03*
X192650000Y-63560000D03*
%TD*%
%TO.C,R16*%
X92510000Y-52580000D03*
X100130000Y-52580000D03*
%TD*%
%TO.C,R170*%
X1255000Y-103870000D03*
X8875000Y-103870000D03*
%TD*%
%TO.C,R49*%
X79130000Y-2740000D03*
X89290000Y-2740000D03*
%TD*%
D23*
%TO.C,D29*%
X5929066Y-120710000D03*
D15*
X5929066Y-113090000D03*
%TD*%
%TO.C,R133*%
X173660000Y-89220000D03*
X166040000Y-89220000D03*
%TD*%
%TO.C,R138*%
X8873701Y-100720000D03*
X1253701Y-100720000D03*
%TD*%
%TO.C,C130*%
X11575000Y-103250000D03*
X11575000Y-100750000D03*
%TD*%
D20*
%TO.C,C142*%
X206650000Y-120330000D03*
X206650000Y-117830000D03*
%TD*%
D15*
%TO.C,C4*%
X113409432Y-131999864D03*
X113409432Y-126999864D03*
%TD*%
D18*
%TO.C,K6*%
X213852500Y-123142500D03*
D12*
X213852500Y-125682500D03*
X213852500Y-133302500D03*
X218932500Y-133302500D03*
X218932500Y-125682500D03*
X218932500Y-123142500D03*
%TD*%
D15*
%TO.C,C160*%
X42020000Y-79920000D03*
X37020000Y-79920000D03*
%TD*%
%TO.C,C135*%
X176360000Y-85440000D03*
X176360000Y-82940000D03*
%TD*%
D13*
%TO.C,D8*%
X172775000Y-48435000D03*
D14*
X175275000Y-48435000D03*
%TD*%
D24*
%TO.C,J4*%
X51875000Y-153500000D03*
X51875000Y-151000000D03*
X46875000Y-146000000D03*
X41875000Y-153500000D03*
X41875000Y-151000000D03*
D25*
X51875000Y-146000000D03*
D26*
X46875000Y-151000000D03*
D25*
X41875000Y-146000000D03*
%TD*%
D23*
%TO.C,C12*%
X214278976Y-8066706D03*
D15*
X214278976Y-4566706D03*
%TD*%
D20*
%TO.C,C58*%
X147889176Y-51350000D03*
X150389176Y-51350000D03*
%TD*%
D15*
%TO.C,R163*%
X16390000Y-79920000D03*
X24010000Y-79920000D03*
%TD*%
%TO.C,R223*%
X75480000Y-141620000D03*
X83100000Y-141620000D03*
%TD*%
%TO.C,C34*%
X168670049Y-119360000D03*
X163670049Y-119360000D03*
%TD*%
%TO.C,C127*%
X188940000Y-92420000D03*
X191440000Y-92420000D03*
%TD*%
%TO.C,C61*%
X239501701Y-55368794D03*
X239501701Y-50368794D03*
%TD*%
%TO.C,R137*%
X225605000Y-107090000D03*
X217985000Y-107090000D03*
%TD*%
%TO.C,C94*%
X72460000Y-129130000D03*
X72460000Y-134130000D03*
%TD*%
%TO.C,R60*%
X103800000Y-15047715D03*
X113960000Y-15047715D03*
%TD*%
%TO.C,C110*%
X127490005Y-107250000D03*
X122490005Y-107250000D03*
%TD*%
%TO.C,R68*%
X190140000Y-153080000D03*
X190140000Y-145460000D03*
%TD*%
%TO.C,R98*%
X24155000Y-103870000D03*
X31775000Y-103870000D03*
%TD*%
%TO.C,C155*%
X14560000Y-110980000D03*
X14560000Y-115980000D03*
%TD*%
%TO.C,R80*%
X110706337Y-134619659D03*
X103086337Y-134619659D03*
%TD*%
D19*
%TO.C,D43*%
X123715010Y-145459723D03*
D15*
X123715010Y-153079723D03*
%TD*%
%TO.C,R74*%
X110698449Y-129548458D03*
X103078449Y-129548458D03*
%TD*%
D16*
%TO.C,U23*%
X91971073Y-98610000D03*
D15*
X91971073Y-101150000D03*
X91971073Y-103690000D03*
X91971073Y-106230000D03*
X91971073Y-108770000D03*
X91971073Y-111310000D03*
X91971073Y-113850000D03*
X99591073Y-113850000D03*
X99591073Y-111310000D03*
X99591073Y-108770000D03*
X99591073Y-106230000D03*
X99591073Y-103690000D03*
X99591073Y-101150000D03*
X99591073Y-98610000D03*
%TD*%
D16*
%TO.C,C3*%
X155570000Y-74020000D03*
D15*
X158070000Y-74020000D03*
%TD*%
D35*
%TO.C,Q2*%
X69280000Y-71100000D03*
D36*
X70550000Y-71100000D03*
X71820000Y-71100000D03*
%TD*%
D17*
%TO.C,C15*%
X159240000Y-93690000D03*
D15*
X156740000Y-93690000D03*
%TD*%
%TO.C,R21*%
X147639176Y-34305000D03*
X155259176Y-34305000D03*
%TD*%
%TO.C,R182*%
X200270000Y-69560000D03*
X192650000Y-69560000D03*
%TD*%
D19*
%TO.C,D14*%
X5550000Y-145460000D03*
D15*
X5550000Y-153080000D03*
%TD*%
%TO.C,R161*%
X176900000Y-74750000D03*
X184520000Y-74750000D03*
%TD*%
D16*
%TO.C,U28*%
X176760000Y-104120000D03*
D15*
X176760000Y-106660000D03*
X176760000Y-109200000D03*
X176760000Y-111740000D03*
X184380000Y-111740000D03*
X184380000Y-109200000D03*
X184380000Y-106660000D03*
X184380000Y-104120000D03*
%TD*%
%TO.C,C77*%
X149670000Y-126952996D03*
X149670000Y-124452996D03*
%TD*%
D23*
%TO.C,C78*%
X77270000Y-124045113D03*
D15*
X77270000Y-121545113D03*
%TD*%
%TO.C,R123*%
X8875000Y-107030000D03*
X1255000Y-107030000D03*
%TD*%
D21*
%TO.C,SW13*%
X35290000Y-74250000D03*
D22*
X37790000Y-74250000D03*
X40290000Y-74250000D03*
X42790000Y-74250000D03*
X45290000Y-74250000D03*
%TD*%
D15*
%TO.C,R48*%
X79137007Y-15050000D03*
X89297007Y-15050000D03*
%TD*%
%TO.C,R55*%
X79140000Y-5820000D03*
X89300000Y-5820000D03*
%TD*%
%TO.C,R11*%
X190430000Y-48320468D03*
X190430000Y-55940468D03*
%TD*%
%TO.C,C129*%
X240875000Y-110300000D03*
X243375000Y-110300000D03*
%TD*%
D35*
%TO.C,Q8*%
X164520000Y-71080000D03*
D36*
X165790000Y-71080000D03*
X167060000Y-71080000D03*
%TD*%
D16*
%TO.C,U10*%
X197005000Y-43235075D03*
D15*
X197005000Y-45775075D03*
X197005000Y-48315075D03*
X197005000Y-50855075D03*
X204625000Y-50855075D03*
X204625000Y-48315075D03*
X204625000Y-45775075D03*
X204625000Y-43235075D03*
%TD*%
%TO.C,R25*%
X29070000Y-47673920D03*
X29070000Y-40053920D03*
%TD*%
D23*
%TO.C,C80*%
X192020000Y-124008377D03*
D15*
X192020000Y-121508377D03*
%TD*%
D16*
%TO.C,U2*%
X116115000Y-119378458D03*
D15*
X116115000Y-121918458D03*
X116115000Y-124458458D03*
X116115000Y-126998458D03*
X116115000Y-129538458D03*
X116115000Y-132078458D03*
X116115000Y-134618458D03*
X123735000Y-134618458D03*
X123735000Y-132078458D03*
X123735000Y-129538458D03*
X123735000Y-126998458D03*
X123735000Y-124458458D03*
X123735000Y-121918458D03*
X123735000Y-119378458D03*
%TD*%
D16*
%TO.C,C37*%
X143814888Y-15910000D03*
D15*
X146314888Y-15910000D03*
%TD*%
%TO.C,C96*%
X72860000Y-111610000D03*
X72860000Y-116610000D03*
%TD*%
D35*
%TO.C,Q9*%
X180460000Y-71090000D03*
D36*
X181730000Y-71090000D03*
X183000000Y-71090000D03*
%TD*%
D19*
%TO.C,U5*%
X135190000Y-42250000D03*
D15*
X132650000Y-42250000D03*
X130110000Y-42250000D03*
X127570000Y-42250000D03*
X125030000Y-42250000D03*
X122490000Y-42250000D03*
X119950000Y-42250000D03*
X117410000Y-42250000D03*
X114870000Y-42250000D03*
X112330000Y-42250000D03*
X109790000Y-42250000D03*
X107250000Y-42250000D03*
X104710000Y-42250000D03*
X102170000Y-42250000D03*
X102170000Y-49870000D03*
X104710000Y-49870000D03*
X107250000Y-49870000D03*
X109790000Y-49870000D03*
X112330000Y-49870000D03*
X114870000Y-49870000D03*
X117410000Y-49870000D03*
X119950000Y-49870000D03*
X122490000Y-49870000D03*
X125030000Y-49870000D03*
X127570000Y-49870000D03*
X130110000Y-49870000D03*
X132650000Y-49870000D03*
X135190000Y-49870000D03*
%TD*%
D21*
%TO.C,SW15*%
X188607244Y-74250000D03*
D22*
X191107244Y-74250000D03*
X193607244Y-74250000D03*
X196107244Y-74250000D03*
X198607244Y-74250000D03*
%TD*%
D23*
%TO.C,D17*%
X70680000Y-153080000D03*
D15*
X70680000Y-145460000D03*
%TD*%
%TO.C,R61*%
X103797244Y-18110000D03*
X113957244Y-18110000D03*
%TD*%
D46*
%TO.C,J11*%
X244521701Y-57878145D03*
D47*
X244521701Y-55378145D03*
X244521701Y-52878145D03*
X244521701Y-50378145D03*
X244521701Y-47878145D03*
X244521701Y-45378145D03*
X244521701Y-42878145D03*
X244521701Y-40378145D03*
X244521701Y-37878145D03*
X244521701Y-35378145D03*
X244521701Y-32878145D03*
X244521701Y-30378145D03*
X244521701Y-27878145D03*
%TD*%
D15*
%TO.C,R162*%
X1255000Y-97570000D03*
X8875000Y-97570000D03*
%TD*%
%TO.C,R51*%
X91480000Y-24240000D03*
X101640000Y-24240000D03*
%TD*%
D35*
%TO.C,Q3*%
X85140000Y-71110000D03*
D36*
X86410000Y-71110000D03*
X87680000Y-71110000D03*
%TD*%
D15*
%TO.C,C5*%
X141730000Y-93730000D03*
X146730000Y-93730000D03*
%TD*%
%TO.C,C133*%
X101320000Y-85500000D03*
X101320000Y-83000000D03*
%TD*%
%TO.C,C30*%
X191693741Y-79770000D03*
X186693741Y-79770000D03*
%TD*%
%TO.C,R118*%
X220761821Y-79800000D03*
X213141821Y-79800000D03*
%TD*%
%TO.C,R201*%
X241870000Y-87110000D03*
X241870000Y-79490000D03*
%TD*%
%TO.C,R110*%
X71200000Y-79915000D03*
X63580000Y-79915000D03*
%TD*%
%TO.C,R121*%
X240875000Y-107100000D03*
X248495000Y-107100000D03*
%TD*%
%TO.C,R3*%
X220975657Y-15135587D03*
X220975657Y-7515587D03*
%TD*%
%TO.C,R63*%
X239951701Y-35378145D03*
X232331701Y-35378145D03*
%TD*%
D13*
%TO.C,D5*%
X21950000Y-44833920D03*
D14*
X24450000Y-44833920D03*
%TD*%
D15*
%TO.C,R67*%
X127640000Y-153080000D03*
X127640000Y-145460000D03*
%TD*%
%TO.C,R107*%
X31775000Y-107020000D03*
X24155000Y-107020000D03*
%TD*%
D16*
%TO.C,U6*%
X129430000Y-119380000D03*
D15*
X129430000Y-121920000D03*
X129430000Y-124460000D03*
X129430000Y-127000000D03*
X129430000Y-129540000D03*
X129430000Y-132080000D03*
X129430000Y-134620000D03*
X137050000Y-134620000D03*
X137050000Y-132080000D03*
X137050000Y-129540000D03*
X137050000Y-127000000D03*
X137050000Y-124460000D03*
X137050000Y-121920000D03*
X137050000Y-119380000D03*
%TD*%
D17*
%TO.C,C60*%
X235770402Y-50368145D03*
D15*
X233270402Y-50368145D03*
%TD*%
D23*
%TO.C,D19*%
X101940000Y-153080000D03*
D15*
X101940000Y-145460000D03*
%TD*%
%TO.C,C39*%
X140639999Y-16230000D03*
X140639999Y-11230000D03*
%TD*%
D23*
%TO.C,C19*%
X223511701Y-28515934D03*
D15*
X223511701Y-26015934D03*
%TD*%
%TO.C,R225*%
X106720000Y-141610000D03*
X114340000Y-141610000D03*
%TD*%
D17*
%TO.C,C40*%
X190928088Y-33470046D03*
D15*
X188428088Y-33470046D03*
%TD*%
%TO.C,C99*%
X173579550Y-124019550D03*
X173579550Y-129019550D03*
%TD*%
D19*
%TO.C,D28*%
X224286000Y-145460000D03*
D15*
X224286000Y-153080000D03*
%TD*%
%TO.C,C114*%
X29285000Y-97520000D03*
X31785000Y-97520000D03*
%TD*%
D20*
%TO.C,C18*%
X132650000Y-37234672D03*
X132650000Y-39734672D03*
%TD*%
D15*
%TO.C,R194*%
X9150000Y-85940000D03*
X1530000Y-85940000D03*
%TD*%
D17*
%TO.C,C170*%
X110600000Y-75390000D03*
D15*
X108100000Y-75390000D03*
%TD*%
%TO.C,R27*%
X168025000Y-51275000D03*
X168025000Y-43655000D03*
%TD*%
D13*
%TO.C,D9*%
X21970000Y-54893920D03*
D14*
X24470000Y-54893920D03*
%TD*%
D48*
%TO.C,BT1*%
X220300267Y-61228299D03*
X220300267Y-3828299D03*
D49*
X246720267Y-10178299D03*
D10*
X246720267Y-22878299D03*
%TD*%
M02*
